RobotoFlexCondensed-Light.ufo
<glyph name="ampersand" format="2">
  <advance width="1069"/>
  <unicode hex="0026"/>
  <outline>
    <contour>
      <point x="80.0" y="380.0" type="curve" smooth="yes"/>
      <point x="79" y="579"/>
      <point x="183" y="696"/>
      <point x="381.37148366011667" y="839.3961568627367" type="curve" smooth="yes"/>
      <point x="506.57105882350834" y="935.40232679738" type="line" smooth="yes"/>
      <point x="600" y="1004"/>
      <point x="639" y="1069"/>
      <point x="638.7709673202334" y="1173.8896732026199" type="curve" smooth="yes"/>
      <point x="639" y="1304"/>
      <point x="585" y="1386"/>
      <point x="481.51226143791837" y="1385.5155163398833" type="curve" smooth="yes"/>
      <point x="377" y="1386"/>
      <point x="315" y="1295"/>
      <point x="314.75091503267834" y="1159.0163398692866" type="curve" smooth="yes"/>
      <point x="315" y="1059"/>
      <point x="342" y="989"/>
      <point x="459.8169738561867" y="824.0960130719067" type="curve" smooth="yes"/>
      <point x="1045.730784313755" y="0.0" type="line"/>
      <point x="915.0596862745267" y="0.0" type="line"/>
      <point x="374.68416993464336" y="759.80567320262" type="line" smooth="yes"/>
      <point x="242" y="945"/>
      <point x="203" y="1032"/>
      <point x="203.41128104577834" y="1159.0163398692866" type="curve" smooth="yes"/>
      <point x="203" y="1362"/>
      <point x="317" y="1486"/>
      <point x="481.51226143791837" y="1486.0" type="curve" smooth="yes"/>
      <point x="642" y="1486"/>
      <point x="749" y="1370"/>
      <point x="748.6425882352983" y="1179.1310065359535" type="curve" smooth="yes"/>
      <point x="749" y="1032"/>
      <point x="674" y="934"/>
      <point x="571.2233333333334" y="853.77949019607" type="curve" smooth="yes"/>
      <point x="438.810620915065" y="754.5130065359533" type="line" smooth="yes"/>
      <point x="259" y="626"/>
      <point x="192" y="532"/>
      <point x="191.4416339869" y="380.4918300653567" type="curve" smooth="yes"/>
      <point x="192" y="199"/>
      <point x="295" y="80"/>
      <point x="456.53345098042166" y="80.48448366011667" type="curve" smooth="yes"/>
      <point x="683" y="80"/>
      <point x="871" y="306"/>
      <point x="871.2905228758368" y="674.0" type="curve"/>
      <point x="978.1628235294033" y="674.0" type="line"/>
      <point x="978" y="280"/>
      <point x="753" y="-20"/>
      <point x="456.53345098042166" y="-20.0" type="curve" smooth="yes"/>
      <point x="220" y="-20"/>
      <point x="81" y="150"/>
    </contour>
  </outline>
</glyph>
<glyph name="parenright" format="2">
  <advance width="621"/>
  <unicode hex="0029"/>
  <outline>
    <contour>
      <point x="59.322222222198334" y="-436.0" type="curve"/>
      <point x="59.322222222198334" y="-354.76895424839836" type="line"/>
      <point x="249" y="-259"/>
      <point x="381" y="-41"/>
      <point x="381.0" y="508.0" type="curve" smooth="yes"/>
      <point x="381.0" y="532.0" type="line" smooth="yes"/>
      <point x="381" y="1057"/>
      <point x="249" y="1299"/>
      <point x="59.322222222198334" y="1394.0522875817317" type="curve"/>
      <point x="59.322222222198334" y="1476.0" type="line"/>
      <point x="319" y="1365"/>
      <point x="497" y="1059"/>
      <point x="497.15464052285336" y="525.0" type="curve" smooth="yes"/>
      <point x="497.15464052285336" y="515.0" type="line" smooth="yes"/>
      <point x="497" y="-48"/>
      <point x="319" y="-325"/>
    </contour>
  </outline>
</glyph>
<glyph name="period" format="2">
  <advance width="493"/>
  <unicode hex="002E"/>
  <outline>
    <contour>
      <point x="160.0" y="77.97549019607" type="curve" smooth="yes"/>
      <point x="160" y="134"/>
      <point x="191" y="178"/>
      <point x="247.31831372547333" y="178.44281045749668" type="curve" smooth="yes"/>
      <point x="302" y="178"/>
      <point x="332" y="134"/>
      <point x="332.01146405225666" y="77.40065359476" type="curve" smooth="yes"/>
      <point x="332" y="23"/>
      <point x="302" y="-22"/>
      <point x="245.75981699345" y="-22.0" type="curve" smooth="yes"/>
      <point x="191" y="-22"/>
      <point x="160" y="23"/>
    </contour>
  </outline>
</glyph>
<glyph name="zero" format="2">
  <advance width="1087"/>
  <unicode hex="0030"/>
  <outline>
    <contour>
      <point x="152.31503267976666" y="429.40980392154336" type="curve" smooth="yes"/>
      <point x="152.31503267976666" y="1025.1568627451234" type="line" smooth="yes"/>
      <point x="152" y="1312"/>
      <point x="295" y="1486"/>
      <point x="543.5928104574966" y="1486.0" type="curve" smooth="yes"/>
      <point x="791" y="1486"/>
      <point x="935" y="1312"/>
      <point x="935.362418300655" y="1025.1568627451234" type="curve" smooth="yes"/>
      <point x="935.362418300655" y="429.40980392154336" type="line" smooth="yes"/>
      <point x="935" y="144"/>
      <point x="791" y="-30"/>
      <point x="543.5928104574966" y="-30.0" type="curve" smooth="yes"/>
      <point x="295" y="-30"/>
      <point x="152" y="144"/>
    </contour>
    <contour>
      <point x="268.8833333333333" y="422.27647058821003" type="line" smooth="yes"/>
      <point x="269" y="216"/>
      <point x="363" y="73"/>
      <point x="543.5928104574966" y="73.30098039213999" type="curve" smooth="yes"/>
      <point x="724" y="73"/>
      <point x="819" y="216"/>
      <point x="819.285947712445" y="422.27647058821003" type="curve" smooth="yes"/>
      <point x="819.285947712445" y="1030.1401960784567" type="line" smooth="yes"/>
      <point x="819" y="1237"/>
      <point x="725" y="1383"/>
      <point x="543.5928104574966" y="1382.69901960786" type="curve" smooth="yes"/>
      <point x="362" y="1383"/>
      <point x="269" y="1237"/>
      <point x="268.8833333333333" y="1030.1401960784567" type="curve" smooth="yes"/>
    </contour>
  </outline>
</glyph>
<glyph name="two" format="2">
  <advance width="1087"/>
  <unicode hex="0032"/>
  <outline>
    <contour>
      <point x="152.80686274512334" y="0.0" type="line"/>
      <point x="152.80686274512334" y="94.96764705880668" type="line"/>
      <point x="650.6307189542216" y="727.0683006535667" type="line" smooth="yes"/>
      <point x="754" y="860"/>
      <point x="823" y="972"/>
      <point x="823.3437908497084" y="1120.7330065359533" type="curve" smooth="yes"/>
      <point x="823" y="1269"/>
      <point x="732" y="1384"/>
      <point x="564.70130718952" y="1382.69901960786" type="curve" smooth="yes"/>
      <point x="388" y="1382"/>
      <point x="268" y="1278"/>
      <point x="268.46666666666664" y="1040.4830065359533" type="curve" smooth="yes"/>
      <point x="268.46666666666664" y="1026.1830065359534" type="line"/>
      <point x="154.46503267976667" y="1026.1830065359534" type="line"/>
      <point x="154.46503267976667" y="1039.7663398692866" type="line" smooth="yes"/>
      <point x="154" y="1322"/>
      <point x="323" y="1486"/>
      <point x="564.70130718952" y="1486.0" type="curve" smooth="yes"/>
      <point x="799" y="1486"/>
      <point x="938" y="1328"/>
      <point x="938.0620915032749" y="1124.99967320262" type="curve" smooth="yes"/>
      <point x="938" y="958"/>
      <point x="880" y="853"/>
      <point x="730.8728758169583" y="661.7081699346434" type="curve" smooth="yes"/>
      <point x="276.161764705895" y="89.26601307190666" type="line"/>
      <point x="980.7960784313683" y="89.26601307190666" type="line"/>
      <point x="980.7960784313683" y="0.0" type="line"/>
    </contour>
  </outline>
</glyph>
<glyph name="three" format="2">
  <advance width="1087"/>
  <unicode hex="0033"/>
  <outline>
    <contour>
      <point x="123.7483660131" y="379.55032679738" type="curve" smooth="yes"/>
      <point x="123.7483660131" y="390.98366013071336" type="line"/>
      <point x="235.9" y="390.98366013071336" type="line"/>
      <point x="235.9" y="380.98366013071336" type="line" smooth="yes"/>
      <point x="236" y="185"/>
      <point x="363" y="73"/>
      <point x="537.12647058821" y="72.80915032678334" type="curve" smooth="yes"/>
      <point x="702" y="73"/>
      <point x="835" y="181"/>
      <point x="834.9196078431584" y="387.3669934640467" type="curve" smooth="yes"/>
      <point x="835" y="607"/>
      <point x="681" y="707"/>
      <point x="500.9973202614267" y="707.02450980393" type="curve" smooth="yes"/>
      <point x="387.76871895422164" y="707.02450980393" type="line"/>
      <point x="387.76871895422164" y="810.4836601307134" type="line"/>
      <point x="491.2281568627367" y="810.4836601307134" type="line" smooth="yes"/>
      <point x="665" y="810"/>
      <point x="787" y="919"/>
      <point x="786.9352941176134" y="1095.5915032679768" type="curve" smooth="yes"/>
      <point x="787" y="1282"/>
      <point x="682" y="1384"/>
      <point x="537.1551372548766" y="1383.50618300655" type="curve" smooth="yes"/>
      <point x="405" y="1383"/>
      <point x="272" y="1272"/>
      <point x="272.3091503267833" y="1099.0163398692866" type="curve" smooth="yes"/>
      <point x="272.3091503267833" y="1081.84967320262" type="line"/>
      <point x="161.09901960786" y="1081.84967320262" type="line"/>
      <point x="161.09901960786" y="1099.0163398692866" type="line" smooth="yes"/>
      <point x="161" y="1321"/>
      <point x="339" y="1486"/>
      <point x="537.1551372548766" y="1486.0" type="curve" smooth="yes"/>
      <point x="749" y="1486"/>
      <point x="902" y="1327"/>
      <point x="902.2202614379183" y="1099.5081699346433" type="curve" smooth="yes"/>
      <point x="902" y="959"/>
      <point x="830" y="833"/>
      <point x="676.2653594771467" y="763.85" type="curve"/>
      <point x="676.2653594771467" y="759.85" type="line"/>
      <point x="834" y="722"/>
      <point x="952" y="598"/>
      <point x="952.2045751633917" y="383.57516339869" type="curve" smooth="yes"/>
      <point x="952" y="139"/>
      <point x="771" y="-30"/>
      <point x="537.12647058821" y="-30.716666666666665" type="curve" smooth="yes"/>
      <point x="326" y="-32"/>
      <point x="124" y="128"/>
    </contour>
  </outline>
</glyph>
<glyph name="five" format="2">
  <advance width="1087"/>
  <unicode hex="0035"/>
  <outline>
    <contour>
      <point x="129.41503267976665" y="363.8336601307133" type="curve" smooth="yes"/>
      <point x="129.41503267976665" y="375.98366013071336" type="line"/>
      <point x="240.28333333333333" y="375.98366013071336" type="line"/>
      <point x="240.28333333333333" y="365.98366013071336" type="line" smooth="yes"/>
      <point x="240" y="184"/>
      <point x="361" y="73"/>
      <point x="542.5346405228534" y="72.80915032678334" type="curve" smooth="yes"/>
      <point x="724" y="73"/>
      <point x="839" y="216"/>
      <point x="838.586274509825" y="465.0" type="curve" smooth="yes"/>
      <point x="839" y="699"/>
      <point x="723" y="823"/>
      <point x="543.1094771241633" y="823.12418300655" type="curve" smooth="yes"/>
      <point x="440" y="824"/>
      <point x="318" y="754"/>
      <point x="259.086274509825" y="677.3483660131" type="curve"/>
      <point x="175.24934640524" y="716.8330065359534" type="line"/>
      <point x="248.54934640524" y="1456.0" type="line"/>
      <point x="889.8529411764918" y="1456.0" type="line"/>
      <point x="889.8529411764918" y="1348.2156862745267" type="line"/>
      <point x="344.52581699345" y="1348.2156862745267" type="line"/>
      <point x="285.82581699345" y="801.3807189542216" type="line"/>
      <point x="339" y="868"/>
      <point x="455" y="926"/>
      <point x="560.6107843137551" y="926.2166666666667" type="curve" smooth="yes"/>
      <point x="788" y="926"/>
      <point x="953" y="757"/>
      <point x="953.3045751633917" y="465.0" type="curve" smooth="yes"/>
      <point x="953" y="157"/>
      <point x="788" y="-30"/>
      <point x="542.5346405228534" y="-30.0" type="curve" smooth="yes"/>
      <point x="325" y="-30"/>
      <point x="129" y="122"/>
    </contour>
  </outline>
</glyph>
<glyph name="six" format="2">
  <advance width="1087"/>
  <unicode hex="0036"/>
  <outline>
    <contour>
      <point x="123.513725490175" y="614.0" type="curve" smooth="yes"/>
      <point x="123.513725490175" y="644.0" type="line" smooth="yes"/>
      <point x="124" y="1157"/>
      <point x="390" y="1486"/>
      <point x="787.0830065359534" y="1486.0" type="curve" smooth="yes"/>
      <point x="805.5833333333334" y="1486.0" type="line"/>
      <point x="805.5833333333334" y="1382.69901960786" type="line"/>
      <point x="787.0830065359534" y="1382.69901960786" type="line" smooth="yes"/>
      <point x="471" y="1383"/>
      <point x="236" y="1132"/>
      <point x="236.23202614381333" y="654.0" type="curve" smooth="yes"/>
      <point x="236.23202614381333" y="604.0" type="line" smooth="yes"/>
      <point x="236" y="215"/>
      <point x="381" y="73"/>
      <point x="574.32581699345" y="72.80915032678334" type="curve" smooth="yes"/>
      <point x="767" y="73"/>
      <point x="869" y="215"/>
      <point x="869.4441176470883" y="464.0" type="curve" smooth="yes"/>
      <point x="869" y="700"/>
      <point x="766" y="832"/>
      <point x="577.9091503267833" y="832.19934640524" type="curve" smooth="yes"/>
      <point x="391" y="832"/>
      <point x="230" y="681"/>
      <point x="230.23202614381333" y="464.0" type="curve"/>
      <point x="182.96470588238665" y="464.0" type="line"/>
      <point x="183" y="743"/>
      <point x="358" y="935"/>
      <point x="594.7601307189234" y="935.0084967320233" type="curve" smooth="yes"/>
      <point x="838" y="935"/>
      <point x="984" y="747"/>
      <point x="984.162418300655" y="464.0" type="curve" smooth="yes"/>
      <point x="984" y="169"/>
      <point x="822" y="-30"/>
      <point x="574.8176470588066" y="-30.0" type="curve" smooth="yes"/>
      <point x="315" y="-30"/>
      <point x="124" y="180"/>
    </contour>
  </outline>
</glyph>
<glyph name="nine" format="2">
  <advance width="1087"/>
  <unicode hex="0039"/>
  <outline>
    <contour>
      <point x="103.51503267976666" y="994.8333333333334" type="curve" smooth="yes"/>
      <point x="104" y="1288"/>
      <point x="273" y="1486"/>
      <point x="519.3098039215433" y="1486.0" type="curve" smooth="yes"/>
      <point x="780" y="1486"/>
      <point x="964" y="1276"/>
      <point x="964.163725490175" y="842.0" type="curve" smooth="yes"/>
      <point x="964.163725490175" y="812.0" type="line" smooth="yes"/>
      <point x="964" y="299"/>
      <point x="690" y="-30"/>
      <point x="300.5944444444683" y="-30.0" type="curve" smooth="yes"/>
      <point x="281.6022875817317" y="-30.0" type="line"/>
      <point x="281.6022875817317" y="73.30098039213999" type="line"/>
      <point x="300.5944444444683" y="73.30098039213999" type="line" smooth="yes"/>
      <point x="617" y="73"/>
      <point x="851" y="324"/>
      <point x="850.9535947712517" y="802.0" type="curve" smooth="yes"/>
      <point x="850.9535947712517" y="852.0" type="line" smooth="yes"/>
      <point x="851" y="1241"/>
      <point x="713" y="1383"/>
      <point x="519.3098039215433" y="1383.1908496732167" type="curve" smooth="yes"/>
      <point x="326" y="1383"/>
      <point x="219" y="1242"/>
      <point x="219.3" y="994.8333333333334" type="curve" smooth="yes"/>
      <point x="219" y="761"/>
      <point x="321" y="629"/>
      <point x="509.27647058821003" y="629.4673202614267" type="curve" smooth="yes"/>
      <point x="697" y="629"/>
      <point x="857" y="778"/>
      <point x="856.9535947712517" y="994.8333333333334" type="curve"/>
      <point x="905.7794117647016" y="994.8333333333334" type="line"/>
      <point x="906" y="718"/>
      <point x="729" y="527"/>
      <point x="492.42549019607" y="526.6581699346433" type="curve" smooth="yes"/>
      <point x="251" y="527"/>
      <point x="104" y="715"/>
    </contour>
  </outline>
</glyph>
<glyph name="colon" format="2">
  <advance width="520"/>
  <unicode hex="003A"/>
  <outline>
    <contour>
      <point x="176.0" y="74.84215686273667" type="curve" smooth="yes"/>
      <point x="176" y="134"/>
      <point x="209" y="172"/>
      <point x="260.20915032678334" y="171.68431372547334" type="curve" smooth="yes"/>
      <point x="312" y="172"/>
      <point x="344" y="134"/>
      <point x="343.7016339869" y="74.84215686273667" type="curve" smooth="yes"/>
      <point x="344" y="16"/>
      <point x="312" y="-22"/>
      <point x="260.20915032678334" y="-22.0" type="curve" smooth="yes"/>
      <point x="209" y="-22"/>
      <point x="176" y="16"/>
    </contour>
    <contour>
      <point x="176.0" y="971.1578431372633" type="curve" smooth="yes"/>
      <point x="176" y="1031"/>
      <point x="209" y="1068"/>
      <point x="260.20915032678334" y="1068.0" type="curve" smooth="yes"/>
      <point x="312" y="1068"/>
      <point x="344" y="1031"/>
      <point x="343.7016339869" y="971.1578431372633" type="curve" smooth="yes"/>
      <point x="344" y="912"/>
      <point x="312" y="874"/>
      <point x="260.20915032678334" y="874.3156862745267" type="curve" smooth="yes"/>
      <point x="209" y="874"/>
      <point x="176" y="912"/>
    </contour>
  </outline>
</glyph>
<glyph name="semicolon" format="2">
  <advance width="520"/>
  <unicode hex="003B"/>
  <outline>
    <contour>
      <point x="147.59533333333331" y="-172.80632679738" type="line"/>
      <point x="192" y="-106"/>
      <point x="216" y="-40"/>
      <point x="215.68032679738" y="55.204993464046666" type="curve" smooth="yes"/>
      <point x="215.68032679738" y="175.30715032678333" type="line"/>
      <point x="333.88864052285334" y="175.30715032678333" type="line"/>
      <point x="333.88864052285334" y="56.271660130713336" type="line" smooth="yes"/>
      <point x="334" y="-62"/>
      <point x="293" y="-151"/>
      <point x="221.61948366011666" y="-222.72665359476" type="curve"/>
    </contour>
    <contour>
      <point x="176.0" y="971.1578431372633" type="curve" smooth="yes"/>
      <point x="176" y="1031"/>
      <point x="209" y="1068"/>
      <point x="260.20915032678334" y="1068.0" type="curve" smooth="yes"/>
      <point x="312" y="1068"/>
      <point x="344" y="1031"/>
      <point x="343.7016339869" y="971.1578431372633" type="curve" smooth="yes"/>
      <point x="344" y="912"/>
      <point x="312" y="874"/>
      <point x="260.20915032678334" y="874.3156862745267" type="curve" smooth="yes"/>
      <point x="209" y="874"/>
      <point x="176" y="912"/>
    </contour>
  </outline>
</glyph>
<glyph name="question" format="2">
  <advance width="823"/>
  <unicode hex="003F"/>
  <outline>
    <contour>
      <point x="280.5773202614267" y="74.89949019607" type="curve" smooth="yes"/>
      <point x="281" y="128"/>
      <point x="311" y="172"/>
      <point x="364.01096732023336" y="171.79898039214" type="curve" smooth="yes"/>
      <point x="418" y="172"/>
      <point x="448" y="128"/>
      <point x="448.01945098042165" y="74.89949019607" type="curve" smooth="yes"/>
      <point x="448" y="22"/>
      <point x="419" y="-22"/>
      <point x="365.0776339869" y="-22.0" type="curve" smooth="yes"/>
      <point x="310" y="-22"/>
      <point x="281" y="22"/>
    </contour>
    <contour>
      <point x="76.58415686273668" y="1093.5245098039302" type="line"/>
      <point x="76.58415686273668" y="1113.5245098039302" type="line" smooth="yes"/>
      <point x="77" y="1339"/>
      <point x="197" y="1476"/>
      <point x="396.89695424839834" y="1476.0" type="curve" smooth="yes"/>
      <point x="595" y="1476"/>
      <point x="711" y="1336"/>
      <point x="711.178091503275" y="1125.5163398692866" type="curve" smooth="yes"/>
      <point x="711" y="941"/>
      <point x="638" y="834"/>
      <point x="538.0161699346434" y="722.96232679738" type="curve" smooth="yes"/>
      <point x="434" y="606"/>
      <point x="416" y="520"/>
      <point x="416.47228104577835" y="420.98366013071336" type="curve" smooth="yes"/>
      <point x="416.47228104577835" y="410.98366013071336" type="line"/>
      <point x="303.0691503267833" y="410.98366013071336" type="line"/>
      <point x="303.0691503267833" y="420.98366013071336" type="line" smooth="yes"/>
      <point x="303" y="577"/>
      <point x="342" y="659"/>
      <point x="450.834562091485" y="785.0201699346433" type="curve" smooth="yes"/>
      <point x="550" y="899"/>
      <point x="598" y="978"/>
      <point x="598.2667908497083" y="1125.5163398692866" type="curve" smooth="yes"/>
      <point x="598" y="1276"/>
      <point x="533" y="1372"/>
      <point x="396.89695424839834" y="1371.94734640524" type="curve" smooth="yes"/>
      <point x="261" y="1372"/>
      <point x="190" y="1281"/>
      <point x="189.51762091506498" y="1113.5245098039302" type="curve" smooth="yes"/>
      <point x="189.51762091506498" y="1093.5245098039302" type="line"/>
    </contour>
  </outline>
</glyph>
<glyph name="B" format="2">
  <advance width="1072"/>
  <unicode hex="0042"/>
  <outline>
    <contour>
      <point x="170.0" y="0.0" type="line"/>
      <point x="170.0" y="1456.0" type="line"/>
      <point x="543.923437908515" y="1456.0" type="line" smooth="yes"/>
      <point x="787" y="1456"/>
      <point x="929" y="1347"/>
      <point x="929.4368823529117" y="1082.7626666666665" type="curve" smooth="yes"/>
      <point x="929" y="914"/>
      <point x="851" y="802"/>
      <point x="742.2153006535667" y="767.0253333333334" type="curve"/>
      <point x="742.2153006535667" y="763.0253333333334" type="line"/>
      <point x="881" y="727"/>
      <point x="972" y="603"/>
      <point x="971.53452941179" y="404.2213333333333" type="curve" smooth="yes"/>
      <point x="972" y="142"/>
      <point x="819" y="0"/>
      <point x="576.808091503275" y="0.0" type="curve" smooth="yes"/>
    </contour>
    <contour>
      <point x="283.3203006535666" y="102.00198692809333" type="line"/>
      <point x="576.808091503275" y="102.00198692809333" type="line" smooth="yes"/>
      <point x="771" y="102"/>
      <point x="857" y="213"/>
      <point x="856.744562091485" y="405.77983006535663" type="curve" smooth="yes"/>
      <point x="857" y="591"/>
      <point x="771" y="707"/>
      <point x="576.808091503275" y="706.9783398692866" type="curve" smooth="yes"/>
      <point x="283.3203006535666" y="706.9783398692866" type="line"/>
    </contour>
    <contour>
      <point x="283.3203006535666" y="809.0216601307134" type="line"/>
      <point x="543.923437908515" y="809.0216601307134" type="line" smooth="yes"/>
      <point x="736" y="809"/>
      <point x="815" y="909"/>
      <point x="814.6469150326784" y="1082.27083660131" type="curve" smooth="yes"/>
      <point x="815" y="1264"/>
      <point x="736" y="1354"/>
      <point x="543.923437908515" y="1353.9980130719066" type="curve" smooth="yes"/>
      <point x="283.3203006535666" y="1353.9980130719066" type="line"/>
    </contour>
  </outline>
</glyph>
<glyph name="C" format="2">
  <advance width="1072"/>
  <unicode hex="0043"/>
  <outline>
    <contour>
      <point x="115.0" y="692.8174509804217" type="curve" smooth="yes"/>
      <point x="115.0" y="763.1825490195783" type="line" smooth="yes"/>
      <point x="115" y="1270"/>
      <point x="311" y="1486"/>
      <point x="616.2957189542217" y="1486.0" type="curve" smooth="yes"/>
      <point x="899" y="1486"/>
      <point x="1024" y="1304"/>
      <point x="1063.477178337971" y="999.0163398692866" type="curve" smooth="yes"/>
      <point x="1064.89996078428" y="989.0163398692866" type="line"/>
      <point x="949.1706601307133" y="989.0163398692866" type="line"/>
      <point x="947.7478776844043" y="999.0163398692866" type="line" smooth="yes"/>
      <point x="921" y="1171"/>
      <point x="856" y="1380"/>
      <point x="616.2957189542217" y="1380.4301830065501" type="curve" smooth="yes"/>
      <point x="359" y="1380"/>
      <point x="231" y="1160"/>
      <point x="230.6019673202333" y="806.9158823529117" type="curve" smooth="yes"/>
      <point x="230.6019673202333" y="650.150784313755" type="line" smooth="yes"/>
      <point x="231" y="263"/>
      <point x="381" y="76"/>
      <point x="615.229052287555" y="75.56981699344999" type="curve" smooth="yes"/>
      <point x="854" y="76"/>
      <point x="942" y="289"/>
      <point x="949.23732679738" y="456.98366013071336" type="curve"/>
      <point x="949.1706601307133" y="466.98366013071336" type="line"/>
      <point x="1064.89996078428" y="466.98366013071336" type="line"/>
      <point x="1064.9666274509468" y="456.98366013071336" type="line" smooth="yes"/>
      <point x="1065" y="150"/>
      <point x="899" y="-30"/>
      <point x="616.2957189542217" y="-30.0" type="curve" smooth="yes"/>
      <point x="308" y="-30"/>
      <point x="115" y="186"/>
    </contour>
  </outline>
</glyph>
<glyph name="G" format="2">
  <advance width="1076"/>
  <unicode hex="0047"/>
  <outline>
    <contour>
      <point x="115.0" y="692.8174509804217" type="curve" smooth="yes"/>
      <point x="115.0" y="763.1825490195783" type="line" smooth="yes"/>
      <point x="115" y="1264"/>
      <point x="320" y="1486"/>
      <point x="595.451928104585" y="1486.0" type="curve" smooth="yes"/>
      <point x="896" y="1486"/>
      <point x="1024" y="1319"/>
      <point x="1057.4146274509467" y="1037.526890756311" type="curve" smooth="yes"/>
      <point x="1058.9064575163752" y="1029.0163398692866" type="line"/>
      <point x="943.1771568627366" y="1029.0163398692866" type="line"/>
      <point x="941.4768300653566" y="1039.0163398692866" type="line" smooth="yes"/>
      <point x="921" y="1243"/>
      <point x="834" y="1380"/>
      <point x="598.002254901965" y="1380.4301830065501" type="curve" smooth="yes"/>
      <point x="367" y="1380"/>
      <point x="231" y="1214"/>
      <point x="230.6019673202333" y="805.849215686245" type="curve" smooth="yes"/>
      <point x="230.6019673202333" y="650.150784313755" type="line" smooth="yes"/>
      <point x="231" y="251"/>
      <point x="376" y="76"/>
      <point x="622.5137058823867" y="75.56981699344999" type="curve" smooth="yes"/>
      <point x="768" y="76"/>
      <point x="870" y="108"/>
      <point x="948.6468235294033" y="173.81248366011667" type="curve"/>
      <point x="948.6468235294033" y="595.5163398692866" type="line"/>
      <point x="622.8648823529116" y="595.5163398692866" type="line"/>
      <point x="622.8648823529116" y="699.0768235294033" type="line"/>
      <point x="1058.9064575163752" y="699.0768235294033" type="line"/>
      <point x="1058.9064575163752" y="128.83699346404666" type="line"/>
      <point x="974" y="46"/>
      <point x="853" y="-30"/>
      <point x="617.1803725490533" y="-30.0" type="curve" smooth="yes"/>
      <point x="318" y="-30"/>
      <point x="115" y="157"/>
    </contour>
  </outline>
</glyph>
<glyph name="O" format="2">
  <advance width="1235"/>
  <unicode hex="004F"/>
  <outline>
    <contour>
      <point x="115.0" y="692.8174509804217" type="curve" smooth="yes"/>
      <point x="115.0" y="763.1825490195783" type="line" smooth="yes"/>
      <point x="115" y="1259"/>
      <point x="315" y="1486"/>
      <point x="617.5315490195784" y="1486.0" type="curve" smooth="yes"/>
      <point x="919" y="1486"/>
      <point x="1119" y="1259"/>
      <point x="1118.9964313725616" y="763.1825490195783" type="curve" smooth="yes"/>
      <point x="1118.9964313725616" y="692.8174509804217" type="line" smooth="yes"/>
      <point x="1119" y="197"/>
      <point x="919" y="-30"/>
      <point x="617.5315490195784" y="-30.0" type="curve" smooth="yes"/>
      <point x="316" y="-30"/>
      <point x="115" y="197"/>
    </contour>
    <contour>
      <point x="230.6019673202333" y="660.8174509804217" type="line" smooth="yes"/>
      <point x="231" y="260"/>
      <point x="378" y="76"/>
      <point x="617.5315490195784" y="75.56981699344999" type="curve" smooth="yes"/>
      <point x="857" y="76"/>
      <point x="1002" y="260"/>
      <point x="1002.32779738559" y="660.8174509804217" type="curve" smooth="yes"/>
      <point x="1002.32779738559" y="796.249215686245" type="line" smooth="yes"/>
      <point x="1002" y="1197"/>
      <point x="857" y="1380"/>
      <point x="617.5315490195784" y="1380.4301830065501" type="curve" smooth="yes"/>
      <point x="378" y="1380"/>
      <point x="231" y="1197"/>
      <point x="230.6019673202333" y="796.249215686245" type="curve" smooth="yes"/>
    </contour>
  </outline>
</glyph>
<glyph name="P" format="2">
  <advance width="1028"/>
  <unicode hex="0050"/>
  <outline>
    <contour>
      <point x="170.0" y="0.0" type="line"/>
      <point x="170.0" y="1456.0" type="line"/>
      <point x="543.9167712418483" y="1456.0" type="line" smooth="yes"/>
      <point x="816" y="1456"/>
      <point x="951" y="1317"/>
      <point x="950.6248692810766" y="1025.7998431372632" type="curve" smooth="yes"/>
      <point x="951" y="736"/>
      <point x="816" y="595"/>
      <point x="543.9167712418483" y="594.5326797385733" type="curve" smooth="yes"/>
      <point x="285.19896732023335" y="594.5326797385733" type="line"/>
      <point x="285.19896732023335" y="0.0" type="line"/>
    </contour>
    <contour>
      <point x="285.19896732023335" y="697.6013333333333" type="line"/>
      <point x="543.9167712418483" y="697.6013333333333" type="line" smooth="yes"/>
      <point x="760" y="698"/>
      <point x="835" y="826"/>
      <point x="834.8955686274384" y="1025.7998431372632" type="curve" smooth="yes"/>
      <point x="835" y="1227"/>
      <point x="760" y="1354"/>
      <point x="543.9167712418483" y="1353.50618300655" type="curve" smooth="yes"/>
      <point x="285.19896732023335" y="1353.50618300655" type="line"/>
    </contour>
  </outline>
</glyph>
<glyph name="S" format="2">
  <advance width="1018"/>
  <unicode hex="0053"/>
  <outline>
    <contour>
      <point x="90.0" y="383.44366013071334" type="curve" smooth="yes"/>
      <point x="90.0" y="406.11032679737997" type="line"/>
      <point x="205.19896732023335" y="406.11032679737997" type="line"/>
      <point x="205.19896732023335" y="383.44366013071334" type="line" smooth="yes"/>
      <point x="205" y="184"/>
      <point x="319" y="76"/>
      <point x="518.3770849673217" y="75.56981699344999" type="curve" smooth="yes"/>
      <point x="718" y="76"/>
      <point x="825" y="196"/>
      <point x="824.8527058823867" y="359.01183006535666" type="curve" smooth="yes"/>
      <point x="825" y="512"/>
      <point x="774" y="575"/>
      <point x="500.73545098042166" y="688.4913464052399" type="curve" smooth="yes"/>
      <point x="246" y="796"/>
      <point x="115" y="898"/>
      <point x="115.42398692809333" y="1110.4963398692867" type="curve" smooth="yes"/>
      <point x="115" y="1354"/>
      <point x="262" y="1486"/>
      <point x="509.6745882352983" y="1486.0" type="curve" smooth="yes"/>
      <point x="758" y="1486"/>
      <point x="914" y="1319"/>
      <point x="913.6816862745267" y="1078.5563398692866" type="curve" smooth="yes"/>
      <point x="913.6816862745267" y="1055.8896732026199" type="line"/>
      <point x="798.9745490195783" y="1055.8896732026199" type="line"/>
      <point x="798.9745490195783" y="1078.5563398692866" type="line" smooth="yes"/>
      <point x="799" y="1254"/>
      <point x="702" y="1380"/>
      <point x="509.6745882352983" y="1380.4301830065501" type="curve" smooth="yes"/>
      <point x="311" y="1380"/>
      <point x="230" y="1272"/>
      <point x="229.68362091506498" y="1131.849094304408" type="curve" smooth="yes"/>
      <point x="230" y="1009"/>
      <point x="291" y="914"/>
      <point x="561.014379084935" y="795.56865359476" type="curve" smooth="yes"/>
      <point x="809" y="685"/>
      <point x="939" y="583"/>
      <point x="938.62050980393" y="359.99549019606997" type="curve" smooth="yes"/>
      <point x="939" y="103"/>
      <point x="778" y="-30"/>
      <point x="518.3770849673217" y="-30.0" type="curve" smooth="yes"/>
      <point x="258" y="-30"/>
      <point x="90" y="98"/>
    </contour>
  </outline>
</glyph>
<glyph name="Z" format="2">
  <advance width="929"/>
  <unicode hex="005A"/>
  <outline>
    <contour>
      <point x="-7.194024276367372" y="0.0" type="line"/>
      <point x="-7.194024276367372" y="84.00198692809333" type="line"/>
      <point x="765.4896097105326" y="1353.50618300655" type="line"/>
      <point x="6.133635854345954" y="1353.50618300655" type="line"/>
      <point x="6.133635854345954" y="1456.0" type="line"/>
      <point x="902.9803482726143" y="1456.0" type="line"/>
      <point x="902.9803482726143" y="1371.9980130719066" type="line"/>
      <point x="130.29671428571427" y="102.49381699345" type="line"/>
      <point x="937.8650018674459" y="102.49381699345" type="line"/>
      <point x="937.8650018674459" y="0.0" type="line"/>
    </contour>
  </outline>
</glyph>
<glyph name="a" format="2">
  <advance width="952"/>
  <unicode hex="0061"/>
  <outline>
    <contour>
      <point x="90.0" y="299.96190476190475" type="curve" smooth="yes"/>
      <point x="90" y="522"/>
      <point x="229" y="635"/>
      <point x="462.26470588238664" y="635.3408029878561" type="curve" smooth="yes"/>
      <point x="695.8271241830417" y="635.3408029878561" type="line"/>
      <point x="695.8271241830417" y="744.8571428571429" type="line" smooth="yes"/>
      <point x="696" y="903"/>
      <point x="640" y="1009"/>
      <point x="481.74869281048" y="1009.1731559290495" type="curve" smooth="yes"/>
      <point x="325" y="1009"/>
      <point x="262" y="912"/>
      <point x="262.40326797387166" y="785.7938842203577" type="curve" smooth="yes"/>
      <point x="262.40326797387166" y="780.7938842203577" type="line"/>
      <point x="153.17679738559" y="780.7938842203577" type="line"/>
      <point x="153.17679738559" y="785.7938842203577" type="line" smooth="yes"/>
      <point x="153" y="982"/>
      <point x="276" y="1107"/>
      <point x="486.89052287583667" y="1106.857142857143" type="curve" smooth="yes"/>
      <point x="692" y="1107"/>
      <point x="808" y="1000"/>
      <point x="807.9787581699418" y="744.8571428571429" type="curve" smooth="yes"/>
      <point x="807.9787581699418" y="240.0" type="line" smooth="yes"/>
      <point x="808" y="153"/>
      <point x="822" y="75"/>
      <point x="846.0964052287483" y="16.0" type="curve"/>
      <point x="846.0964052287483" y="0.0" type="line"/>
      <point x="739.861764705895" y="0.0" type="line"/>
      <point x="721" y="34"/>
      <point x="705" y="94"/>
      <point x="698.885620915065" y="149.75238095238095" type="curve"/>
      <point x="654" y="67"/>
      <point x="546" y="-20"/>
      <point x="388.47810457518165" y="-20.0" type="curve" smooth="yes"/>
      <point x="212" y="-20"/>
      <point x="90" y="68"/>
    </contour>
    <contour>
      <point x="201.65980392154336" y="294.2785714285714" type="curve" smooth="yes"/>
      <point x="202" y="136"/>
      <point x="272" y="78"/>
      <point x="410.52973856208166" y="77.68398692809333" type="curve" smooth="yes"/>
      <point x="554" y="78"/>
      <point x="696" y="176"/>
      <point x="695.8271241830417" y="331.1612044817843" type="curve" smooth="yes"/>
      <point x="695.8271241830417" y="545.7734827264295" type="line"/>
      <point x="481.74869281048" y="545.7734827264295" type="line" smooth="yes"/>
      <point x="300" y="546"/>
      <point x="202" y="473"/>
    </contour>
  </outline>
</glyph>
<glyph name="b" format="2">
  <advance width="1012"/>
  <unicode hex="0062"/>
  <outline>
    <contour>
      <point x="148.0" y="0.0" type="line"/>
      <point x="148.0" y="1536.0" type="line"/>
      <point x="259.8891372548767" y="1536.0" type="line"/>
      <point x="259.8891372548767" y="958.0396918767212" type="line"/>
      <point x="324" y="1041"/>
      <point x="422" y="1097"/>
      <point x="561.0195032679767" y="1096.857142857143" type="curve" smooth="yes"/>
      <point x="790" y="1097"/>
      <point x="926" y="870"/>
      <point x="926.2855555555317" y="554.4285714285714" type="curve" smooth="yes"/>
      <point x="926.2855555555317" y="522.4285714285714" type="line" smooth="yes"/>
      <point x="926" y="207"/>
      <point x="790" y="-20"/>
      <point x="561.0195032679767" y="-20.0" type="curve" smooth="yes"/>
      <point x="422" y="-20"/>
      <point x="311" y="47"/>
      <point x="255.28264052285334" y="131.81745098042168" type="curve"/>
      <point x="255.58613071892333" y="131.81745098042168" type="line"/>
      <point x="252.0596339869" y="0.0" type="line"/>
    </contour>
    <contour>
      <point x="259.8891372548767" y="250.94326797387168" type="line"/>
      <point x="302" y="159"/>
      <point x="396" y="81"/>
      <point x="527.2058692810767" y="80.97631372547335" type="curve" smooth="yes"/>
      <point x="725" y="81"/>
      <point x="812" y="233"/>
      <point x="812.0259215686317" y="490.42857142857144" type="curve" smooth="yes"/>
      <point x="812.0259215686317" y="586.4285714285714" type="line" smooth="yes"/>
      <point x="812" y="844"/>
      <point x="724" y="996"/>
      <point x="531.4725359477434" y="995.8808291316695" type="curve"/>
      <point x="404" y="996"/>
      <point x="297" y="906"/>
      <point x="259.8891372548767" y="825.9138748832712" type="curve"/>
    </contour>
  </outline>
</glyph>
<glyph name="d" format="2">
  <advance width="1012"/>
  <unicode hex="0064"/>
  <outline>
    <contour>
      <point x="85.0" y="522.4285714285714" type="curve" smooth="yes"/>
      <point x="85.0" y="554.4285714285714" type="line" smooth="yes"/>
      <point x="85" y="870"/>
      <point x="221" y="1097"/>
      <point x="450.266052287555" y="1096.857142857143" type="curve" smooth="yes"/>
      <point x="590" y="1097"/>
      <point x="688" y="1041"/>
      <point x="751.396418300655" y="958.0396918767212" type="curve"/>
      <point x="751.396418300655" y="1536.0" type="line"/>
      <point x="863.7773856208883" y="1536.0" type="line"/>
      <point x="863.7773856208883" y="0.0" type="line"/>
      <point x="759.7177516339883" y="0.0" type="line"/>
      <point x="755.6994248366084" y="131.81745098042168" type="line"/>
      <point x="755.5110849673217" y="131.81745098042168" type="line"/>
      <point x="701" y="47"/>
      <point x="590" y="-20"/>
      <point x="450.266052287555" y="-20.0" type="curve" smooth="yes"/>
      <point x="221" y="-20"/>
      <point x="85" y="207"/>
    </contour>
    <contour>
      <point x="198.76780392154333" y="490.42857142857144" type="line" smooth="yes"/>
      <point x="199" y="233"/>
      <point x="287" y="81"/>
      <point x="483.58785620917" y="80.97631372547335" type="curve" smooth="yes"/>
      <point x="616" y="81"/>
      <point x="710" y="161"/>
      <point x="751.396418300655" y="250.94326797387168" type="curve"/>
      <point x="751.396418300655" y="825.9138748832712" type="line"/>
      <point x="710" y="916"/>
      <point x="616" y="996"/>
      <point x="483.58785620917" y="995.8808291316695" type="curve" smooth="yes"/>
      <point x="287" y="996"/>
      <point x="199" y="844"/>
      <point x="198.76780392154333" y="586.4285714285714" type="curve" smooth="yes"/>
    </contour>
  </outline>
</glyph>
<glyph name="f" format="2">
  <advance width="520"/>
  <unicode hex="0066"/>
  <outline>
    <contour>
      <point x="194.23450980393" y="0.0" type="line"/>
      <point x="194.23450980393" y="1183.6094117647017" type="line" smooth="yes"/>
      <point x="194" y="1427"/>
      <point x="304" y="1556"/>
      <point x="484.49166013071334" y="1556.0" type="curve" smooth="yes"/>
      <point x="521" y="1556"/>
      <point x="564" y="1549"/>
      <point x="597.713254901965" y="1540.0" type="curve"/>
      <point x="587.8294248366084" y="1443.46934640524" type="line"/>
      <point x="563" y="1451"/>
      <point x="526" y="1457"/>
      <point x="490.82981699345" y="1456.9726797385733" type="curve" smooth="yes"/>
      <point x="373" y="1457"/>
      <point x="306" y="1366"/>
      <point x="305.63181699345" y="1183.6094117647017" type="curve" smooth="yes"/>
      <point x="305.63181699345" y="1037.5001493930963" type="line"/>
      <point x="305.63181699345" y="1021.3481493930962" type="line"/>
      <point x="305.63181699345" y="0.0" type="line"/>
    </contour>
    <contour>
      <point x="25.0" y="981.0074957983362" type="line"/>
      <point x="25.0" y="1076.857142857143" type="line"/>
      <point x="236.41884967321667" y="1076.857142857143" type="line"/>
      <point x="262.00515032678334" y="1076.857142857143" type="line"/>
      <point x="530.6592941176134" y="1076.857142857143" type="line"/>
      <point x="530.6592941176134" y="981.0074957983362" type="line"/>
    </contour>
  </outline>
</glyph>
<glyph name="g" format="2">
  <advance width="1012"/>
  <unicode hex="0067"/>
  <outline>
    <contour>
      <point x="123.06896732023334" y="-310.5" type="curve"/>
      <point x="180.26032679738" y="-219.09601307190667" type="line"/>
      <point x="238" y="-282"/>
      <point x="345" y="-332"/>
      <point x="465.11619607845665" y="-331.94734640524" type="curve" smooth="yes"/>
      <point x="642" y="-332"/>
      <point x="751" y="-203"/>
      <point x="751.396418300655" y="21.967320261426664" type="curve" smooth="yes"/>
      <point x="751.396418300655" y="118.81745098042167" type="line"/>
      <point x="688" y="36"/>
      <point x="595" y="-20"/>
      <point x="436.3993856208883" y="-20.0" type="curve" smooth="yes"/>
      <point x="212" y="-20"/>
      <point x="85" y="193"/>
      <point x="85.0" y="522.4285714285714" type="curve" smooth="yes"/>
      <point x="85.0" y="554.4285714285714" type="line" smooth="yes"/>
      <point x="85" y="870"/>
      <point x="221" y="1097"/>
      <point x="450.266052287555" y="1096.857142857143" type="curve" smooth="yes"/>
      <point x="590" y="1097"/>
      <point x="701" y="1029"/>
      <point x="755.5110849673217" y="945.0396918767212" type="curve"/>
      <point x="755.6994248366084" y="945.0396918767212" type="line"/>
      <point x="759.7177516339883" y="1076.857142857143" type="line"/>
      <point x="863.7773856208883" y="1076.857142857143" type="line"/>
      <point x="863.7773856208883" y="21.967320261426664" type="line" smooth="yes"/>
      <point x="864" y="-274"/>
      <point x="705" y="-436"/>
      <point x="470.2308627451234" y="-436.0" type="curve" smooth="yes"/>
      <point x="326" y="-436"/>
      <point x="207" y="-386"/>
    </contour>
    <contour>
      <point x="198.76780392154333" y="486.16190476190474" type="line" smooth="yes"/>
      <point x="199" y="228"/>
      <point x="285" y="81"/>
      <point x="476.1211895425033" y="80.97631372547335" type="curve" smooth="yes"/>
      <point x="623" y="81"/>
      <point x="720" y="161"/>
      <point x="751.396418300655" y="250.94326797387168" type="curve"/>
      <point x="751.396418300655" y="825.9138748832712" type="line"/>
      <point x="715" y="901"/>
      <point x="623" y="996"/>
      <point x="491.05452287583665" y="995.8808291316695" type="curve" smooth="yes"/>
      <point x="285" y="996"/>
      <point x="199" y="840"/>
      <point x="198.76780392154333" y="582.1619047619048" type="curve" smooth="yes"/>
    </contour>
  </outline>
</glyph>
<glyph name="i" format="2">
  <advance width="426"/>
  <unicode hex="0069"/>
  <outline>
    <contour>
      <point x="157.0" y="0.0" type="line"/>
      <point x="157.0" y="1076.857142857143" type="line"/>
      <point x="268.8891372548767" y="1076.857142857143" type="line"/>
      <point x="268.8891372548767" y="0.0" type="line"/>
    </contour>
    <contour>
      <point x="146.66732026142668" y="1395.4115574229777" type="curve" smooth="yes"/>
      <point x="147" y="1440"/>
      <point x="170" y="1474"/>
      <point x="212.69865359476" y="1473.9098972922643" type="curve" smooth="yes"/>
      <point x="255" y="1474"/>
      <point x="279" y="1440"/>
      <point x="278.72998692809335" y="1395.4115574229777" type="curve" smooth="yes"/>
      <point x="279" y="1350"/>
      <point x="255" y="1317"/>
      <point x="213.19048366011668" y="1316.9132175536909" type="curve" smooth="yes"/>
      <point x="171" y="1317"/>
      <point x="147" y="1350"/>
    </contour>
  </outline>
</glyph>
<glyph name="k" format="2">
  <advance width="890"/>
  <unicode hex="006B"/>
  <outline>
    <contour>
      <point x="148.0" y="0.0" type="line"/>
      <point x="148.0" y="1536.0" type="line"/>
      <point x="259.8891372548767" y="1536.0" type="line"/>
      <point x="259.8891372548767" y="614.8463062558328" type="line"/>
      <point x="702.2427637722079" y="1076.857142857143" type="line"/>
      <point x="859.4746209150651" y="1076.857142857143" type="line"/>
      <point x="259.65980392154336" y="454.6601774042838" type="line"/>
      <point x="259.65980392154336" y="0.0" type="line"/>
    </contour>
    <contour>
      <point x="760.6695704948843" y="0.0" type="line"/>
      <point x="377.28187114845093" y="643.9029206349445" type="line"/>
      <point x="464.6835135387503" y="739.0499066293507" type="line"/>
      <point x="905.8954248366083" y="0.0" type="line"/>
    </contour>
  </outline>
</glyph>
<glyph name="m" format="2">
  <advance width="1526"/>
  <unicode hex="006D"/>
  <outline>
    <contour>
      <point x="148.0" y="0.0" type="line"/>
      <point x="148.0" y="1076.857142857143" type="line"/>
      <point x="252.0596339869" y="1076.857142857143" type="line"/>
      <point x="255.58613071892333" y="936.2222408963712" type="line"/>
      <point x="255.28264052285334" y="936.2222408963712" type="line"/>
      <point x="328" y="1042"/>
      <point x="424" y="1097"/>
      <point x="548.6523333333333" y="1096.857142857143" type="curve" smooth="yes"/>
      <point x="675" y="1097"/>
      <point x="764" y="1034"/>
      <point x="800.3709673202334" y="915.9365415499378" type="curve"/>
      <point x="800.18214379083" y="915.9365415499378" type="line"/>
      <point x="865" y="1027"/>
      <point x="974" y="1097"/>
      <point x="1110.11681699345" y="1096.857142857143" type="curve" smooth="yes"/>
      <point x="1279" y="1097"/>
      <point x="1388" y="970"/>
      <point x="1388.2645751633918" y="814.3398225957162" type="curve" smooth="yes"/>
      <point x="1388.2645751633918" y="0.0" type="line"/>
      <point x="1275.800601307205" y="0.0" type="line"/>
      <point x="1275.800601307205" y="783.2731559290495" type="line" smooth="yes"/>
      <point x="1274" y="933"/>
      <point x="1200" y="995"/>
      <point x="1074.9370065359535" y="995.3886591970262" type="curve" smooth="yes"/>
      <point x="949" y="995"/>
      <point x="863" y="916"/>
      <point x="824.3227712418484" y="836.1630905695879" type="curve"/>
      <point x="824.3227712418484" y="0.0" type="line"/>
      <point x="710.8751372548766" y="0.0" type="line"/>
      <point x="710.8751372548766" y="785.4064892623828" type="line" smooth="yes"/>
      <point x="710" y="932"/>
      <point x="625" y="995"/>
      <point x="514.77003921572" y="995.3886591970262" type="curve" smooth="yes"/>
      <point x="403" y="995"/>
      <point x="305" y="916"/>
      <point x="259.8891372548767" y="836.1630905695879" type="curve"/>
      <point x="259.8891372548767" y="0.0" type="line"/>
    </contour>
  </outline>
</glyph>
<glyph name="n" format="2">
  <advance width="982"/>
  <unicode hex="006E"/>
  <outline>
    <contour>
      <point x="148.0" y="0.0" type="line"/>
      <point x="148.0" y="1076.857142857143" type="line"/>
      <point x="252.0596339869" y="1076.857142857143" type="line"/>
      <point x="255.58613071892333" y="936.2222408963712" type="line"/>
      <point x="255.28264052285334" y="936.2222408963712" type="line"/>
      <point x="328" y="1042"/>
      <point x="430" y="1097"/>
      <point x="558.6523333333333" y="1096.857142857143" type="curve" smooth="yes"/>
      <point x="736" y="1097"/>
      <point x="844" y="997"/>
      <point x="844.3227712418484" y="734.3398225957162" type="curve" smooth="yes"/>
      <point x="844.3227712418484" y="0.0" type="line"/>
      <point x="731.9418039215433" y="0.0" type="line"/>
      <point x="731.9418039215433" y="747.0064892623828" type="line" smooth="yes"/>
      <point x="732" y="920"/>
      <point x="664" y="995"/>
      <point x="518.37003921572" y="995.3886591970262" type="curve" smooth="yes"/>
      <point x="390" y="995"/>
      <point x="303" y="910"/>
      <point x="259.8891372548767" y="825.4964239029212" type="curve"/>
      <point x="259.8891372548767" y="0.0" type="line"/>
    </contour>
  </outline>
</glyph>
<glyph name="o" format="2">
  <advance width="1001"/>
  <unicode hex="006F"/>
  <outline>
    <contour>
      <point x="85.0" y="522.4285714285714" type="curve" smooth="yes"/>
      <point x="85.0" y="554.4285714285714" type="line" smooth="yes"/>
      <point x="85" y="909"/>
      <point x="247" y="1107"/>
      <point x="500.22450980393" y="1106.857142857143" type="curve" smooth="yes"/>
      <point x="754" y="1107"/>
      <point x="917" y="909"/>
      <point x="916.5156862745266" y="554.4285714285714" type="curve" smooth="yes"/>
      <point x="916.5156862745266" y="522.4285714285714" type="line" smooth="yes"/>
      <point x="917" y="167"/>
      <point x="754" y="-30"/>
      <point x="500.22450980393" y="-30.0" type="curve" smooth="yes"/>
      <point x="247" y="-30"/>
      <point x="85" y="167"/>
    </contour>
    <contour>
      <point x="198.76780392154333" y="586.4285714285714" type="curve" smooth="yes"/>
      <point x="198.76780392154333" y="490.42857142857144" type="line" smooth="yes"/>
      <point x="199" y="230"/>
      <point x="301" y="71"/>
      <point x="500.22450980393" y="70.97631372547335" type="curve" smooth="yes"/>
      <point x="699" y="71"/>
      <point x="803" y="230"/>
      <point x="802.7478823529117" y="490.42857142857144" type="curve" smooth="yes"/>
      <point x="802.7478823529117" y="586.4285714285714" type="line" smooth="yes"/>
      <point x="803" y="855"/>
      <point x="708" y="1006"/>
      <point x="500.22450980393" y="1005.8808291316695" type="curve" smooth="yes"/>
      <point x="293" y="1006"/>
      <point x="199" y="848"/>
    </contour>
  </outline>
</glyph>
<glyph name="p" format="2">
  <advance width="1012"/>
  <unicode hex="0070"/>
  <outline>
    <contour>
      <point x="148.0" y="-416.0" type="line"/>
      <point x="148.0" y="1076.857142857143" type="line"/>
      <point x="252.0596339869" y="1076.857142857143" type="line"/>
      <point x="255.58613071892333" y="945.0396918767212" type="line"/>
      <point x="255.28264052285334" y="945.0396918767212" type="line"/>
      <point x="311" y="1029"/>
      <point x="422" y="1097"/>
      <point x="561.0195032679767" y="1096.857142857143" type="curve" smooth="yes"/>
      <point x="790" y="1097"/>
      <point x="926" y="870"/>
      <point x="926.2855555555317" y="554.4285714285714" type="curve" smooth="yes"/>
      <point x="926.2855555555317" y="522.4285714285714" type="line" smooth="yes"/>
      <point x="926" y="207"/>
      <point x="790" y="-20"/>
      <point x="561.0195032679767" y="-20.0" type="curve" smooth="yes"/>
      <point x="422" y="-20"/>
      <point x="324" y="28"/>
      <point x="259.8891372548767" y="111.35078431375501" type="curve"/>
      <point x="259.8891372548767" y="-416.0" type="line"/>
    </contour>
    <contour>
      <point x="259.8891372548767" y="238.14326797387167" type="line"/>
      <point x="294" y="172"/>
      <point x="381" y="81"/>
      <point x="527.2058692810767" y="80.97631372547335" type="curve" smooth="yes"/>
      <point x="720" y="81"/>
      <point x="812" y="233"/>
      <point x="812.0259215686317" y="490.42857142857144" type="curve" smooth="yes"/>
      <point x="812.0259215686317" y="586.4285714285714" type="line" smooth="yes"/>
      <point x="812" y="844"/>
      <point x="723" y="996"/>
      <point x="532.53920261441" y="995.8808291316695" type="curve" smooth="yes"/>
      <point x="397" y="996"/>
      <point x="300" y="914"/>
      <point x="259.8891372548767" y="836.5805415499378" type="curve"/>
    </contour>
  </outline>
</glyph>
<glyph name="q" format="2">
  <advance width="1012"/>
  <unicode hex="0071"/>
  <outline>
    <contour>
      <point x="85.0" y="522.4285714285714" type="curve" smooth="yes"/>
      <point x="85.0" y="554.4285714285714" type="line" smooth="yes"/>
      <point x="85" y="870"/>
      <point x="221" y="1097"/>
      <point x="450.3807189542216" y="1096.857142857143" type="curve" smooth="yes"/>
      <point x="590" y="1097"/>
      <point x="701" y="1030"/>
      <point x="755.1957516339884" y="944.8963585433878" type="curve"/>
      <point x="755.9287581699417" y="944.8963585433878" type="line"/>
      <point x="759.5457516339884" y="1076.857142857143" type="line"/>
      <point x="864.064052287555" y="1076.857142857143" type="line"/>
      <point x="864.064052287555" y="-416.0" type="line"/>
      <point x="751.1957516339884" y="-416.0" type="line"/>
      <point x="751.1957516339884" y="119.17507002804071" type="line"/>
      <point x="751.1957516339884" y="118.960784313755" type="line"/>
      <point x="688" y="36"/>
      <point x="590" y="-20"/>
      <point x="450.3807189542216" y="-20.0" type="curve" smooth="yes"/>
      <point x="221" y="-20"/>
      <point x="85" y="207"/>
    </contour>
    <contour>
      <point x="198.76780392154333" y="490.42857142857144" type="line" smooth="yes"/>
      <point x="199" y="233"/>
      <point x="287" y="81"/>
      <point x="483.58785620917" y="80.97631372547335" type="curve" smooth="yes"/>
      <point x="616" y="81"/>
      <point x="710" y="161"/>
      <point x="751.396418300655" y="250.94326797387168" type="curve"/>
      <point x="751.396418300655" y="836.5805415499378" type="line"/>
      <point x="715" y="914"/>
      <point x="629" y="996"/>
      <point x="494.25452287583664" y="995.8808291316695" type="curve" smooth="yes"/>
      <point x="298" y="996"/>
      <point x="199" y="860"/>
      <point x="198.76780392154333" y="586.4285714285714" type="curve" smooth="yes"/>
    </contour>
  </outline>
</glyph>
<glyph name="s" format="2">
  <advance width="856"/>
  <unicode hex="0073"/>
  <outline>
    <contour>
      <point x="80.0" y="315.26937441642764" type="line"/>
      <point x="191.65980392154336" y="315.26937441642764" type="line"/>
      <point x="191.65980392154336" y="309.77754435107096" type="line" smooth="yes"/>
      <point x="192" y="148"/>
      <point x="289" y="66"/>
      <point x="431.714052287555" y="65.98398692809334" type="curve" smooth="yes"/>
      <point x="576" y="66"/>
      <point x="658" y="138"/>
      <point x="658.2247899159495" y="267.27754435107096" type="curve" smooth="yes"/>
      <point x="658" y="388"/>
      <point x="606" y="453"/>
      <point x="408.1055555555317" y="509.93641456583475" type="curve" smooth="yes"/>
      <point x="210" y="567"/>
      <point x="124" y="666"/>
      <point x="123.70564892625262" y="817.854435107382" type="curve" smooth="yes"/>
      <point x="124" y="996"/>
      <point x="253" y="1107"/>
      <point x="447.10037348274045" y="1106.857142857143" type="curve" smooth="yes"/>
      <point x="650" y="1107"/>
      <point x="770" y="991"/>
      <point x="769.9052754435122" y="772.6323529411933" type="curve" smooth="yes"/>
      <point x="769.9052754435122" y="767.6323529411933" type="line"/>
      <point x="658.5288048553022" y="767.6323529411933" type="line"/>
      <point x="658.5288048553022" y="787.5160597572672" type="line" smooth="yes"/>
      <point x="659" y="941"/>
      <point x="584" y="1011"/>
      <point x="447.10037348274045" y="1010.8731559290495" type="curve" smooth="yes"/>
      <point x="311" y="1011"/>
      <point x="236" y="950"/>
      <point x="236.35728291315263" y="832.6129318394053" type="curve" smooth="yes"/>
      <point x="236" y="723"/>
      <point x="278" y="662"/>
      <point x="476.58986928107663" y="602.0707282913081" type="curve" smooth="yes"/>
      <point x="674" y="542"/>
      <point x="776" y="460"/>
      <point x="775.561437908515" y="284.1693744164276" type="curve" smooth="yes"/>
      <point x="776" y="93"/>
      <point x="663" y="-30"/>
      <point x="431.714052287555" y="-30.0" type="curve" smooth="yes"/>
      <point x="192" y="-30"/>
      <point x="80" y="92"/>
      <point x="80.0" y="309.77754435107096" type="curve" smooth="yes"/>
    </contour>
  </outline>
</glyph>
<glyph name="t" format="2">
  <advance width="576"/>
  <unicode hex="0074"/>
  <outline>
    <contour>
      <point x="0.0" y="981.0074957983362" type="line"/>
      <point x="0.0" y="1076.857142857143" type="line"/>
      <point x="525.9081176470884" y="1076.857142857143" type="line"/>
      <point x="525.9081176470884" y="981.0074957983362" type="line"/>
    </contour>
    <contour>
      <point x="184.90684967321667" y="261.96732026142666" type="curve" smooth="yes"/>
      <point x="184.90684967321667" y="1019.2974827264295" type="line"/>
      <point x="184.90684967321667" y="1039.5508160597628" type="line"/>
      <point x="184.7" y="1320.5714285714287" type="line"/>
      <point x="296.95" y="1320.5714285714287" type="line"/>
      <point x="296.7959869280934" y="254.50065359476" type="line" smooth="yes"/>
      <point x="297" y="114"/>
      <point x="333" y="73"/>
      <point x="417.013071895415" y="73.02732026142667" type="curve" smooth="yes"/>
      <point x="450" y="73"/>
      <point x="477" y="78"/>
      <point x="508.42967320262" y="88.71932026142667" type="curve"/>
      <point x="508.42967320262" y="-4.873333333333333" type="line"/>
      <point x="482" y="-18"/>
      <point x="440" y="-30"/>
      <point x="388.5417516339883" y="-30.0" type="curve" smooth="yes"/>
      <point x="263" y="-30"/>
      <point x="185" y="60"/>
    </contour>
  </outline>
</glyph>
<glyph name="u" format="2">
  <advance width="982"/>
  <unicode hex="0075"/>
  <outline>
    <contour>
      <point x="138.0" y="342.5173202614267" type="curve" smooth="yes"/>
      <point x="138.0" y="1076.857142857143" type="line"/>
      <point x="249.8891372548767" y="1076.857142857143" type="line"/>
      <point x="249.8891372548767" y="340.5173202614267" type="line" smooth="yes"/>
      <point x="250" y="155"/>
      <point x="316" y="81"/>
      <point x="462.39423529410504" y="81.46848366011668" type="curve" smooth="yes"/>
      <point x="589" y="81"/>
      <point x="661" y="142"/>
      <point x="721.9418039215433" y="240.69405228755502" type="curve"/>
      <point x="721.9418039215433" y="1076.857142857143" type="line"/>
      <point x="834.3227712418484" y="1076.857142857143" type="line"/>
      <point x="834.3227712418484" y="0.0" type="line"/>
      <point x="730.2631372548767" y="0.0" type="line"/>
      <point x="727.3114771241634" y="119.30156862743833" type="line"/>
      <point x="725.4816339869001" y="119.30156862743833" type="line"/>
      <point x="657" y="32"/>
      <point x="568" y="-20"/>
      <point x="413.00377124184837" y="-20.0" type="curve" smooth="yes"/>
      <point x="251" y="-20"/>
      <point x="138" y="80"/>
    </contour>
  </outline>
</glyph>
<glyph name="w" format="2">
  <advance width="1392"/>
  <unicode hex="0077"/>
  <outline>
    <contour>
      <point x="25.0" y="1076.857142857143" type="line"/>
      <point x="143.520274509825" y="1076.857142857143" type="line"/>
      <point x="322.1944911297571" y="323.1299719888124" type="line" smooth="yes"/>
      <point x="336" y="270"/>
      <point x="355" y="190"/>
      <point x="361.97058823529835" y="136.2798319328026" type="curve"/>
      <point x="368.687254901965" y="136.2798319328026" type="line"/>
      <point x="377" y="190"/>
      <point x="398" y="270"/>
      <point x="413.1096171801731" y="323.1299719888124" type="curve" smooth="yes"/>
      <point x="639.1555555555316" y="1076.857142857143" type="line"/>
      <point x="758.0931372548766" y="1076.857142857143" type="line"/>
      <point x="974.2877684407152" y="323.1299719888124" type="line" smooth="yes"/>
      <point x="989" y="270"/>
      <point x="1009" y="190"/>
      <point x="1016.6458450046375" y="136.2798319328026" type="curve"/>
      <point x="1022.6458450046375" y="136.2798319328026" type="line"/>
      <point x="1030" y="190"/>
      <point x="1055" y="270"/>
      <point x="1067.1841736694635" y="323.1299719888124" type="curve" smooth="yes"/>
      <point x="1252.4279215686317" y="1076.857142857143" type="line"/>
      <point x="1365.9648758169583" y="1076.857142857143" type="line"/>
      <point x="1097.5689019607717" y="0.0" type="line"/>
      <point x="964.09049019607" y="0.0" type="line"/>
      <point x="736.92581699345" y="749.953361344521" type="line" smooth="yes"/>
      <point x="721" y="804"/>
      <point x="709" y="849"/>
      <point x="699.04901960786" y="902.7866946778543" type="curve"/>
      <point x="691.6156862745266" y="902.7866946778543" type="line"/>
      <point x="681" y="849"/>
      <point x="671" y="804"/>
      <point x="654.8055555555317" y="749.953361344521" type="curve" smooth="yes"/>
      <point x="428.43288235291163" y="0.0" type="line"/>
      <point x="294.6346405228533" y="0.0" type="line"/>
    </contour>
  </outline>
</glyph>
<glyph name="y" format="2">
  <advance width="944"/>
  <unicode hex="0079"/>
  <outline>
    <contour>
      <point x="114.38496732023334" y="-416.0" type="curve"/>
      <point x="114.38496732023334" y="-316.54934640524" type="line"/>
      <point x="148" y="-327"/>
      <point x="192" y="-336"/>
      <point x="226.49705882350833" y="-335.9826797385733" type="curve" smooth="yes"/>
      <point x="313" y="-336"/>
      <point x="323" y="-366"/>
      <point x="451.4599906629135" y="-11.926563958930952" type="curve"/>
      <point x="459.8171335200564" y="11.713912231545237" type="line"/>
      <point x="81.25" y="1076.857142857143" type="line"/>
      <point x="209.94509803922833" y="1076.857142857143" type="line"/>
      <point x="478.6712418300583" y="277.35378151262194" type="line" smooth="yes"/>
      <point x="494" y="234"/>
      <point x="501" y="202"/>
      <point x="509.7378151260757" y="138.36479925303595" type="curve"/>
      <point x="516.4544817927424" y="138.36479925303595" type="line"/>
      <point x="522" y="202"/>
      <point x="530" y="234"/>
      <point x="545.047945844999" y="277.35378151262194" type="curve" smooth="yes"/>
      <point x="821.911111111135" y="1076.857142857143" type="line"/>
      <point x="942.5055555555317" y="1076.857142857143" type="line"/>
      <point x="549.489215686245" y="-14.150000000000006" type="line" smooth="yes"/>
      <point x="425" y="-366"/>
      <point x="373" y="-436"/>
      <point x="231.889215686245" y="-436.0" type="curve" smooth="yes"/>
      <point x="181" y="-436"/>
      <point x="148" y="-428"/>
    </contour>
  </outline>
</glyph>
<glyph name="z" format="2">
  <advance width="834"/>
  <unicode hex="007A"/>
  <outline>
    <contour>
      <point x="54.0" y="0.0" type="line"/>
      <point x="54.0" y="100.17115032678333" type="line"/>
      <point x="624.3044519141088" y="975.8808291316695" type="line"/>
      <point x="62.26099346404667" y="975.8808291316695" type="line"/>
      <point x="62.26099346404667" y="1076.857142857143" type="line"/>
      <point x="755.20047058821" y="1076.857142857143" type="line"/>
      <point x="755.20047058821" y="978.2239925303595" type="line"/>
      <point x="183.72735200743452" y="100.97631372547335" type="line"/>
      <point x="785.1461176470883" y="100.97631372547335" type="line"/>
      <point x="785.1461176470883" y="0.0" type="line"/>
    </contour>
  </outline>
</glyph>
<glyph name="asciitilde" format="2">
  <advance width="1459"/>
  <unicode hex="007E"/>
  <outline>
    <contour>
      <point x="454.0418300653567" y="576.4333333333334" type="curve"/>
      <point x="454.0418300653567" y="703.9" type="line"/>
      <point x="484" y="748"/>
      <point x="521" y="767"/>
      <point x="576.287254901965" y="766.8833333333333" type="curve" smooth="yes"/>
      <point x="566" y="767"/>
      <point x="667" y="754"/>
      <point x="734.4323529411934" y="733.6915032679767" type="curve" smooth="yes"/>
      <point x="795" y="718"/>
      <point x="894" y="703"/>
      <point x="883.4441176470883" y="702.95" type="curve" smooth="yes"/>
      <point x="946" y="703"/>
      <point x="983" y="731"/>
      <point x="1012.7810457516016" y="782.4166666666666" type="curve"/>
      <point x="1012.7810457516016" y="653.2333333333333" type="line"/>
      <point x="984" y="613"/>
      <point x="945" y="591"/>
      <point x="886.5774509804216" y="591.3166666666666" type="curve" smooth="yes"/>
      <point x="901" y="591"/>
      <point x="811" y="600"/>
      <point x="758.32352941179" y="611.67483660131" type="curve" smooth="yes"/>
      <point x="684" y="635"/>
      <point x="573" y="655"/>
      <point x="580.5539215686317" y="654.9" type="curve" smooth="yes"/>
      <point x="522" y="655"/>
      <point x="485" y="631"/>
    </contour>
  </outline>
</glyph>
<glyph name="exclamdown" format="2">
  <advance width="535"/>
  <unicode hex="00A1"/>
  <outline>
    <contour>
      <point x="348.7833333333333" y="1075.2" type="curve" smooth="yes"/>
      <point x="349" y="1022"/>
      <point x="320" y="980"/>
      <point x="267.0333333333333" y="979.8333333333334" type="curve" smooth="yes"/>
      <point x="214" y="980"/>
      <point x="186" y="1022"/>
      <point x="186.0" y="1075.2" type="curve" smooth="yes"/>
      <point x="186" y="1128"/>
      <point x="214" y="1171"/>
      <point x="267.0333333333333" y="1170.5666666666666" type="curve" smooth="yes"/>
      <point x="320" y="1171"/>
      <point x="349" y="1128"/>
    </contour>
    <contour>
      <point x="314.3" y="738.5666666666667" type="line"/>
      <point x="322.5" y="-307.43333333333334" type="line"/>
      <point x="212.63333333333333" y="-307.43333333333334" type="line"/>
      <point x="221.55" y="738.5666666666667" type="line"/>
    </contour>
  </outline>
</glyph>
<glyph name="currency" format="2">
  <advance width="1051"/>
  <unicode hex="00A4"/>
  <guideline x="0" y="901.0" angle="0" identifier="bRYxxRaQQf"/>
  <guideline x="0" y="555.0" angle="0" identifier="917FhrihjR"/>
  <outline>
    <contour>
      <point x="235.91666666666666" y="712.0" type="curve"/>
      <point x="236" y="507"/>
      <point x="333" y="354"/>
      <point x="522.6666666666666" y="354.3666666666667" type="curve" smooth="yes"/>
      <point x="711" y="354"/>
      <point x="807" y="507"/>
      <point x="807.4166666666666" y="712.0" type="curve" smooth="yes"/>
      <point x="807" y="914"/>
      <point x="711" y="1068"/>
      <point x="522.6666666666666" y="1067.6333333333334" type="curve" smooth="yes"/>
      <point x="333" y="1068"/>
      <point x="236" y="914"/>
    </contour>
    <contour>
      <point x="118.13333333333333" y="718.0" type="curve"/>
      <point x="118" y="982"/>
      <point x="273" y="1183"/>
      <point x="521.6666666666666" y="1183.4333333333334" type="curve" smooth="yes"/>
      <point x="770" y="1183"/>
      <point x="925" y="982"/>
      <point x="925.2" y="718.0" type="curve" smooth="yes"/>
      <point x="925" y="454"/>
      <point x="770" y="251"/>
      <point x="521.6666666666666" y="250.56666666666666" type="curve" smooth="yes"/>
      <point x="273" y="251"/>
      <point x="118" y="454"/>
    </contour>
    <contour>
      <point x="990.8333333333333" y="1198.9333333333334" type="line"/>
      <point x="788.8333333333333" y="992.9333333333333" type="line"/>
      <point x="710.55" y="1074.7833333333333" type="line"/>
      <point x="912.55" y="1280.7833333333333" type="line"/>
    </contour>
    <contour>
      <point x="313.5" y="376.93333333333334" type="line"/>
      <point x="111.5" y="170.93333333333334" type="line"/>
      <point x="34.21666666666667" y="251.78333333333333" type="line"/>
      <point x="236.21666666666667" y="456.7833333333333" type="line"/>
    </contour>
    <contour>
      <point x="938.55" y="177.93333333333334" type="line"/>
      <point x="736.55" y="383.93333333333334" type="line"/>
      <point x="815.8333333333333" y="464.7833333333333" type="line"/>
      <point x="1017.8333333333333" y="259.7833333333333" type="line"/>
    </contour>
    <contour>
      <point x="253.21666666666667" y="1006.9333333333333" type="line"/>
      <point x="51.21666666666667" y="1212.9333333333334" type="line"/>
      <point x="128.5" y="1293.7833333333333" type="line"/>
      <point x="330.5" y="1087.7833333333333" type="line"/>
    </contour>
  </outline>
</glyph>
<glyph name="yen" format="2">
  <advance width="969"/>
  <unicode hex="00A5"/>
  <outline>
    <contour>
      <point x="73.33333333333333" y="339.6666666666667" type="line"/>
      <point x="73.33333333333333" y="441.3333333333333" type="line"/>
      <point x="903.2" y="441.3333333333333" type="line"/>
      <point x="903.2" y="339.6666666666667" type="line"/>
    </contour>
    <contour>
      <point x="73.33333333333333" y="642.5" type="line"/>
      <point x="73.33333333333333" y="739.1666666666666" type="line"/>
      <point x="388.73333333333335" y="739.1666666666666" type="line"/>
      <point x="441.73333333333335" y="669.0" type="line"/>
      <point x="550.7333333333333" y="669.0" type="line"/>
      <point x="598.7333333333333" y="739.1666666666666" type="line"/>
      <point x="903.2" y="739.1666666666666" type="line"/>
      <point x="903.2" y="642.5" type="line"/>
    </contour>
    <contour>
      <point x="436.2833333333333" y="0.0" type="line"/>
      <point x="436.2833333333333" y="572.3666666666667" type="line"/>
      <point x="9.666666666666668" y="1456.0" type="line"/>
      <point x="143.41666666666666" y="1456.0" type="line"/>
      <point x="429.73333333333335" y="806.0" type="line" smooth="yes"/>
      <point x="448" y="765"/>
      <point x="465" y="729"/>
      <point x="483.73333333333335" y="679.0" type="curve"/>
      <point x="503.73333333333335" y="679.0" type="line"/>
      <point x="533" y="754"/>
      <point x="538" y="766"/>
      <point x="557.7333333333333" y="806.0" type="curve" smooth="yes"/>
      <point x="829.5333333333333" y="1456.0" type="line"/>
      <point x="958.8666666666667" y="1456.0" type="line"/>
      <point x="548.6166666666667" y="572.3666666666667" type="line"/>
      <point x="548.6166666666667" y="0.0" type="line"/>
    </contour>
  </outline>
</glyph>
<glyph name="section" format="2">
  <advance width="1256"/>
  <unicode hex="00A7"/>
  <guideline x="0" y="1658.0" angle="0" identifier="QzZ5gIiCyn"/>
  <guideline x="0" y="578.0" angle="0" identifier="9Hxjf2sdFw"/>
  <outline>
    <contour>
      <point x="710.35" y="135.15" type="curve"/>
      <point x="710.35" y="224.76666666666665" type="line"/>
      <point x="866" y="240"/>
      <point x="944" y="339"/>
      <point x="943.6666666666666" y="480.9166666666667" type="curve"/>
      <point x="944" y="615"/>
      <point x="917" y="689"/>
      <point x="629.65" y="770.55" type="curve" smooth="yes"/>
      <point x="343" y="850"/>
      <point x="266" y="985"/>
      <point x="265.81666666666666" y="1141.9" type="curve" smooth="yes"/>
      <point x="266" y="1346"/>
      <point x="402" y="1490"/>
      <point x="624.4333333333333" y="1490.2833333333333" type="curve" smooth="yes"/>
      <point x="842" y="1491"/>
      <point x="975" y="1335"/>
      <point x="974.2" y="1105.0166666666667" type="curve"/>
      <point x="866.5333333333333" y="1105.0166666666667" type="line"/>
      <point x="867" y="1291"/>
      <point x="769" y="1391"/>
      <point x="624.4333333333333" y="1390.75" type="curve" smooth="yes"/>
      <point x="477" y="1391"/>
      <point x="378" y="1289"/>
      <point x="378.5" y="1145.0166666666667" type="curve" smooth="yes"/>
      <point x="378" y="1030"/>
      <point x="480" y="928"/>
      <point x="692.6" y="871.9166666666666" type="curve" smooth="yes"/>
      <point x="979" y="792"/>
      <point x="1061" y="690"/>
      <point x="1060.8833333333332" y="485.1666666666667" type="curve" smooth="yes"/>
      <point x="1061" y="303"/>
      <point x="941" y="151"/>
    </contour>
    <contour>
      <point x="518.2833333333333" y="911.9166666666666" type="curve"/>
      <point x="518.0" y="814.7666666666667" type="line"/>
      <point x="377" y="800"/>
      <point x="308" y="701"/>
      <point x="307.75" y="563.4166666666666" type="curve" smooth="yes"/>
      <point x="308" y="435"/>
      <point x="336" y="365"/>
      <point x="619.5166666666667" y="277.5833333333333" type="curve" smooth="yes"/>
      <point x="921" y="184"/>
      <point x="972" y="55"/>
      <point x="971.7333333333333" y="-126.61666666666667" type="curve" smooth="yes"/>
      <point x="972" y="-363"/>
      <point x="843" y="-506"/>
      <point x="586.8166666666667" y="-506.1333333333333" type="curve" smooth="yes"/>
      <point x="318" y="-506"/>
      <point x="201" y="-333"/>
      <point x="200.81666666666666" y="-89.91666666666667" type="curve"/>
      <point x="308.9166666666667" y="-89.35" type="line"/>
      <point x="309" y="-255"/>
      <point x="381" y="-404"/>
      <point x="586.8166666666667" y="-404.45" type="curve" smooth="yes"/>
      <point x="781" y="-404"/>
      <point x="860" y="-290"/>
      <point x="860.05" y="-133.13333333333333" type="curve" smooth="yes"/>
      <point x="860" y="16"/>
      <point x="777" y="110"/>
      <point x="552.9" y="175.33333333333334" type="curve" smooth="yes"/>
      <point x="269" y="259"/>
      <point x="191" y="367"/>
      <point x="190.96666666666667" y="566.25" type="curve" smooth="yes"/>
      <point x="191" y="741"/>
      <point x="285" y="896"/>
    </contour>
  </outline>
</glyph>
<glyph name="dieresis" format="2">
  <advance width="1024"/>
  <unicode hex="00A8"/>
  <outline>
    <contour>
      <point x="251.88333333333333" y="1290.9333333333334" type="curve" smooth="yes"/>
      <point x="252" y="1339"/>
      <point x="282" y="1376"/>
      <point x="338.6666666666667" y="1376.4333333333334" type="curve" smooth="yes"/>
      <point x="397" y="1376"/>
      <point x="426" y="1339"/>
      <point x="426.45" y="1290.9333333333334" type="curve" smooth="yes"/>
      <point x="426" y="1244"/>
      <point x="397" y="1207"/>
      <point x="338.6666666666667" y="1207.0" type="curve" smooth="yes"/>
      <point x="282" y="1207"/>
      <point x="252" y="1244"/>
    </contour>
    <contour>
      <point x="597.55" y="1288.9333333333334" type="curve" smooth="yes"/>
      <point x="598" y="1337"/>
      <point x="627" y="1374"/>
      <point x="684.3333333333334" y="1374.4333333333334" type="curve" smooth="yes"/>
      <point x="741" y="1374"/>
      <point x="772" y="1337"/>
      <point x="772.1166666666667" y="1288.9333333333334" type="curve" smooth="yes"/>
      <point x="772" y="1242"/>
      <point x="741" y="1205"/>
      <point x="684.3333333333334" y="1205.0" type="curve" smooth="yes"/>
      <point x="627" y="1205"/>
      <point x="598" y="1242"/>
    </contour>
  </outline>
</glyph>
<glyph name="ordfeminine" format="2">
  <advance width="798"/>
  <unicode hex="00AA"/>
  <guideline x="0" y="1681.0" angle="0" identifier="3CJlALCfkl"/>
  <guideline x="0" y="909.0" angle="0" identifier="Zdl6NZVQAy"/>
  <outline>
    <contour>
      <point x="518.3333333333334" y="862.0" type="line"/>
      <point x="518" y="807"/>
      <point x="531" y="746"/>
      <point x="561.3333333333334" y="706.0" type="curve"/>
      <point x="647.6" y="706.0" type="line"/>
      <point x="629" y="764"/>
      <point x="622" y="821"/>
      <point x="621.6" y="887.0" type="curve" smooth="yes"/>
      <point x="621.6" y="1201.0" type="line" smooth="yes"/>
      <point x="622" y="1375"/>
      <point x="549" y="1477"/>
      <point x="398.93333333333334" y="1477.0" type="curve" smooth="yes"/>
      <point x="245" y="1477"/>
      <point x="171" y="1398"/>
      <point x="171.26666666666668" y="1253.8333333333333" type="curve" smooth="yes"/>
      <point x="171.26666666666668" y="1234.0" type="line"/>
      <point x="270.3666666666667" y="1234.0" type="line"/>
      <point x="270.3666666666667" y="1247.0" type="line" smooth="yes"/>
      <point x="270" y="1338"/>
      <point x="317" y="1385"/>
      <point x="400.93333333333334" y="1385.4166666666667" type="curve" smooth="yes"/>
      <point x="477" y="1385"/>
      <point x="518" y="1313"/>
      <point x="518.3333333333334" y="1202.0" type="curve" smooth="yes"/>
    </contour>
    <contour>
      <point x="555.9333333333334" y="1141.8333333333333" type="line"/>
      <point x="411.93333333333334" y="1141.8333333333333" type="line" smooth="yes"/>
      <point x="248" y="1142"/>
      <point x="147" y="1063"/>
      <point x="147.26666666666668" y="918.0" type="curve" smooth="yes"/>
      <point x="147" y="774"/>
      <point x="227" y="692"/>
      <point x="343.43333333333334" y="692.0" type="curve" smooth="yes"/>
      <point x="468" y="692"/>
      <point x="537" y="767"/>
      <point x="557.6333333333333" y="858.5" type="curve"/>
      <point x="539.6333333333333" y="963.3333333333334" type="line"/>
      <point x="540" y="883"/>
      <point x="481" y="783"/>
      <point x="360.93333333333334" y="782.5833333333334" type="curve" smooth="yes"/>
      <point x="301" y="783"/>
      <point x="251" y="836"/>
      <point x="250.51666666666665" y="922.0" type="curve" smooth="yes"/>
      <point x="251" y="1021"/>
      <point x="315" y="1061"/>
      <point x="412.93333333333334" y="1056.3333333333333" type="curve" smooth="yes"/>
      <point x="555.9333333333334" y="1056.3333333333333" type="line"/>
    </contour>
  </outline>
</glyph>
<glyph name="registered" format="2">
  <advance width="1541"/>
  <unicode hex="00AE"/>
  <outline>
    <contour>
      <point x="41.96666666666667" y="687.0" type="curve" smooth="yes"/>
      <point x="42" y="1159"/>
      <point x="334" y="1512"/>
      <point x="770.4666666666667" y="1511.8333333333333" type="curve" smooth="yes"/>
      <point x="1206" y="1512"/>
      <point x="1499" y="1159"/>
      <point x="1498.9666666666667" y="687.0" type="curve" smooth="yes"/>
      <point x="1499" y="218"/>
      <point x="1206" y="-140"/>
      <point x="770.4666666666667" y="-139.83333333333334" type="curve" smooth="yes"/>
      <point x="334" y="-140"/>
      <point x="42" y="218"/>
    </contour>
    <contour>
      <point x="147.68333333333334" y="687.0" type="curve" smooth="yes"/>
      <point x="148" y="268"/>
      <point x="381" y="-37"/>
      <point x="771.4666666666667" y="-36.85" type="curve" smooth="yes"/>
      <point x="1161" y="-37"/>
      <point x="1394" y="268"/>
      <point x="1393.5333333333333" y="687.0" type="curve" smooth="yes"/>
      <point x="1394" y="1106"/>
      <point x="1161" y="1409"/>
      <point x="771.4666666666667" y="1408.5666666666666" type="curve" smooth="yes"/>
      <point x="381" y="1409"/>
      <point x="148" y="1106"/>
    </contour>
    <contour>
      <point x="830.0" y="604.8833333333333" type="line"/>
      <point x="619.2333333333333" y="604.8833333333333" type="line"/>
      <point x="619.2333333333333" y="225.0" type="line"/>
      <point x="510.1333333333333" y="225.0" type="line"/>
      <point x="510.1333333333333" y="1158.0" type="line"/>
      <point x="764.4666666666667" y="1158.0" type="line" smooth="yes"/>
      <point x="974" y="1158"/>
      <point x="1073" y="1055"/>
      <point x="1072.8" y="884.8833333333333" type="curve" smooth="yes"/>
      <point x="1073" y="747"/>
      <point x="1004" y="648"/>
      <point x="904.2666666666667" y="625.8833333333333" type="curve"/>
      <point x="933" y="595"/>
      <point x="958" y="566"/>
      <point x="975.1166666666667" y="522.8333333333334" type="curve" smooth="yes"/>
      <point x="1083.9" y="243.0" type="line"/>
      <point x="1083.9" y="225.0" type="line"/>
      <point x="971.55" y="225.0" type="line"/>
    </contour>
    <contour>
      <point x="765.4666666666667" y="1055.0166666666667" type="curve" smooth="yes"/>
      <point x="619.2333333333333" y="1055.0166666666667" type="line"/>
      <point x="619.2333333333333" y="703.6" type="line"/>
      <point x="790.4666666666667" y="703.6" type="line" smooth="yes"/>
      <point x="922" y="704"/>
      <point x="958" y="774"/>
      <point x="958.45" y="874.7666666666667" type="curve" smooth="yes"/>
      <point x="958" y="980"/>
      <point x="864" y="1055"/>
    </contour>
  </outline>
</glyph>
<glyph name="threesuperior" format="2">
  <advance width="641"/>
  <unicode hex="00B3"/>
  <outline>
    <contour>
      <point x="86.31666666666666" y="921.8333333333334" type="curve"/>
      <point x="183.83333333333331" y="921.8333333333334" type="line"/>
      <point x="184" y="822"/>
      <point x="222" y="775"/>
      <point x="330.8" y="774.95" type="curve" smooth="yes"/>
      <point x="416" y="775"/>
      <point x="472" y="828"/>
      <point x="472.25" y="917.8333333333334" type="curve" smooth="yes"/>
      <point x="472" y="1003"/>
      <point x="433" y="1066"/>
      <point x="325.55" y="1063.7166666666667" type="curve" smooth="yes"/>
      <point x="274.26666666666665" y="1063.7166666666667" type="line"/>
      <point x="274.26666666666665" y="1139.2166666666667" type="line"/>
      <point x="325.55" y="1139.2166666666667" type="line" smooth="yes"/>
      <point x="432" y="1140"/>
      <point x="456" y="1188"/>
      <point x="456.3833333333333" y="1269.3333333333333" type="curve" smooth="yes"/>
      <point x="456" y="1358"/>
      <point x="400" y="1400"/>
      <point x="329.23333333333335" y="1400.2" type="curve" smooth="yes"/>
      <point x="226" y="1400"/>
      <point x="195" y="1345"/>
      <point x="194.83333333333331" y="1254.1666666666667" type="curve"/>
      <point x="97.31666666666666" y="1254.1666666666667" type="line"/>
      <point x="97" y="1398"/>
      <point x="158" y="1487"/>
      <point x="329.1" y="1487.0" type="curve" smooth="yes"/>
      <point x="479" y="1487"/>
      <point x="553" y="1413"/>
      <point x="552.9666666666667" y="1280.2" type="curve" smooth="yes"/>
      <point x="553" y="1188"/>
      <point x="501" y="1132"/>
      <point x="418.5" y="1108.0333333333333" type="curve"/>
      <point x="512" y="1084"/>
      <point x="570" y="1005"/>
      <point x="569.7" y="917.0" type="curve" smooth="yes"/>
      <point x="570" y="774"/>
      <point x="496" y="686"/>
      <point x="325.8" y="686.0" type="curve" smooth="yes"/>
      <point x="169" y="686"/>
      <point x="86" y="777"/>
    </contour>
  </outline>
</glyph>
<glyph name="ordmasculine" format="2">
  <advance width="859"/>
  <unicode hex="00BA"/>
  <guideline x="0" y="1975.0" angle="0" identifier="Jnt0R9CyOf"/>
  <outline>
    <contour>
      <point x="141.3" y="1043.0" type="curve"/>
      <point x="141.3" y="1124.0" type="line"/>
      <point x="141" y="1353"/>
      <point x="230" y="1477"/>
      <point x="429.8" y="1477.0" type="curve" smooth="yes"/>
      <point x="630" y="1477"/>
      <point x="718" y="1353"/>
      <point x="718.3" y="1124.0" type="curve"/>
      <point x="718.3" y="1043.0" type="line"/>
      <point x="718" y="814"/>
      <point x="630" y="691"/>
      <point x="431.8" y="691.0" type="curve" smooth="yes"/>
      <point x="230" y="691"/>
      <point x="141" y="814"/>
    </contour>
    <contour>
      <point x="249.83333333333331" y="1124.0" type="curve"/>
      <point x="249.83333333333331" y="1043.0" type="line"/>
      <point x="250" y="867"/>
      <point x="319" y="785"/>
      <point x="431.8" y="784.85" type="curve" smooth="yes"/>
      <point x="542" y="785"/>
      <point x="610" y="867"/>
      <point x="610.05" y="1043.0" type="curve"/>
      <point x="610.05" y="1124.0" type="line"/>
      <point x="610" y="1300"/>
      <point x="542" y="1380"/>
      <point x="429.8" y="1380.4333333333334" type="curve" smooth="yes"/>
      <point x="317" y="1380"/>
      <point x="250" y="1300"/>
    </contour>
  </outline>
</glyph>
<glyph name="questiondown" format="2">
  <advance width="951"/>
  <unicode hex="00BF"/>
  <guideline x="0" y="-181.0" angle="0" identifier="apukwP5ffL"/>
  <guideline x="0" y="921.0" angle="0" identifier="5ZPZZL8Rim"/>
  <outline>
    <contour>
      <point x="590.7666666666667" y="1074.6333333333334" type="curve" smooth="yes"/>
      <point x="591" y="1022"/>
      <point x="561" y="979"/>
      <point x="510.0833333333333" y="979.2666666666667" type="curve" smooth="yes"/>
      <point x="458" y="979"/>
      <point x="428" y="1022"/>
      <point x="428.3333333333333" y="1074.6333333333334" type="curve" smooth="yes"/>
      <point x="428" y="1127"/>
      <point x="456" y="1170"/>
      <point x="509.01666666666665" y="1170.0" type="curve" smooth="yes"/>
      <point x="562" y="1170"/>
      <point x="591" y="1127"/>
    </contour>
    <contour>
      <point x="768.7833333333333" y="53.0" type="line"/>
      <point x="768.7833333333333" y="33.0" type="line" smooth="yes"/>
      <point x="769" y="-196"/>
      <point x="660" y="-328"/>
      <point x="479.05" y="-328.0" type="curve" smooth="yes"/>
      <point x="300" y="-328"/>
      <point x="194" y="-193"/>
      <point x="194.25" y="21.5" type="curve" smooth="yes"/>
      <point x="194" y="208"/>
      <point x="264" y="315"/>
      <point x="356.06666666666666" y="426.05" type="curve" smooth="yes"/>
      <point x="448" y="539"/>
      <point x="461" y="630"/>
      <point x="460.81666666666666" y="728.0" type="curve" smooth="yes"/>
      <point x="460.81666666666666" y="738.0" type="line"/>
      <point x="568.7666666666667" y="738.0" type="line"/>
      <point x="568.7666666666667" y="728.0" type="line" smooth="yes"/>
      <point x="569" y="573"/>
      <point x="537" y="494"/>
      <point x="434.3666666666667" y="362.51666666666665" type="curve" smooth="yes"/>
      <point x="345" y="249"/>
      <point x="302" y="169"/>
      <point x="302.2" y="21.5" type="curve" smooth="yes"/>
      <point x="302" y="-133"/>
      <point x="360" y="-226"/>
      <point x="479.05" y="-225.8" type="curve" smooth="yes"/>
      <point x="598" y="-226"/>
      <point x="662" y="-138"/>
      <point x="661.8333333333334" y="33.0" type="curve" smooth="yes"/>
      <point x="661.8333333333334" y="53.0" type="line"/>
    </contour>
  </outline>
</glyph>
<glyph name="Thorn" format="2">
  <advance width="982"/>
  <unicode hex="00DE"/>
  <guideline x="0" y="901.0" angle="0" identifier="i9jYwjBDP4"/>
  <guideline x="0" y="555.0" angle="0" identifier="T8KKW8oxop"/>
  <outline>
    <contour>
      <point x="170.0" y="1456.0" type="line"/>
      <point x="284.7833333333333" y="1456.0" type="line"/>
      <point x="284.7833333333333" y="1167.2833333333333" type="line"/>
      <point x="524.2" y="1167.2833333333333" type="line" smooth="yes"/>
      <point x="780" y="1167"/>
      <point x="904" y="1029"/>
      <point x="904.5" y="743.35" type="curve" smooth="yes"/>
      <point x="904" y="457"/>
      <point x="779" y="312"/>
      <point x="524.2" y="310.8" type="curve" smooth="yes"/>
      <point x="285.85" y="310.8" type="line"/>
      <point x="285.85" y="0.0" type="line"/>
      <point x="170.0" y="0.0" type="line"/>
    </contour>
    <contour>
      <point x="524.2" y="1061.45" type="curve" smooth="yes"/>
      <point x="285.85" y="1061.45" type="line"/>
      <point x="285.85" y="417.7" type="line"/>
      <point x="524.2" y="417.7" type="line" smooth="yes"/>
      <point x="729" y="418"/>
      <point x="788" y="563"/>
      <point x="787.9333333333334" y="744.9166666666666" type="curve" smooth="yes"/>
      <point x="788" y="927"/>
      <point x="729" y="1060"/>
    </contour>
  </outline>
</glyph>
<glyph name="divide" format="2">
  <advance width="917"/>
  <unicode hex="00F7"/>
  <outline>
    <contour>
      <point x="366.35" y="1033.4666666666667" type="curve" smooth="yes"/>
      <point x="366.35" y="1084.3196666666668"/>
      <point x="397.63466666666665" y="1123.5"/>
      <point x="457.6666666666667" y="1123.5" type="curve" smooth="yes"/>
      <point x="518.2793333333333" y="1123.5"/>
      <point x="549.9833333333333" y="1084.3196666666668"/>
      <point x="549.9833333333333" y="1033.4666666666667" type="curve" smooth="yes"/>
      <point x="549.9833333333333" y="983.373"/>
      <point x="518.2793333333333" y="945.0"/>
      <point x="457.6666666666667" y="945.0" type="curve" smooth="yes"/>
      <point x="397.63466666666665" y="945.0"/>
      <point x="366.35" y="983.373"/>
    </contour>
    <contour>
      <point x="366.35" y="320.9666666666667" type="curve" smooth="yes"/>
      <point x="366.35" y="371.44"/>
      <point x="397.63466666666665" y="411.0"/>
      <point x="457.6666666666667" y="411.0" type="curve" smooth="yes"/>
      <point x="518.2793333333333" y="411.0"/>
      <point x="549.9833333333333" y="371.44"/>
      <point x="549.9833333333333" y="320.9666666666667" type="curve" smooth="yes"/>
      <point x="549.9833333333333" y="270.87299999999993"/>
      <point x="518.2793333333333" y="232.21666666666667"/>
      <point x="457.6666666666667" y="232.21666666666667" type="curve" smooth="yes"/>
      <point x="397.63466666666665" y="232.21666666666667"/>
      <point x="366.35" y="270.87299999999993"/>
    </contour>
    <contour>
      <point x="57.0" y="623.8333333333334" type="line"/>
      <point x="57.0" y="736.4666666666667" type="line"/>
      <point x="860.3333333333334" y="736.4666666666667" type="line"/>
      <point x="860.3333333333334" y="623.8333333333334" type="line"/>
    </contour>
  </outline>
</glyph>
<glyph name="florin" format="2">
  <advance width="709"/>
  <unicode hex="0192"/>
  <outline>
    <contour>
      <point x="551.9" y="877.7333333333333" type="line"/>
      <point x="551.9" y="789.4166666666666" type="line"/>
      <point x="329.58333333333337" y="789.4166666666666" type="line"/>
      <point x="329.58333333333337" y="111.0" type="line" smooth="yes"/>
      <point x="329.58333333333337" y="-281.5083333333333"/>
      <point x="221.54000000000002" y="-437.0"/>
      <point x="-10.950000000000003" y="-437.0" type="curve" smooth="yes"/>
      <point x="-52.49" y="-437.0"/>
      <point x="-85.43" y="-433.4"/>
      <point x="-122.95" y="-420.0" type="curve"/>
      <point x="-108.95" y="-321.1666666666667" type="line"/>
      <point x="-88.85" y="-329.2066666666667"/>
      <point x="-29.710000000000004" y="-334.1666666666667"/>
      <point x="-10.950000000000003" y="-334.1666666666667" type="curve" smooth="yes"/>
      <point x="163.25" y="-334.1666666666667"/>
      <point x="207.66600000000003" y="-177.01066666666668"/>
      <point x="213.38333333333333" y="111.0" type="curve" smooth="yes"/>
      <point x="213.38333333333333" y="789.4166666666666" type="line"/>
      <point x="54.46666666666667" y="789.4166666666666" type="line"/>
      <point x="54.46666666666667" y="877.7333333333333" type="line"/>
      <point x="213.38333333333333" y="877.7333333333333" type="line"/>
      <point x="213.38333333333333" y="1125.2833333333333" type="line" smooth="yes"/>
      <point x="213.38333333333333" y="1361.7040000000002"/>
      <point x="306.41166666666663" y="1487.0"/>
      <point x="492.7833333333333" y="1487.0" type="curve" smooth="yes"/>
      <point x="533.765" y="1487.0"/>
      <point x="556.4263333333333" y="1495.857"/>
      <point x="630.4166666666667" y="1452.0166666666667" type="curve"/>
      <point x="599.5833333333333" y="1354.3166666666666" type="line"/>
      <point x="558.423" y="1376.6053333333334"/>
      <point x="535.56" y="1381.6333333333334"/>
      <point x="498.93333333333334" y="1381.6333333333334" type="curve" smooth="yes"/>
      <point x="378.244" y="1381.6333333333334"/>
      <point x="323.866" y="1296.9373333333335"/>
      <point x="329.58333333333337" y="1125.2833333333333" type="curve" smooth="yes"/>
      <point x="329.58333333333337" y="877.7333333333333" type="line"/>
    </contour>
  </outline>
</glyph>
<glyph name="dotaccent" format="2">
  <advance width="1024"/>
  <unicode hex="02D9"/>
  <outline>
    <contour>
      <point x="422.1" y="1313.05" type="curve" smooth="yes"/>
      <point x="422.1" y="1360.486"/>
      <point x="455.0053333333333" y="1401.1"/>
      <point x="512.0" y="1401.1" type="curve" smooth="yes"/>
      <point x="569.5753333333333" y="1401.1"/>
      <point x="602.6166666666667" y="1360.486"/>
      <point x="602.6166666666667" y="1313.05" type="curve" smooth="yes"/>
      <point x="602.6166666666667" y="1265.614"/>
      <point x="569.5753333333333" y="1226.0"/>
      <point x="512.0" y="1226.0" type="curve" smooth="yes"/>
      <point x="455.0053333333333" y="1226.0"/>
      <point x="422.1" y="1265.614"/>
    </contour>
  </outline>
</glyph>
<glyph name="ogonek" format="2">
  <advance width="1024"/>
  <unicode hex="02DB"/>
  <outline>
    <contour>
      <point x="518.6666666666666" y="49.833333333333336" type="curve"/>
      <point x="564.0" y="7.166666666666667" type="line"/>
      <point x="472.47799999999995" y="-53.312000000000005"/>
      <point x="378.6666666666667" y="-142.06666666666666"/>
      <point x="378.6666666666667" y="-229.16666666666666" type="curve" smooth="yes"/>
      <point x="378.6666666666667" y="-292.59333333333336"/>
      <point x="423.12666666666667" y="-320.0833333333333"/>
      <point x="490.35" y="-320.0833333333333" type="curve" smooth="yes"/>
      <point x="553.7766666666666" y="-320.0833333333333"/>
      <point x="595.3333333333333" y="-303.80333333333334"/>
      <point x="615.4333333333333" y="-293.0833333333333" type="curve"/>
      <point x="628.0" y="-368.5" type="line"/>
      <point x="594.5" y="-388.6"/>
      <point x="546.06" y="-412.5"/>
      <point x="467.0" y="-412.5" type="curve" smooth="yes"/>
      <point x="358.46" y="-412.5"/>
      <point x="275.0" y="-354.1753333333333"/>
      <point x="275.0" y="-243.0" type="curve" smooth="yes"/>
      <point x="275.0" y="-135.8"/>
      <point x="343.149" y="-39.38833333333334"/>
    </contour>
  </outline>
</glyph>
<glyph name="breveinvertedcomb" format="2">
  <advance width="1024"/>
  <unicode hex="030F"/>
  <outline>
    <contour>
      <point x="260.53333333333336" y="1205.8833333333334" type="curve"/>
      <point x="194.91666666666666" y="1241.9666666666667" type="line"/>
      <point x="240.85633333333334" y="1389.9920000000002"/>
      <point x="355.44033333333334" y="1513.7"/>
      <point x="513.7166666666667" y="1513.7" type="curve" smooth="yes"/>
      <point x="665.1366666666668" y="1513.7"/>
      <point x="782.4860000000001" y="1395.4036666666668"/>
      <point x="831.0833333333334" y="1241.6833333333334" type="curve"/>
      <point x="762.9166666666666" y="1205.8833333333334" type="line"/>
      <point x="711.215" y="1325.4783333333335"/>
      <point x="623.3783333333333" y="1406.3166666666666"/>
      <point x="512.7166666666667" y="1406.3166666666666" type="curve" smooth="yes"/>
      <point x="400.15666666666664" y="1406.3166666666666"/>
      <point x="312.6146666666666" y="1326.9969999999998"/>
    </contour>
  </outline>
</glyph>
<glyph name="horncomb" format="2">
  <advance width="1024"/>
  <unicode hex="031B"/>
  <outline>
    <contour>
      <point x="0.0" y="1029.5333333333333" type="line"/>
      <point x="84.0" y="1029.5333333333333" type="line" smooth="yes"/>
      <point x="180.97133333333335" y="1029.5333333333333"/>
      <point x="218.33333333333334" y="1049.6946666666668"/>
      <point x="218.33333333333334" y="1115.5333333333333" type="curve" smooth="yes"/>
      <point x="218.33333333333334" y="1177.1733333333334"/>
      <point x="203.48733333333334" y="1224.214"/>
      <point x="188.16666666666666" y="1270.5333333333333" type="curve"/>
      <point x="276.8333333333333" y="1277.7" type="line"/>
      <point x="303.6333333333333" y="1233.48"/>
      <point x="322.6666666666667" y="1170.5836666666667"/>
      <point x="322.6666666666667" y="1093.4666666666667" type="curve" smooth="yes"/>
      <point x="322.6666666666667" y="991.8723333333332"/>
      <point x="255.35399999999998" y="942.6833333333334"/>
      <point x="144.0" y="942.6833333333334" type="curve" smooth="yes"/>
      <point x="82.36" y="942.6833333333334"/>
      <point x="34.84" y="948.0686666666666"/>
      <point x="0.0" y="954.3666666666667" type="curve"/>
    </contour>
  </outline>
</glyph>
<glyph name="dotbelowcomb" format="2">
  <advance width="1024"/>
  <unicode hex="0323"/>
  <outline>
    <contour>
      <point x="422.6666666666667" y="-251.76666666666665" type="curve" smooth="yes"/>
      <point x="422.6666666666667" y="-200.15433333333334"/>
      <point x="453.4866666666666" y="-164.0"/>
      <point x="512.0" y="-164.0" type="curve" smooth="yes"/>
      <point x="569.955" y="-164.0"/>
      <point x="602.05" y="-201.673"/>
      <point x="602.05" y="-251.76666666666665" type="curve" smooth="yes"/>
      <point x="602.05" y="-303.75866666666667"/>
      <point x="571.4736666666666" y="-339.1"/>
      <point x="512.0" y="-339.1" type="curve" smooth="yes"/>
      <point x="455.0053333333333" y="-339.1"/>
      <point x="422.6666666666667" y="-302.24"/>
    </contour>
  </outline>
</glyph>
<glyph name="dieresisbelowcomb" format="2">
  <advance width="1024"/>
  <unicode hex="0324"/>
  <outline>
    <contour>
      <point x="317.4" y="-294.01666666666665" type="curve" smooth="yes"/>
      <point x="317.4" y="-256.6976666666667"/>
      <point x="345.2339999999999" y="-214.0"/>
      <point x="398.7" y="-214.0" type="curve" smooth="yes"/>
      <point x="457.7046666666667" y="-214.0"/>
      <point x="481.7833333333333" y="-252.49900000000002"/>
      <point x="481.7833333333333" y="-294.01666666666665" type="curve" smooth="yes"/>
      <point x="481.7833333333333" y="-329.52666666666664"/>
      <point x="453.50600000000003" y="-370.9"/>
      <point x="398.7" y="-370.9" type="curve" smooth="yes"/>
      <point x="342.085" y="-370.9"/>
      <point x="317.4" y="-332.6756666666667"/>
    </contour>
    <contour>
      <point x="640.35" y="-296.15" type="curve" smooth="yes"/>
      <point x="640.35" y="-258.831"/>
      <point x="666.7546666666666" y="-216.13333333333333"/>
      <point x="721.65" y="-216.13333333333333" type="curve" smooth="yes"/>
      <point x="778.265" y="-216.13333333333333"/>
      <point x="804.7333333333333" y="-254.63233333333335"/>
      <point x="804.7333333333333" y="-296.15" type="curve" smooth="yes"/>
      <point x="804.7333333333333" y="-331.65999999999997"/>
      <point x="774.0663333333333" y="-373.0333333333333"/>
      <point x="721.65" y="-373.0333333333333" type="curve" smooth="yes"/>
      <point x="663.6056666666667" y="-373.0333333333333"/>
      <point x="640.35" y="-334.809"/>
    </contour>
  </outline>
</glyph>
<glyph name="brevebelowcomb" format="2">
  <advance width="1024"/>
  <unicode hex="032E"/>
  <outline>
    <contour>
      <point x="727.0833333333334" y="-167.71666666666667" type="curve"/>
      <point x="794.2666666666667" y="-191.26666666666668" type="line"/>
      <point x="752.5256666666667" y="-339.29200000000003"/>
      <point x="651.9616666666667" y="-463.0"/>
      <point x="514.5" y="-463.0" type="curve" smooth="yes"/>
      <point x="376.9043333333333" y="-463.0"/>
      <point x="274.816" y="-344.70366666666666"/>
      <point x="232.51666666666668" y="-190.98333333333332" type="curve"/>
      <point x="303.81666666666666" y="-167.71666666666667" type="line"/>
      <point x="347.121" y="-281.01366666666667"/>
      <point x="420.983" y="-359.5333333333333"/>
      <point x="514.85" y="-359.5333333333333" type="curve" smooth="yes"/>
      <point x="608.516" y="-359.5333333333333"/>
      <point x="682.3496666666667" y="-281.48266666666666"/>
    </contour>
  </outline>
</glyph>
<glyph name="Lambda" format="2">
  <advance width="1028"/>
  <unicode hex="039B"/>
  <outline>
    <contour>
      <point x="0.0" y="0.0" type="line"/>
      <point x="433.85" y="1466.0" type="line"/>
      <point x="593.4833333333333" y="1466.0" type="line"/>
      <point x="1028.4" y="0.0" type="line"/>
      <point x="908.9166666666666" y="0.0" type="line"/>
      <point x="563" y="1197" type="line" smooth="yes"/>
      <point x="545" y="1256"/>
      <point x="529.6626666666667" y="1304.31"/>
      <point x="515.95" y="1354.7833333333333" type="curve"/>
      <point x="507.3666666666667" y="1354.7833333333333" type="line"/>
      <point x="494.6143333333334" y="1304.31"/>
      <point x="477" y="1255"/>
      <point x="460" y="1197" type="curve" smooth="yes"/>
      <point x="112.55" y="0.0" type="line"/>
    </contour>
  </outline>
</glyph>
<glyph name="Omega" format="2">
  <advance width="1276"/>
  <unicode hex="03A9"/>
  <anchor x="131" y="1456.0" name="GRK_topleft"/>
  <outline>
    <contour>
      <point x="115" y="0" type="line"/>
      <point x="115" y="102" type="line"/>
      <point x="443" y="102" type="line"/>
      <point x="443" y="321" type="line"/>
      <point x="217" y="404"/>
      <point x="115" y="566"/>
      <point x="115" y="846" type="curve"/>
      <point x="115" y="902" type="line"/>
      <point x="115" y="1277"/>
      <point x="319" y="1486"/>
      <point x="637" y="1486" type="curve"/>
      <point x="956" y="1486"/>
      <point x="1160" y="1277"/>
      <point x="1160" y="902" type="curve"/>
      <point x="1160" y="846" type="line"/>
      <point x="1160" y="566"/>
      <point x="1053" y="404"/>
      <point x="830" y="321" type="curve"/>
      <point x="830" y="102" type="line"/>
      <point x="1160" y="102" type="line"/>
      <point x="1160" y="0" type="line"/>
      <point x="722" y="0" type="line"/>
      <point x="722" y="405" type="line"/>
      <point x="934" y="441"/>
      <point x="1044" y="581"/>
      <point x="1044" y="848" type="curve"/>
      <point x="1044" y="910" type="line"/>
      <point x="1044" y="1216"/>
      <point x="906" y="1380"/>
      <point x="637" y="1380" type="curve"/>
      <point x="368" y="1380"/>
      <point x="231" y="1216"/>
      <point x="231" y="910" type="curve"/>
      <point x="231" y="848" type="line"/>
      <point x="231" y="581"/>
      <point x="338" y="441"/>
      <point x="551" y="405" type="curve"/>
      <point x="551" y="0" type="line"/>
    </contour>
  </outline>
</glyph>
<glyph name="delta" format="2">
  <advance width="981"/>
  <unicode hex="03B4"/>
  <outline>
    <contour>
      <point x="486" y="-30" type="curve" smooth="yes"/>
      <point x="734" y="-30"/>
      <point x="897" y="179"/>
      <point x="897" y="462" type="curve" smooth="yes"/>
      <point x="897" y="475" type="line" smooth="yes"/>
      <point x="897" y="758"/>
      <point x="753" y="899"/>
      <point x="565" y="1027" type="curve" smooth="yes"/>
      <point x="369" y="1151"/>
      <point x="329" y="1196"/>
      <point x="329" y="1286" type="curve" smooth="yes"/>
      <point x="329" y="1388"/>
      <point x="391" y="1456"/>
      <point x="535" y="1456" type="curve"/>
      <point x="628" y="1456"/>
      <point x="718" y="1425"/>
      <point x="772" y="1377" type="curve"/>
      <point x="802" y="1481" type="line"/>
      <point x="741" y="1527"/>
      <point x="638" y="1556"/>
      <point x="534" y="1556" type="curve"/>
      <point x="328" y="1556"/>
      <point x="215" y="1441"/>
      <point x="216" y="1281" type="curve"/>
      <point x="215" y="1153"/>
      <point x="288" y="1066"/>
      <point x="468" y="961" type="curve" smooth="yes"/>
      <point x="694" y="829"/>
      <point x="783" y="702"/>
      <point x="783" y="473" type="curve" smooth="yes"/>
      <point x="783" y="455" type="line" smooth="yes"/>
      <point x="783" y="191"/>
      <point x="670" y="70"/>
      <point x="488" y="70" type="curve" smooth="yes"/>
      <point x="299" y="70"/>
      <point x="199" y="203"/>
      <point x="199" y="457" type="curve" smooth="yes"/>
      <point x="199" y="477" type="line" smooth="yes"/>
      <point x="199" y="722"/>
      <point x="304" y="896"/>
      <point x="551" y="960" type="curve"/>
      <point x="451" y="1025" type="line"/>
      <point x="210" y="947"/>
      <point x="85" y="739"/>
      <point x="85" y="486" type="curve" smooth="yes"/>
      <point x="85" y="470" type="line" smooth="yes"/>
      <point x="85" y="158"/>
      <point x="236" y="-30"/>
    </contour>
  </outline>
</glyph>
<glyph name="epsilon" format="2">
  <advance width="817"/>
  <unicode hex="03B5"/>
  <anchor x="443.9666666666667" y="1076.857142857143" name="GRK_top"/>
  <outline>
    <contour>
      <point x="413.4" y="-30.0" type="curve"/>
      <point x="176.91233333333335" y="-30.0"/>
      <point x="52.7" y="108.38614285714283"/>
      <point x="52.7" y="273.08809523809526" type="curve"/>
      <point x="52.7" y="449.71285714285716"/>
      <point x="125.45366666666666" y="532.2028571428572"/>
      <point x="285.51666666666665" y="548.8571428571429" type="curve"/>
      <point x="286.3" y="526.2142857142857" type="line"/>
      <point x="158.32999999999998" y="549.5685714285714"/>
      <point x="84.58333333333334" y="642.1738095238095"/>
      <point x="84.58333333333334" y="776.652380952381" type="curve"/>
      <point x="84.58333333333334" y="965.5923809523811"/>
      <point x="205.44999999999996" y="1106.0714285714287"/>
      <point x="446.65" y="1106.0714285714287" type="curve" smooth="yes"/>
      <point x="707.3246666666668" y="1106.0714285714287"/>
      <point x="810" y="937"/>
      <point x="810.8666666666667" y="729.8547619047619" type="curve"/>
      <point x="703.2523809523809" y="729.8547619047619" type="line"/>
      <point x="704" y="869"/>
      <point x="660.4246666666668" y="1004.6404761904762"/>
      <point x="446.65" y="1004.6404761904762" type="curve" smooth="yes"/>
      <point x="275.5543333333334" y="1004.6404761904762"/>
      <point x="198" y="904"/>
      <point x="198" y="782" type="curve"/>
      <point x="198" y="659"/>
      <point x="261.80899999999997" y="591.2380952380952"/>
      <point x="386.18333333333334" y="591.2380952380952" type="curve" smooth="yes"/>
      <point x="568.8166666666667" y="591.2380952380952" type="line"/>
      <point x="568.8166666666667" y="493.8380952380952" type="line"/>
      <point x="386.18333333333334" y="493.8380952380952" type="line" smooth="yes"/>
      <point x="224.8473333333333" y="493.8380952380952"/>
      <point x="166" y="423"/>
      <point x="166" y="287" type="curve" smooth="yes"/>
      <point x="166" y="156"/>
      <point x="226.77966666666669" y="70.64761904761906"/>
      <point x="416.23333333333335" y="70.64761904761906" type="curve"/>
      <point x="620.4493333333334" y="70.64761904761906"/>
      <point x="702" y="161"/>
      <point x="703.9" y="347.002380952381" type="curve"/>
      <point x="810.8666666666667" y="347.002380952381" type="line"/>
      <point x="810.8666666666667" y="115.86833333333331"/>
      <point x="693.8173333333334" y="-30.0"/>
    </contour>
  </outline>
</glyph>
<glyph name="iota" format="2">
  <advance width="512"/>
  <unicode hex="03B9"/>
  <anchor x="190.2" y="1076.857142857143" name="GRK_top"/>
  <outline>
    <contour>
      <point x="342" y="-30.0" type="curve" smooth="yes"/>
      <point x="217" y="-30.0"/>
      <point x="138.0" y="59"/>
      <point x="138.0" y="262" type="curve" smooth="yes"/>
      <point x="138.0" y="1077" type="line"/>
      <point x="250" y="1077" type="line"/>
      <point x="250" y="255" type="line" smooth="yes"/>
      <point x="250" y="114"/>
      <point x="286" y="73"/>
      <point x="370" y="73" type="curve" smooth="yes"/>
      <point x="404" y="73"/>
      <point x="431" y="78"/>
      <point x="462" y="89" type="curve"/>
      <point x="462" y="-5" type="line"/>
      <point x="435" y="-18"/>
      <point x="393" y="-30.0"/>
    </contour>
  </outline>
</glyph>
<glyph name="rho" format="2">
  <advance width="976"/>
  <unicode hex="03C1"/>
  <outline>
    <contour>
      <point x="112" y="-416.0" type="line"/>
      <point x="112" y="568.0" type="line" smooth="yes"/>
      <point x="112" y="943.0"/>
      <point x="254.0" y="1099.0"/>
      <point x="501" y="1099.0" type="curve" smooth="yes"/>
      <point x="756" y="1099"/>
      <point x="891" y="863"/>
      <point x="891" y="566" type="curve" smooth="yes"/>
      <point x="891" y="519" type="line" smooth="yes"/>
      <point x="891" y="195"/>
      <point x="751" y="-20.0"/>
      <point x="505" y="-20.0" type="curve"/>
      <point x="373" y="-20.0"/>
      <point x="270" y="43"/>
      <point x="225" y="111" type="curve"/>
      <point x="225" y="-416.0" type="line"/>
    </contour>
    <contour>
      <point x="493.91666666666663" y="81.15" type="curve" smooth="yes"/>
      <point x="670" y="81"/>
      <point x="776.5666666666666" y="209.9655238095238"/>
      <point x="776.5666666666666" y="497.65714285714284" type="curve" smooth="yes"/>
      <point x="776.5666666666666" y="571.0761904761905" type="line" smooth="yes"/>
      <point x="776.5666666666666" y="857.2714761904763"/>
      <point x="670" y="998"/>
      <point x="492" y="998" type="curve" smooth="yes"/>
      <point x="291.0" y="998.0"/>
      <point x="225" y="842.0"/>
      <point x="225" y="573.0" type="curve"/>
      <point x="224.58333333333334" y="237.76666666666665" type="line"/>
      <point x="255.649" y="173.04466666666667"/>
      <point x="344" y="81"/>
    </contour>
  </outline>
</glyph>
<glyph name="phi" format="2">
  <advance width="1165"/>
  <unicode hex="03C6"/>
  <outline>
    <contour>
      <point x="527" y="-416.0" type="line"/>
      <point x="527" y="-30.0" type="line"/>
      <point x="278" y="-17"/>
      <point x="85.0" y="173"/>
      <point x="85.0" y="521" type="curve" smooth="yes"/>
      <point x="85.0" y="548" type="line" smooth="yes"/>
      <point x="85.0" y="899"/>
      <point x="278" y="1088"/>
      <point x="527" y="1101" type="curve"/>
      <point x="527" y="1536.0" type="line"/>
      <point x="639" y="1536.0" type="line"/>
      <point x="639" y="1101" type="line"/>
      <point x="887" y="1088"/>
      <point x="1081" y="899"/>
      <point x="1081" y="548" type="curve" smooth="yes"/>
      <point x="1081" y="521" type="line" smooth="yes"/>
      <point x="1081" y="173"/>
      <point x="887" y="-17"/>
      <point x="639" y="-30.0" type="curve"/>
      <point x="639" y="-416.0" type="line"/>
    </contour>
    <contour>
      <point x="527" y="71" type="curve"/>
      <point x="527" y="1000" type="line"/>
      <point x="320" y="987"/>
      <point x="199" y="838"/>
      <point x="199" y="580" type="curve" smooth="yes"/>
      <point x="199" y="489" type="line" smooth="yes"/>
      <point x="199" y="234"/>
      <point x="332" y="85"/>
    </contour>
    <contour>
      <point x="639" y="71" type="line"/>
      <point x="846" y="85"/>
      <point x="967" y="234"/>
      <point x="967" y="489" type="curve" smooth="yes"/>
      <point x="967" y="580" type="line" smooth="yes"/>
      <point x="967" y="838"/>
      <point x="834" y="987"/>
      <point x="639" y="1000" type="curve"/>
    </contour>
  </outline>
</glyph>
<glyph name="Ieukran" format="2">
  <advance width="1072"/>
  <unicode hex="0404"/>
  <guideline x="211.0" y="787.0" angle="90.0" identifier="mFTeE97JTj"/>
  <outline>
    <contour>
      <point x="174.11666666666667" y="789.9833333333333" type="line"/>
      <point x="731.4833333333333" y="789.9833333333333" type="line"/>
      <point x="731.4833333333333" y="686.4166666666666" type="line"/>
      <point x="174.11666666666667" y="686.4166666666666" type="line"/>
    </contour>
    <contour>
      <point x="115.0" y="692.75" type="curve" smooth="yes"/>
      <point x="115.0" y="763.25" type="line" smooth="yes"/>
      <point x="115.0" y="1269.837"/>
      <point x="311.0826666666667" y="1486.0"/>
      <point x="616.0666666666667" y="1486.0" type="curve" smooth="yes"/>
      <point x="898.6280000000002" y="1486.0"/>
      <point x="1064.6166666666668" y="1317.4753333333333"/>
      <point x="1064.6166666666668" y="1024.2833333333333" type="curve" smooth="yes"/>
      <point x="1064.6166666666668" y="1014.2833333333333" type="line"/>
      <point x="949.2333333333333" y="1014.2833333333333" type="line"/>
      <point x="949.2333333333333" y="1024.2833333333333" type="line" smooth="yes"/>
      <point x="949.2333333333333" y="1191.493"/>
      <point x="858.1823333333333" y="1380.3666666666666"/>
      <point x="616.0666666666667" y="1380.3666666666666" type="curve" smooth="yes"/>
      <point x="359.7469999999999" y="1380.3666666666666"/>
      <point x="230.60000000000002" y="1171.4473333333335"/>
      <point x="230.60000000000002" y="788.9666666666667" type="curve" smooth="yes"/>
      <point x="230.60000000000002" y="656.35" type="line" smooth="yes"/>
      <point x="230.60000000000002" y="261.11699999999996"/>
      <point x="381.16999999999996" y="75.63333333333333"/>
      <point x="615.0" y="75.63333333333333" type="curve" smooth="yes"/>
      <point x="852.515" y="75.63333333333333"/>
      <point x="956.1360000000001" y="272.32366666666667"/>
      <point x="950.0166666666667" y="431.7166666666667" type="curve"/>
      <point x="949.2333333333333" y="441.7166666666667" type="line"/>
      <point x="1064.6166666666668" y="441.7166666666667" type="line"/>
      <point x="1065.4" y="431.7166666666667" type="line" smooth="yes"/>
      <point x="1086.3933333333332" y="138.4353333333333"/>
      <point x="898.6280000000002" y="-30.0"/>
      <point x="616.0666666666667" y="-30.0" type="curve" smooth="yes"/>
      <point x="308.224" y="-30.0"/>
      <point x="115.0" y="186.58733333333328"/>
    </contour>
  </outline>
</glyph>
<glyph name="Lje" format="2">
  <advance width="1738"/>
  <unicode hex="0409"/>
  <outline>
    <contour>
      <point x="286.35" y="1456.0" type="line"/>
      <point x="994.8833333333333" y="1456.0" type="line"/>
      <point x="994.8833333333333" y="880.2" type="line"/>
      <point x="1253.2166666666667" y="880.2" type="line" smooth="yes"/>
      <point x="1525.2143333333333" y="880.2"/>
      <point x="1660.0166666666667" y="736.0453333333332"/>
      <point x="1660.0166666666667" y="439.95" type="curve" smooth="yes"/>
      <point x="1660.0166666666667" y="143.85466666666667"/>
      <point x="1525.2143333333333" y="0.0"/>
      <point x="1253.2166666666667" y="0.0" type="curve" smooth="yes"/>
      <point x="879.5" y="0.0" type="line"/>
      <point x="879.5" y="1352.4333333333334" type="line"/>
      <point x="388.9666666666667" y="1352.4333333333334" type="line"/>
      <point x="353.73333333333335" y="556.3333333333334" type="line" smooth="yes"/>
      <point x="338.502" y="191.07166666666666"/>
      <point x="286.6066666666666" y="-13.768333333333334"/>
      <point x="96.55" y="-8.966666666666665" type="curve" smooth="yes"/>
      <point x="62.916000000000004" y="-8.006333333333334"/>
      <point x="42.18233333333333" y="-2.2563333333333357"/>
      <point x="10.0" y="10.183333333333334" type="curve"/>
      <point x="10.0" y="128.65" type="line"/>
      <point x="34.991" y="117.93"/>
      <point x="52.05566666666667" y="112.06666666666666"/>
      <point x="92.23333333333333" y="112.06666666666666" type="curve" smooth="yes"/>
      <point x="200.25966666666665" y="112.06666666666666"/>
      <point x="234.799" y="268.5643333333333"/>
      <point x="248.4" y="575.0" type="curve" smooth="yes"/>
    </contour>
    <contour>
      <point x="994.8833333333333" y="776.6333333333333" type="line"/>
      <point x="994.8833333333333" y="102.5" type="line"/>
      <point x="1253.2166666666667" y="102.5" type="line" smooth="yes"/>
      <point x="1470.319" y="102.5"/>
      <point x="1544.6333333333334" y="235.064"/>
      <point x="1544.6333333333334" y="439.95" type="curve" smooth="yes"/>
      <point x="1544.6333333333334" y="647.2256666666667"/>
      <point x="1470.6816666666666" y="776.6333333333333"/>
      <point x="1252.15" y="776.6333333333333" type="curve" smooth="yes"/>
    </contour>
  </outline>
</glyph>
<glyph name="Tshe" format="2">
  <advance width="1455"/>
  <unicode hex="040B"/>
  <outline>
    <contour>
      <point x="1181.75" y="0.0" type="line"/>
      <point x="1183.8833333333332" y="321.7166666666667" type="line" smooth="yes"/>
      <point x="1185.3126666666667" y="672.5956666666668"/>
      <point x="1064.4636666666665" y="746.4333333333333"/>
      <point x="852.9" y="746.4333333333333" type="curve" smooth="yes"/>
      <point x="661.6009159159123" y="746.4333333333333"/>
      <point x="572.4170000000001" y="724.103"/>
      <point x="497.5333333333333" y="701.1666666666666" type="curve"/>
      <point x="497.5333333333333" y="805.45" type="line"/>
      <point x="612.6393333333334" y="828.9446666666666"/>
      <point x="664.0061794872279" y="850.0"/>
      <point x="831.4666666666667" y="850.0" type="curve" smooth="yes"/>
      <point x="1111.6383333333333" y="850.0"/>
      <point x="1297.1333333333332" y="744.709"/>
      <point x="1297.1333333333332" y="321.91666666666663" type="curve" smooth="yes"/>
      <point x="1297.1333333333332" y="0.0" type="line"/>
    </contour>
    <contour>
      <point x="24.0" y="1353.5" type="line"/>
      <point x="24.0" y="1456.0" type="line"/>
      <point x="970.5333333333333" y="1456.0" type="line"/>
      <point x="970.5333333333333" y="1353.5" type="line"/>
      <point x="554.8666666666667" y="1353.5" type="line"/>
      <point x="554.8666666666667" y="0.0" type="line"/>
      <point x="441.26666666666665" y="0.0" type="line"/>
      <point x="441.26666666666665" y="1353.5" type="line"/>
    </contour>
  </outline>
</glyph>
<glyph name="De" format="2">
  <advance width="1214"/>
  <unicode hex="0414"/>
  <outline>
    <contour>
      <point x="1094.25" y="-290.0" type="line"/>
      <point x="1094.25" y="0.0" type="line"/>
      <point x="112.16666666666667" y="0.0" type="line"/>
      <point x="112.16666666666667" y="-290.0" type="line"/>
      <point x="4.666666666666667" y="-290.0" type="line"/>
      <point x="4.666666666666667" y="103.56666666666666" type="line"/>
      <point x="1201.75" y="103.56666666666666" type="line"/>
      <point x="1201.75" y="-290.0" type="line"/>
    </contour>
    <contour>
      <point x="237.78333333333333" y="1456.0" type="line"/>
      <point x="1035.9166666666667" y="1456.0" type="line"/>
      <point x="1035.9166666666667" y="0.0" type="line"/>
      <point x="920.5333333333333" y="0.0" type="line"/>
      <point x="920.5333333333333" y="1352.4333333333334" type="line"/>
      <point x="341.9666666666667" y="1352.4333333333334" type="line"/>
      <point x="305.95" y="464.68333333333334" type="line" smooth="yes"/>
      <point x="300.5676666666667" y="275.11800000000005"/>
      <point x="284.57633333333337" y="175.95433333333335"/>
      <point x="218.98333333333332" y="47.78333333333333" type="curve"/>
      <point x="96.48333333333333" y="47.78333333333333" type="line"/>
      <point x="188.921" y="176.08833333333334"/>
      <point x="192.87033333333332" y="317.65033333333326"/>
      <point x="202.18333333333334" y="510.76666666666665" type="curve" smooth="yes"/>
    </contour>
  </outline>
</glyph>
<glyph name="Ucyr" format="2">
  <advance width="1010"/>
  <unicode hex="0423"/>
  <outline>
    <contour>
      <point x="449.8833333333333" y="388.05" type="line"/>
      <point x="15.0" y="1456.0" type="line"/>
      <point x="132.5" y="1456.0" type="line"/>
      <point x="441.85" y="693.3833333333333" type="line" smooth="yes"/>
      <point x="470.0346666666667" y="614.8146666666667"/>
      <point x="487.3343333333333" y="565.2113333333334"/>
      <point x="494.95" y="519.3833333333333" type="curve"/>
      <point x="502.0333333333333" y="519.3833333333333" type="line"/>
      <point x="508.8003333333333" y="565.2113333333334"/>
      <point x="524.0120000000001" y="616.3333333333333"/>
      <point x="552.8666666666667" y="693.3833333333333" type="curve" smooth="yes"/>
      <point x="876.9833333333333" y="1456.0" type="line"/>
      <point x="995.3333333333333" y="1456.0" type="line"/>
      <point x="543.1833333333334" y="376.8" type="line" smooth="yes"/>
      <point x="421.89136284827305" y="79.85696336223356"/>
      <point x="319.5704326241621" y="-16.724666666666668"/>
      <point x="217.93333333333334" y="-12.883333333333333" type="curve" smooth="yes"/>
      <point x="171.882" y="-11.923000000000002"/>
      <point x="155.34" y="-4.606333333333332"/>
      <point x="124.96666666666667" y="7.833333333333332" type="curve"/>
      <point x="124.96666666666667" y="131.13333333333333" type="line"/>
      <point x="146.42900000000003" y="120.41333333333333"/>
      <point x="148.134" y="113.13333333333333"/>
      <point x="216.11666666666667" y="113.13333333333333" type="curve" smooth="yes"/>
      <point x="300.4026666666666" y="113.13333333333333"/>
      <point x="353.8333333333333" y="201.96266666666665"/>
      <point x="459.9166666666667" y="433.91666666666663" type="curve"/>
    </contour>
  </outline>
</glyph>
<glyph name="Hard" format="2">
  <advance width="1156"/>
  <unicode hex="042A"/>
  <outline>
    <contour>
      <point x="24.0" y="1353.5" type="line"/>
      <point x="24.0" y="1456.0" type="line"/>
      <point x="412.8" y="1456.0" type="line"/>
      <point x="412.8" y="880.2" type="line"/>
      <point x="671.1333333333333" y="880.2" type="line" smooth="yes"/>
      <point x="943.1310000000001" y="880.2"/>
      <point x="1077.9333333333334" y="736.0453333333332"/>
      <point x="1077.9333333333334" y="439.95" type="curve" smooth="yes"/>
      <point x="1077.9333333333334" y="143.85466666666667"/>
      <point x="943.1310000000001" y="0.0"/>
      <point x="671.1333333333333" y="0.0" type="curve" smooth="yes"/>
      <point x="297.4166666666667" y="0.0" type="line"/>
      <point x="297.4166666666667" y="1353.5" type="line"/>
    </contour>
    <contour>
      <point x="412.8" y="776.6333333333333" type="line"/>
      <point x="412.8" y="102.5" type="line"/>
      <point x="671.1333333333333" y="102.5" type="line" smooth="yes"/>
      <point x="888.2356666666667" y="102.5"/>
      <point x="962.55" y="235.064"/>
      <point x="962.55" y="439.95" type="curve" smooth="yes"/>
      <point x="962.55" y="647.2256666666667"/>
      <point x="888.5983333333334" y="776.6333333333333"/>
      <point x="670.0666666666666" y="776.6333333333333" type="curve" smooth="yes"/>
    </contour>
  </outline>
</glyph>
<glyph name="Ya" format="2">
  <advance width="1043"/>
  <unicode hex="042F"/>
  <outline>
    <contour>
      <point x="872.6666666666667" y="0.0" type="line"/>
      <point x="872.6666666666667" y="1456.0" type="line"/>
      <point x="513.0" y="1456.0" type="line" smooth="yes"/>
      <point x="243.72024806202876" y="1456.0"/>
      <point x="105.18333333333334" y="1325.0133333333335"/>
      <point x="105.18333333333334" y="1039.8166666666666" type="curve" smooth="yes"/>
      <point x="105.18333333333334" y="786.8407857784482"/>
      <point x="211.75722346455316" y="653.2779546887782"/>
      <point x="421.51666666666665" y="626.5666666666667" type="curve"/>
      <point x="429.05" y="621.2166666666667" type="line"/>
      <point x="757.2833333333333" y="621.2166666666667" type="line"/>
      <point x="757.2833333333333" y="0.0" type="line"/>
    </contour>
    <contour>
      <point x="757.2833333333333" y="723.5" type="line"/>
      <point x="507.6666666666667" y="723.5" type="line" smooth="yes"/>
      <point x="294.026" y="723.5"/>
      <point x="220.56666666666666" y="846.9906666666666"/>
      <point x="220.56666666666666" y="1039.8166666666666" type="curve" smooth="yes"/>
      <point x="220.56666666666666" y="1234.0720000000001"/>
      <point x="295.379279132832" y="1354.7833333333333"/>
      <point x="513.0" y="1354.7833333333333" type="curve" smooth="yes"/>
      <point x="757.2833333333333" y="1354.7833333333333" type="line"/>
    </contour>
    <contour>
      <point x="172.08333333333331" y="0.0" type="line"/>
      <point x="511.2" y="672.0" type="line"/>
      <point x="386.4666666666667" y="672.0" type="line"/>
      <point x="40.71666666666667" y="0.0" type="line"/>
    </contour>
  </outline>
</glyph>
<glyph name="ve" format="2">
  <advance width="951"/>
  <unicode hex="0432"/>
  <outline>
    <contour>
      <point x="148.0" y="0.0" type="line"/>
      <point x="148.0" y="1052.0" type="line"/>
      <point x="505.66666666666663" y="1052.0" type="line" smooth="yes"/>
      <point x="701.798" y="1052.0"/>
      <point x="822.9666666666667" y="957.2883333333334"/>
      <point x="822.9666666666667" y="773.15" type="curve" smooth="yes"/>
      <point x="822.9666666666667" y="650.0486666666666"/>
      <point x="750.7896796043702" y="564.1775945223084"/>
      <point x="657.0" y="544.0" type="curve"/>
      <point x="657.0" y="541.0" type="line"/>
      <point x="781.9773333333333" y="522.91"/>
      <point x="864.2666666666667" y="429.83833333333337"/>
      <point x="864.2666666666667" y="306.0" type="curve" smooth="yes"/>
      <point x="864.2666666666667" y="111.69999999999999"/>
      <point x="737.2593333333334" y="0.0"/>
      <point x="539.9666666666667" y="0.0" type="curve" smooth="yes"/>
    </contour>
    <contour>
      <point x="259.5333333333333" y="100.56666666666666" type="line"/>
      <point x="539.9666666666667" y="100.56666666666666" type="line" smooth="yes"/>
      <point x="683.9496666666666" y="100.56666666666666"/>
      <point x="750.3" y="179.74966666666666"/>
      <point x="750.3" y="306.0" type="curve" smooth="yes"/>
      <point x="750.3" y="413.6243333333333"/>
      <point x="680.488" y="485.2166666666667"/>
      <point x="539.9666666666667" y="485.2166666666667" type="curve" smooth="yes"/>
      <point x="259.5333333333333" y="485.2166666666667" type="line"/>
    </contour>
    <contour>
      <point x="259.5333333333333" y="584.7833333333333" type="line"/>
      <point x="505.66666666666663" y="584.7833333333333" type="line" smooth="yes"/>
      <point x="650.2303333333333" y="584.7833333333333"/>
      <point x="708.0" y="651.1683333333333"/>
      <point x="708.0" y="770.3166666666667" type="curve" smooth="yes"/>
      <point x="708.0" y="882.3629999999999"/>
      <point x="650.7176666666667" y="951.4333333333334"/>
      <point x="504.23333333333335" y="951.4333333333334" type="curve" smooth="yes"/>
      <point x="259.5333333333333" y="951.4333333333334" type="line"/>
    </contour>
  </outline>
</glyph>
<glyph name="ze" format="2">
  <advance width="804"/>
  <unicode hex="0437"/>
  <outline>
    <contour>
      <point x="360.25" y="-30.0" type="curve" smooth="yes"/>
      <point x="173.46649662919347" y="-30.0"/>
      <point x="3.450000000000003" y="68.10599999999997"/>
      <point x="3.450000000000003" y="309.2166666666667" type="curve" smooth="yes"/>
      <point x="3.450000000000003" y="314.2166666666667" type="line"/>
      <point x="111.13333333333333" y="314.2166666666667" type="line"/>
      <point x="111.13333333333333" y="309.2166666666667" type="line" smooth="yes"/>
      <point x="111.13333333333333" y="151.83366666666663"/>
      <point x="204.93658020048073" y="71.5"/>
      <point x="360.5333333333333" y="71.5" type="curve" smooth="yes"/>
      <point x="525.4876730037939" y="71.5"/>
      <point x="594.8666666666667" y="170.60699999999997"/>
      <point x="594.8666666666667" y="295.3833333333333" type="curve" smooth="yes"/>
      <point x="594.8666666666667" y="425.14"/>
      <point x="522.3123333333333" y="487.35"/>
      <point x="354.56666666666666" y="487.35" type="curve" smooth="yes"/>
      <point x="223.21666666666667" y="487.35" type="line"/>
      <point x="223.21666666666667" y="587.9833333333333" type="line"/>
      <point x="357.6" y="587.9833333333333" type="line" smooth="yes"/>
      <point x="502.1230224964825" y="587.9833333333333"/>
      <point x="558.2833333333333" y="649.6963333333333"/>
      <point x="558.2833333333333" y="778.85" type="curve" smooth="yes"/>
      <point x="558.2833333333333" y="898.4896666666666"/>
      <point x="497.81999999999994" y="981.5666666666666"/>
      <point x="350.8666666666667" y="981.5666666666666" type="curve" smooth="yes"/>
      <point x="188.33572698409037" y="981.5666666666666"/>
      <point x="126.93333333333334" y="880.3046048248125"/>
      <point x="126.93333333333334" y="742.7833333333333" type="curve" smooth="yes"/>
      <point x="126.93333333333334" y="737.7833333333333" type="line"/>
      <point x="19.25" y="737.7833333333333" type="line"/>
      <point x="19.25" y="742.7833333333333" type="line" smooth="yes"/>
      <point x="19.25" y="954.2130000000001"/>
      <point x="157.414" y="1082.0"/>
      <point x="369.0" y="1082.0" type="curve" smooth="yes"/>
      <point x="550.9496666666666" y="1082.0"/>
      <point x="681.7833333333333" y="978.8943333333333"/>
      <point x="681.7833333333333" y="774.5666666666667" type="curve" smooth="yes"/>
      <point x="681.7833333333333" y="648.7853333333334"/>
      <point x="605.7503467089733" y="567.4336849127227"/>
      <point x="511.3333333333333" y="546.1333333333333" type="curve"/>
      <point x="511.3333333333333" y="543.1333333333333" type="line"/>
      <point x="640.674219958167" y="523.14042420374"/>
      <point x="717.3666666666667" y="447.87733333333335"/>
      <point x="717.3666666666667" y="296.1" type="curve" smooth="yes"/>
      <point x="717.3666666666667" y="109.83999999999997"/>
      <point x="593.871225424951" y="-30.0"/>
    </contour>
  </outline>
</glyph>
<glyph name="el" format="2">
  <advance width="981"/>
  <unicode hex="043B"/>
  <outline>
    <contour>
      <point x="305.5" y="951.4333333333334" type="line"/>
      <point x="284.9666666666667" y="358.91666666666663" type="line" smooth="yes"/>
      <point x="279.1266269036213" y="174.4037914245702"/>
      <point x="254.96639143729038" y="-14.866666666666667"/>
      <point x="88.56666666666666" y="-14.866666666666667" type="curve" smooth="yes"/>
      <point x="45.440999999999995" y="-14.866666666666667"/>
      <point x="34.03066666666667" y="-7.497333333333335"/>
      <point x="10.0" y="3.133333333333333" type="curve"/>
      <point x="10.0" y="110.4" type="line"/>
      <point x="32.311" y="101.98033333333333"/>
      <point x="38.09533333333333" y="95.96666666666667"/>
      <point x="71.41666666666667" y="95.96666666666667" type="curve" smooth="yes"/>
      <point x="154.92100000000002" y="95.96666666666667"/>
      <point x="175.66833045092906" y="251.8879888059285"/>
      <point x="179.41666666666666" y="345.68333333333334" type="curve" smooth="yes"/>
      <point x="203.16666666666666" y="1052.0" type="line"/>
      <point x="835.65" y="1052.0" type="line"/>
      <point x="835.65" y="0.0" type="line"/>
      <point x="724.1166666666667" y="0.0" type="line"/>
      <point x="724.1166666666667" y="951.4333333333334" type="line"/>
    </contour>
  </outline>
</glyph>
<glyph name="em" format="2">
  <advance width="1231"/>
  <unicode hex="043C"/>
  <outline>
    <contour>
      <point x="148.0" y="0.0" type="line"/>
      <point x="148.0" y="1052.0" type="line"/>
      <point x="300.26666666666665" y="1052.0" type="line"/>
      <point x="572.25" y="254.61666666666667" type="line" smooth="yes"/>
      <point x="584.31" y="208.09633333333335"/>
      <point x="602.8689999999999" y="164.30599999999998"/>
      <point x="612.45" y="134.06666666666666" type="curve"/>
      <point x="620.3" y="134.06666666666666" type="line"/>
      <point x="630.8413333333334" y="165.26633333333334"/>
      <point x="645.5193333333333" y="204.47"/>
      <point x="659.5" y="254.05" type="curve" smooth="yes"/>
      <point x="932.7666666666667" y="1052.0" type="line"/>
      <point x="1083.25" y="1052.0" type="line"/>
      <point x="1083.25" y="0.0" type="line"/>
      <point x="968.9333333333334" y="0.0" type="line"/>
      <point x="968.9333333333334" y="771.1833333333334" type="line" smooth="yes"/>
      <point x="968.9333333333334" y="822.3936666666666"/>
      <point x="972.6866666666667" y="866.93"/>
      <point x="975.3666666666667" y="903.3333333333334" type="curve"/>
      <point x="967.0833333333334" y="903.3333333333334" type="line"/>
      <point x="958.4626666666667" y="866.93"/>
      <point x="940.2743333333334" y="818.1740000000001"/>
      <point x="928.6833333333334" y="772.0333333333333" type="curve" smooth="yes"/>
      <point x="667.3666666666667" y="0.0" type="line"/>
      <point x="557.5333333333333" y="0.0" type="line"/>
      <point x="292.73333333333335" y="772.1666666666666" type="line" smooth="yes"/>
      <point x="279.42266666666666" y="817.95"/>
      <point x="265.0436666666667" y="866.2133333333334"/>
      <point x="257.3833333333333" y="902.6166666666667" type="curve"/>
      <point x="248.81666666666666" y="902.6166666666667" type="line"/>
      <point x="251.49666666666667" y="866.2133333333334"/>
      <point x="255.96666666666667" y="821.3823333333333"/>
      <point x="255.96666666666667" y="772.45" type="curve" smooth="yes"/>
      <point x="255.96666666666667" y="0.0" type="line"/>
    </contour>
  </outline>
</glyph>
<glyph name="ef" format="2">
  <advance width="1165"/>
  <unicode hex="0444"/>
  <outline>
    <contour>
      <point x="199.1" y="478.0" type="line" smooth="yes"/>
      <point x="199.1" y="229.31833333333336"/>
      <point x="331.59399999999994" y="84.55000000000001"/>
      <point x="527.1" y="71.15" type="curve"/>
      <point x="527.1" y="980.85" type="line"/>
      <point x="320.15933333333334" y="967.45"/>
      <point x="199.1" y="822.6816666666667"/>
      <point x="199.1" y="574.0" type="curve" smooth="yes"/>
    </contour>
    <contour>
      <point x="966.6333333333333" y="574.0" type="line" smooth="yes"/>
      <point x="966.6333333333333" y="822.6816666666667"/>
      <point x="834.1393333333333" y="967.45"/>
      <point x="638.6333333333333" y="980.85" type="curve"/>
      <point x="638.6333333333333" y="71.15" type="line"/>
      <point x="845.574" y="84.55000000000001"/>
      <point x="966.6333333333333" y="229.31833333333336"/>
      <point x="966.6333333333333" y="478.0" type="curve" smooth="yes"/>
    </contour>
    <contour>
      <point x="527.1" y="-30.0" type="line"/>
      <point x="278.32899999999995" y="-16.6"/>
      <point x="85.0" y="167.74166666666667"/>
      <point x="85.0" y="510.0" type="curve" smooth="yes"/>
      <point x="85.0" y="542.0" type="line" smooth="yes"/>
      <point x="85.0" y="884.2583333333333"/>
      <point x="278.32899999999995" y="1068.6"/>
      <point x="527.1" y="1082.0" type="curve"/>
      <point x="527.1" y="1536.0" type="line"/>
      <point x="638.6333333333333" y="1536.0" type="line"/>
      <point x="638.6333333333333" y="1082.0" type="line"/>
      <point x="887.4043333333333" y="1068.6"/>
      <point x="1080.7333333333333" y="884.2583333333333"/>
      <point x="1080.7333333333333" y="542.0" type="curve" smooth="yes"/>
      <point x="1080.7333333333333" y="510.0" type="line" smooth="yes"/>
      <point x="1080.7333333333333" y="167.74166666666667"/>
      <point x="887.4043333333333" y="-16.6"/>
      <point x="638.6333333333333" y="-30.0" type="curve"/>
      <point x="638.6333333333333" y="-416.0" type="line"/>
      <point x="527.1" y="-416.0" type="line"/>
    </contour>
  </outline>
</glyph>
<glyph name="ecyr" format="2">
  <advance width="861"/>
  <unicode hex="044D"/>
  <guideline x="889.0" y="493.0" angle="90.0" identifier="9ss4WcbEUf"/>
  <outline>
    <contour>
      <point x="776.2166666666667" y="517.1666666666666" type="line" smooth="yes"/>
      <point x="776.2166666666667" y="182.97066666666666"/>
      <point x="620.4900973936858" y="-30.0"/>
      <point x="362.41666666666663" y="-30.0" type="curve" smooth="yes"/>
      <point x="126.21056697821965" y="-30.0"/>
      <point x="19.116666666666667" y="119.71833333333333"/>
      <point x="19.116666666666667" y="309.2166666666667" type="curve" smooth="yes"/>
      <point x="19.116666666666667" y="314.2166666666667" type="line"/>
      <point x="126.8" y="314.2166666666667" type="line"/>
      <point x="126.8" y="309.2166666666667" type="line" smooth="yes"/>
      <point x="126.8" y="177.47233333333332"/>
      <point x="197.39861827960038" y="71.5"/>
      <point x="363.48333333333335" y="71.5" type="curve" smooth="yes"/>
      <point x="561.9005135134767" y="71.5"/>
      <point x="662.8333333333334" y="240.92366666666663"/>
      <point x="662.8333333333334" y="493.0" type="curve" smooth="yes"/>
      <point x="662.8333333333334" y="563.9333333333333" type="line" smooth="yes"/>
      <point x="662.8333333333334" y="816.1213333333334"/>
      <point x="568.5677899543696" y="981.5666666666666"/>
      <point x="377.1166666666667" y="981.5666666666666" type="curve" smooth="yes"/>
      <point x="217.30761827960038" y="981.5666666666666"/>
      <point x="146.53333333333333" y="892.5506666666666"/>
      <point x="146.53333333333333" y="742.7833333333333" type="curve" smooth="yes"/>
      <point x="146.53333333333333" y="737.7833333333333" type="line"/>
      <point x="38.85" y="737.7833333333333" type="line"/>
      <point x="38.85" y="742.7833333333333" type="line" smooth="yes"/>
      <point x="38.85" y="951.4883333333333"/>
      <point x="169.93223364488628" y="1082.0"/>
      <point x="374.98333333333335" y="1082.0" type="curve" smooth="yes"/>
      <point x="618.9168962655276" y="1082.0"/>
      <point x="776.2166666666667" y="871.8386666666668"/>
      <point x="776.2166666666667" y="549.1666666666666" type="curve" smooth="yes"/>
    </contour>
    <contour>
      <point x="713.05" y="586.35" type="line"/>
      <point x="713.05" y="485.78333333333336" type="line"/>
      <point x="260.8333333333333" y="485.78333333333336" type="line"/>
      <point x="260.8333333333333" y="586.35" type="line"/>
    </contour>
  </outline>
</glyph>
<glyph name="dje" format="2">
  <advance width="982"/>
  <unicode hex="0452"/>
  <outline>
    <contour>
      <point x="271.95" y="1257.8833333333334" type="line"/>
      <point x="43.28333333333333" y="1257.8833333333334" type="line"/>
      <point x="54.28333333333333" y="1356.5833333333333" type="line"/>
      <point x="311.95" y="1356.5833333333333" type="line"/>
      <point x="543.6166666666667" y="1356.5833333333333" type="line"/>
      <point x="543.6166666666667" y="1257.8833333333334" type="line"/>
    </contour>
    <contour>
      <point x="844.4666666666667" y="-90.0" type="line" smooth="yes"/>
      <point x="844.4666666666667" y="-331.20000000000005"/>
      <point x="760.8826666666666" y="-436.0"/>
      <point x="601.3333333333334" y="-436.0" type="curve" smooth="yes"/>
      <point x="559.1903333333333" y="-436.0"/>
      <point x="510.29133333333334" y="-422.04566666666665"/>
      <point x="483.0" y="-412.8666666666667" type="curve"/>
      <point x="483.0" y="-315.5" type="line"/>
      <point x="507.9016666666667" y="-323.54"/>
      <point x="553.565" y="-334.78333333333336"/>
      <point x="588.5166666666667" y="-334.78333333333336" type="curve" smooth="yes"/>
      <point x="680.5746666666668" y="-334.78333333333336"/>
      <point x="732.2166666666667" y="-275.8306666666667"/>
      <point x="732.2166666666667" y="-127.85" type="curve" smooth="yes"/>
      <point x="732.2166666666667" y="739.0333333333333" type="line" smooth="yes"/>
      <point x="732.2166666666667" y="891.4136666666667"/>
      <point x="669.0876666666667" y="970.7833333333333"/>
      <point x="537.5666666666667" y="970.7833333333333" type="curve" smooth="yes"/>
      <point x="402.852" y="970.7833333333333"/>
      <point x="305.808" y="876.0356666666667"/>
      <point x="259.5333333333333" y="768.3666666666667" type="curve"/>
      <point x="259.5333333333333" y="0.0" type="line"/>
      <point x="148.0" y="0.0" type="line"/>
      <point x="148.0" y="1536.0" type="line"/>
      <point x="259.5333333333333" y="1536.0" type="line"/>
      <point x="259.5333333333333" y="890.5333333333333" type="line"/>
      <point x="324.1883333333333" y="1006.5773333333334"/>
      <point x="414.9323333333333" y="1072.0"/>
      <point x="567.0" y="1072.0" type="curve" smooth="yes"/>
      <point x="738.8996666666667" y="1072.0"/>
      <point x="844.4666666666667" y="962.9350000000001"/>
      <point x="844.4666666666667" y="737.0333333333333" type="curve" smooth="yes"/>
    </contour>
  </outline>
</glyph>
<glyph name="ieukran" format="2">
  <advance width="861"/>
  <unicode hex="0454"/>
  <guideline x="180.0" y="548.0" angle="90.0" identifier="n4jm0tBg3Y"/>
  <outline>
    <contour>
      <point x="85.0" y="510.0" type="curve" smooth="yes"/>
      <point x="85.0" y="542.0" type="line" smooth="yes"/>
      <point x="85.0" y="889.5066666666667"/>
      <point x="237.79600000000002" y="1082.0"/>
      <point x="490.9666666666667" y="1082.0" type="curve" smooth="yes"/>
      <point x="725.1763333333333" y="1082.0"/>
      <point x="842.1" y="932.2816666666668"/>
      <point x="842.1" y="742.7833333333333" type="curve" smooth="yes"/>
      <point x="842.1" y="737.7833333333333" type="line"/>
      <point x="734.4166666666666" y="737.7833333333333" type="line"/>
      <point x="734.4166666666666" y="742.7833333333333" type="line" smooth="yes"/>
      <point x="734.4166666666666" y="875.957"/>
      <point x="672.4973333333332" y="980.5"/>
      <point x="489.9" y="980.5" type="curve" smooth="yes"/>
      <point x="293.99199999999996" y="980.5"/>
      <point x="198.38333333333333" y="833.7893333333334"/>
      <point x="198.38333333333333" y="556.7666666666667" type="curve" smooth="yes"/>
      <point x="198.38333333333333" y="485.8333333333333" type="line" smooth="yes"/>
      <point x="198.38333333333333" y="220.44633333333326"/>
      <point x="294.4196666666666" y="70.43333333333334"/>
      <point x="480.3" y="70.43333333333334" type="curve" smooth="yes"/>
      <point x="665.7560000000001" y="70.43333333333334"/>
      <point x="734.4166666666666" y="176.04299999999995"/>
      <point x="734.4166666666666" y="309.2166666666667" type="curve" smooth="yes"/>
      <point x="734.4166666666666" y="314.2166666666667" type="line"/>
      <point x="842.1" y="314.2166666666667" type="line"/>
      <point x="842.1" y="309.2166666666667" type="line" smooth="yes"/>
      <point x="842.1" y="119.71833333333333"/>
      <point x="728.0776666666667" y="-30.0"/>
      <point x="482.43333333333334" y="-30.0" type="curve" smooth="yes"/>
      <point x="240.69733333333335" y="-30.0"/>
      <point x="85.0" y="162.49333333333328"/>
    </contour>
    <contour>
      <point x="146.6" y="586.35" type="line"/>
      <point x="600.3833333333333" y="586.35" type="line"/>
      <point x="600.3833333333333" y="485.78333333333336" type="line"/>
      <point x="146.6" y="485.78333333333336" type="line"/>
    </contour>
  </outline>
</glyph>
<glyph name="yi" format="2">
  <advance width="426"/>
  <unicode hex="0457"/>
  <outline>
    <contour>
      <point x="157.0" y="0.0" type="line"/>
      <point x="157.0" y="1052.0" type="line"/>
      <point x="268.5333333333333" y="1052.0" type="line"/>
      <point x="268.5333333333333" y="0.0" type="line"/>
    </contour>
    <contour>
      <point x="36.483333333333334" y="1391.4833333333333" type="curve" smooth="yes"/>
      <point x="36.483333333333334" y="1435.7703333333334"/>
      <point x="63.803999999999995" y="1469.9333333333334"/>
      <point x="111.01666666666667" y="1469.9333333333334" type="curve" smooth="yes"/>
      <point x="157.17966666666666" y="1469.9333333333334"/>
      <point x="184.76666666666668" y="1435.7703333333334"/>
      <point x="184.76666666666668" y="1391.4833333333333" type="curve" smooth="yes"/>
      <point x="184.76666666666668" y="1346.236"/>
      <point x="156.936" y="1312.3166666666666"/>
      <point x="111.73333333333333" y="1312.3166666666666" type="curve" smooth="yes"/>
      <point x="63.560333333333325" y="1312.3166666666666"/>
      <point x="36.483333333333334" y="1346.236"/>
    </contour>
    <contour>
      <point x="240.76666666666665" y="1391.4833333333333" type="curve" smooth="yes"/>
      <point x="240.76666666666665" y="1435.7703333333334"/>
      <point x="268.08733333333333" y="1469.9333333333334"/>
      <point x="315.3" y="1469.9333333333334" type="curve" smooth="yes"/>
      <point x="361.463" y="1469.9333333333334"/>
      <point x="389.05" y="1435.7703333333334"/>
      <point x="389.05" y="1391.4833333333333" type="curve" smooth="yes"/>
      <point x="389.05" y="1346.236"/>
      <point x="361.21933333333334" y="1312.3166666666666"/>
      <point x="316.01666666666665" y="1312.3166666666666" type="curve" smooth="yes"/>
      <point x="267.84366666666665" y="1312.3166666666666"/>
      <point x="240.76666666666665" y="1346.236"/>
    </contour>
  </outline>
</glyph>
<glyph name="Ustraightstroke" format="2">
  <advance width="1023"/>
  <unicode hex="04B0"/>
  <outline>
    <contour>
      <point x="207.83333333333334" y="569.8" type="line"/>
      <point x="813.8833333333333" y="569.8" type="line"/>
      <point x="813.8833333333333" y="461.85" type="line"/>
      <point x="207.83333333333334" y="461.85" type="line"/>
    </contour>
    <contour>
      <point x="453.8833333333333" y="0.0" type="line"/>
      <point x="453.8833333333333" y="571.9333333333333" type="line"/>
      <point x="15.0" y="1456.0" type="line"/>
      <point x="142.98333333333335" y="1456.0" type="line"/>
      <point x="449.0" y="824.3666666666667" type="line" smooth="yes"/>
      <point x="468.0726666666667" y="784.1666666666666"/>
      <point x="489.71066666666667" y="723.4029999999999"/>
      <point x="508.7833333333333" y="678.1333333333333" type="curve"/>
      <point x="519.0666666666667" y="678.1333333333333" type="line"/>
      <point x="538.1393333333333" y="723.4029999999999"/>
      <point x="556.667" y="784.1666666666666"/>
      <point x="576.7" y="824.3666666666667" type="curve" smooth="yes"/>
      <point x="886.3666666666667" y="1456.0" type="line"/>
      <point x="1007.4333333333334" y="1456.0" type="line"/>
      <point x="568.55" y="571.9333333333333" type="line"/>
      <point x="568.55" y="0.0" type="line"/>
    </contour>
  </outline>
</glyph>
<glyph name="cheverticalstroke-cy" format="2">
  <advance width="981"/>
  <unicode hex="04B9"/>
  <outline>
    <contour>
      <point x="721.4" y="0.0" type="line"/>
      <point x="721.4" y="1052.0" type="line"/>
      <point x="832.9333333333334" y="1052.0" type="line"/>
      <point x="832.9333333333334" y="0.0" type="line"/>
    </contour>
    <contour>
      <point x="241.86666666666667" y="773.0" type="line" smooth="yes"/>
      <point x="241.86666666666667" y="560.0293333333334"/>
      <point x="319.76599999999996" y="496.85"/>
      <point x="501.9166666666667" y="496.85" type="curve" smooth="yes"/>
      <point x="634.7106666666666" y="496.85"/>
      <point x="685.8789999999999" y="499.94533333333334"/>
      <point x="792.8333333333334" y="529.9166666666666" type="curve"/>
      <point x="792.8333333333334" y="429.06666666666666" type="line"/>
      <point x="685.6109999999999" y="405.974"/>
      <point x="619.7203333333333" y="396.0"/>
      <point x="508.43333333333334" y="396.0" type="curve" smooth="yes"/>
      <point x="231.902" y="396.0"/>
      <point x="130.33333333333334" y="508.39466666666664"/>
      <point x="130.33333333333334" y="773.0" type="curve" smooth="yes"/>
      <point x="130.33333333333334" y="1052.0" type="line"/>
      <point x="241.86666666666667" y="1052.0" type="line"/>
    </contour>
    <contour>
      <point x="531.0" y="801.8333333333334" type="line"/>
      <point x="531.0" y="178.5" type="line"/>
      <point x="430.5" y="178.5" type="line"/>
      <point x="430.5" y="801.8333333333334" type="line"/>
    </contour>
  </outline>
</glyph>
<glyph name="Schwacyr" format="2">
  <advance width="1186"/>
  <unicode hex="04D8"/>
  <guideline x="-584.6500000000001" y="772.6833333333333" angle="90.0" identifier="UtNSclIhRG"/>
  <guideline x="2059.5333333333333" y="791.8833333333333" angle="90.0" identifier="hwb5F7EShy"/>
  <outline>
    <contour>
      <point x="173.33333333333334" y="741.2833333333333" type="line"/>
      <point x="1012.3" y="741.2833333333333" type="line"/>
      <point x="1012.3" y="637.7166666666667" type="line"/>
      <point x="173.33333333333334" y="637.7166666666667" type="line"/>
    </contour>
    <contour>
      <point x="953.6833333333334" y="778.3" type="line" smooth="yes"/>
      <point x="953.6833333333334" y="1189.0546666666667"/>
      <point x="823.424" y="1380.3666666666666"/>
      <point x="565.1166666666667" y="1380.3666666666666" type="curve" smooth="yes"/>
      <point x="333.6763333333333" y="1380.3666666666666"/>
      <point x="244.70733333333334" y="1227.3793333333333"/>
      <point x="267.8" y="1022.7166666666667" type="curve" smooth="yes"/>
      <point x="269.3666666666667" y="1014.2833333333333" type="line"/>
      <point x="153.98333333333335" y="1014.2833333333333" type="line"/>
      <point x="153.2" y="1024.2833333333333" type="line" smooth="yes"/>
      <point x="132.20666666666668" y="1318.5249999999999"/>
      <point x="303.3476666666666" y="1486.0"/>
      <point x="565.1166666666667" y="1486.0" type="curve" smooth="yes"/>
      <point x="867.8896666666666" y="1486.0"/>
      <point x="1070.35" y="1273.3753333333334"/>
      <point x="1070.35" y="746.8" type="curve" smooth="yes"/>
      <point x="1070.35" y="673.1666666666666" type="line" smooth="yes"/>
      <point x="1070.35" y="204.25600000000003"/>
      <point x="888.387" y="-30.0"/>
      <point x="592.85" y="-30.0" type="curve" smooth="yes"/>
      <point x="298.2733333333333" y="-30.0"/>
      <point x="115.0" y="214.59599999999995"/>
      <point x="115.0" y="704.5" type="curve" smooth="yes"/>
      <point x="115.0" y="741.2833333333333" type="line"/>
      <point x="230.60000000000002" y="741.2833333333333" type="line"/>
      <point x="230.60000000000002" y="698.35" type="line" smooth="yes"/>
      <point x="230.60000000000002" y="246.27866666666665"/>
      <point x="394.35133333333334" y="75.63333333333333"/>
      <point x="592.85" y="75.63333333333333" type="curve" smooth="yes"/>
      <point x="792.3090000000001" y="75.63333333333333"/>
      <point x="953.6833333333334" y="231.74"/>
      <point x="953.6833333333334" y="667.0166666666667" type="curve" smooth="yes"/>
    </contour>
  </outline>
</glyph>
<glyph name="quotedblright" format="2">
  <advance width="730"/>
  <unicode hex="201D"/>
  <outline>
    <contour>
      <point x="289.3333333333333" y="1458.0" type="line"/>
      <point x="289.3333333333333" y="1335.0166666666667" type="line" smooth="yes"/>
      <point x="289.3333333333333" y="1214.4166666666667"/>
      <point x="240.04500000000002" y="1084.4326666666666"/>
      <point x="134.96666666666667" y="995.2333333333333" type="curve"/>
      <point x="60.5" y="1046.0166666666667" type="line"/>
      <point x="130.20233333333334" y="1127.7343333333333"/>
      <point x="163.38333333333333" y="1223.4766666666667"/>
      <point x="163.38333333333333" y="1332.0166666666667" type="curve" smooth="yes"/>
      <point x="163.38333333333333" y="1458.0" type="line"/>
    </contour>
    <contour>
      <point x="609.0" y="1458.0" type="line"/>
      <point x="609.0" y="1335.0166666666667" type="line" smooth="yes"/>
      <point x="609.0" y="1214.4166666666667"/>
      <point x="559.7116666666666" y="1084.4326666666666"/>
      <point x="454.6333333333333" y="995.2333333333333" type="curve"/>
      <point x="380.1666666666667" y="1046.0166666666667" type="line"/>
      <point x="449.869" y="1127.7343333333333"/>
      <point x="483.05" y="1223.4766666666667"/>
      <point x="483.05" y="1332.0166666666667" type="curve" smooth="yes"/>
      <point x="483.05" y="1458.0" type="line"/>
    </contour>
  </outline>
</glyph>
<glyph name="quotedblbase" format="2">
  <advance width="730"/>
  <unicode hex="201E"/>
  <outline>
    <contour>
      <point x="289.3333333333333" y="220.0" type="line"/>
      <point x="289.3333333333333" y="97.01666666666667" type="line" smooth="yes"/>
      <point x="289.3333333333333" y="-23.583333333333343"/>
      <point x="240.04500000000002" y="-153.56733333333332"/>
      <point x="134.96666666666667" y="-242.76666666666665" type="curve"/>
      <point x="60.5" y="-191.98333333333332" type="line"/>
      <point x="130.20233333333334" y="-110.26566666666666"/>
      <point x="163.38333333333333" y="-14.52333333333334"/>
      <point x="163.38333333333333" y="94.01666666666667" type="curve" smooth="yes"/>
      <point x="163.38333333333333" y="220.0" type="line"/>
    </contour>
    <contour>
      <point x="609.0" y="220.0" type="line"/>
      <point x="609.0" y="97.01666666666667" type="line" smooth="yes"/>
      <point x="609.0" y="-23.583333333333343"/>
      <point x="559.7116666666666" y="-153.56733333333332"/>
      <point x="454.6333333333333" y="-242.76666666666665" type="curve"/>
      <point x="380.1666666666667" y="-191.98333333333332" type="line"/>
      <point x="449.869" y="-110.26566666666666"/>
      <point x="483.05" y="-14.52333333333334"/>
      <point x="483.05" y="94.01666666666667" type="curve" smooth="yes"/>
      <point x="483.05" y="220.0" type="line"/>
    </contour>
  </outline>
</glyph>
<glyph name="bullet" format="2">
  <advance width="784"/>
  <unicode hex="2022"/>
  <outline>
    <contour>
      <point x="173.51666666666665" y="773.0" type="curve" smooth="yes"/>
      <point x="173.51666666666665" y="890.987"/>
      <point x="263.494" y="992.2"/>
      <point x="392.0" y="992.2" type="curve" smooth="yes"/>
      <point x="520.506" y="992.2"/>
      <point x="610.4833333333333" y="890.987"/>
      <point x="610.4833333333333" y="773.0" type="curve" smooth="yes"/>
      <point x="610.4833333333333" y="657.6930000000001"/>
      <point x="520.506" y="555.8"/>
      <point x="392.0" y="555.8" type="curve" smooth="yes"/>
      <point x="263.494" y="555.8"/>
      <point x="173.51666666666665" y="657.6930000000001"/>
    </contour>
  </outline>
</glyph>
<glyph name="commercialMinusSign" format="2">
  <advance width="889"/>
  <unicode hex="2052"/>
  <outline>
    <contour>
      <point x="94.68333333333334" y="-10.6" type="line"/>
      <point x="679.6833333333334" y="1492.4" type="line"/>
      <point x="783.1833333333333" y="1465.8833333333334" type="line"/>
      <point x="198.18333333333334" y="-37.11666666666667" type="line"/>
    </contour>
    <contour>
      <point x="553.0166666666667" y="100.7" type="curve" smooth="yes"/>
      <point x="553.0166666666667" y="162.83133333333333"/>
      <point x="599.7096666666666" y="215.4"/>
      <point x="667.0" y="215.4" type="curve" smooth="yes"/>
      <point x="734.2903333333334" y="215.4"/>
      <point x="780.9833333333333" y="162.83133333333333"/>
      <point x="780.9833333333333" y="100.7" type="curve" smooth="yes"/>
      <point x="780.9833333333333" y="39.908666666666655"/>
      <point x="734.2903333333334" y="-13.0"/>
      <point x="667.0" y="-13.0" type="curve" smooth="yes"/>
      <point x="599.7096666666666" y="-13.0"/>
      <point x="553.0166666666667" y="39.908666666666655"/>
    </contour>
    <contour>
      <point x="108.01666666666667" y="1351.3" type="curve" smooth="yes"/>
      <point x="108.01666666666667" y="1413.4313333333334"/>
      <point x="154.70966666666666" y="1466.0"/>
      <point x="222.0" y="1466.0" type="curve" smooth="yes"/>
      <point x="289.2903333333333" y="1466.0"/>
      <point x="335.98333333333335" y="1413.4313333333334"/>
      <point x="335.98333333333335" y="1351.3" type="curve" smooth="yes"/>
      <point x="335.98333333333335" y="1290.5086666666668"/>
      <point x="289.2903333333333" y="1237.6"/>
      <point x="222.0" y="1237.6" type="curve" smooth="yes"/>
      <point x="154.70966666666666" y="1237.6"/>
      <point x="108.01666666666667" y="1290.5086666666668"/>
    </contour>
  </outline>
</glyph>
<glyph name="coloncurrency" format="2">
  <advance width="1158"/>
  <unicode hex="20A1"/>
  <guideline x="0" y="1570.0" angle="0" identifier="0DwZ2nfhdf"/>
  <outline>
    <contour>
      <point x="922.6666666666666" y="1570.0" type="line"/>
      <point x="883.6666666666666" y="1324.0" type="line"/>
      <point x="877.8333333333334" y="1301.0" type="line"/>
      <point x="705.8333333333334" y="68.0" type="line"/>
      <point x="704.6666666666666" y="43.0" type="line"/>
      <point x="680.6666666666666" y="-125.0" type="line"/>
      <point x="577.5666666666667" y="-125.0" type="line"/>
      <point x="600.5666666666667" y="40.0" type="line"/>
      <point x="607.4" y="66.0" type="line"/>
      <point x="792.4" y="1361.0" type="line"/>
      <point x="792.5666666666667" y="1381.0" type="line"/>
      <point x="820.5666666666667" y="1570.0" type="line"/>
    </contour>
    <contour>
      <point x="672.0" y="1570.0" type="line"/>
      <point x="647.0" y="1395.0" type="line"/>
      <point x="641.1666666666666" y="1374.0" type="line"/>
      <point x="454.1666666666667" y="66.0" type="line"/>
      <point x="453.0" y="39.0" type="line"/>
      <point x="430.0" y="-125.0" type="line"/>
      <point x="326.9" y="-125.0" type="line"/>
      <point x="361.9" y="122.0" type="line"/>
      <point x="368.73333333333335" y="148.0" type="line"/>
      <point x="544.7333333333333" y="1376.0" type="line"/>
      <point x="544.9" y="1399.0" type="line"/>
      <point x="569.9" y="1570.0" type="line"/>
    </contour>
    <contour>
      <point x="138.5" y="740.4166666666667" type="curve" smooth="yes"/>
      <point x="138.5" y="715.5833333333333" type="line" smooth="yes"/>
      <point x="138.5" y="1235.0566666666668"/>
      <point x="344.02666666666664" y="1486.0"/>
      <point x="651.3333333333334" y="1486.0" type="curve" smooth="yes"/>
      <point x="936.1279999999999" y="1486.0"/>
      <point x="1101.9833333333333" y="1273.5613333333336"/>
      <point x="1101.9833333333333" y="968.6666666666666" type="curve" smooth="yes"/>
      <point x="1101.9833333333333" y="990.0" type="line"/>
      <point x="983.7833333333333" y="990.0" type="line"/>
      <point x="983.7833333333333" y="967.8833333333333" type="line" smooth="yes"/>
      <point x="983.7833333333333" y="1170.3573333333334"/>
      <point x="892.3546666666667" y="1375.4"/>
      <point x="651.3333333333334" y="1375.4" type="curve" smooth="yes"/>
      <point x="400.2173333333333" y="1375.4"/>
      <point x="255.35" y="1158.4133333333334"/>
      <point x="255.35" y="759.3166666666666" type="curve" smooth="yes"/>
      <point x="255.35" y="713.4166666666666" type="line" smooth="yes"/>
      <point x="255.35" y="311.1486666666667"/>
      <point x="412.75733333333335" y="88.43333333333334"/>
      <point x="642.4333333333333" y="88.43333333333334" type="curve" smooth="yes"/>
      <point x="860.5853333333334" y="88.43333333333334"/>
      <point x="971.2906666666667" y="299.04766666666666"/>
      <point x="979.8666666666667" y="490.4666666666667" type="curve"/>
      <point x="979.8666666666667" y="466.0" type="line"/>
      <point x="1094.15" y="466.0" type="line"/>
      <point x="1094.15" y="479.5" type="line" smooth="yes"/>
      <point x="1094.15" y="166.20799999999997"/>
      <point x="928.2946666666667" y="-30.0"/>
      <point x="643.5" y="-30.0" type="curve" smooth="yes"/>
      <point x="338.58299999999997" y="-30.0"/>
      <point x="138.5" y="221.79199999999992"/>
    </contour>
  </outline>
</glyph>
<glyph name="lira" format="2">
  <advance width="864"/>
  <unicode hex="20A4"/>
  <outline>
    <contour>
      <point x="856.8333333333333" y="0.0" type="line"/>
      <point x="36.0" y="0.0" type="line"/>
      <point x="36.0" y="97.65" type="line"/>
      <point x="77.66666666666667" y="97.65" type="line" smooth="yes"/>
      <point x="227.836" y="97.65"/>
      <point x="319.945" y="235.67666666666668"/>
      <point x="296.3833333333333" y="436.9" type="curve" smooth="yes"/>
      <point x="225.61666666666667" y="1039.0" type="line" smooth="yes"/>
      <point x="189.995" y="1350.5946666666666"/>
      <point x="292.966" y="1482.45"/>
      <point x="519.7833333333333" y="1482.45" type="curve" smooth="yes"/>
      <point x="719.8676666666668" y="1482.45"/>
      <point x="823.5833333333333" y="1374.028"/>
      <point x="823.5833333333333" y="1131.6666666666667" type="curve" smooth="yes"/>
      <point x="823.5833333333333" y="1115.6666666666667" type="line"/>
      <point x="709.7" y="1115.6666666666667" type="line"/>
      <point x="709.7" y="1131.6666666666667" type="line" smooth="yes"/>
      <point x="717.0476666666667" y="1289.7866666666669"/>
      <point x="650.5126666666667" y="1367.1"/>
      <point x="521.7833333333333" y="1367.1" type="curve" smooth="yes"/>
      <point x="384.4333333333333" y="1367.1"/>
      <point x="324.55" y="1305.057"/>
      <point x="350.23333333333335" y="1039.0" type="curve" smooth="yes"/>
      <point x="407.68333333333334" y="463.56666666666666" type="line" smooth="yes"/>
      <point x="426.0636666666666" y="281.32666666666665"/>
      <point x="372.0833333333333" y="161.45666666666665"/>
      <point x="278.2833333333333" y="106.51666666666667" type="curve"/>
      <point x="856.8333333333333" y="106.51666666666667" type="line"/>
    </contour>
    <contour>
      <point x="697.1666666666666" y="817.7833333333333" type="line"/>
      <point x="74.16666666666666" y="817.7833333333333" type="line"/>
      <point x="74.16666666666666" y="899.7833333333333" type="line"/>
      <point x="697.1666666666666" y="899.7833333333333" type="line"/>
    </contour>
    <contour>
      <point x="697.1666666666666" y="443.7833333333333" type="line"/>
      <point x="74.16666666666666" y="443.7833333333333" type="line"/>
      <point x="74.16666666666666" y="525.7833333333333" type="line"/>
      <point x="697.1666666666666" y="525.7833333333333" type="line"/>
    </contour>
  </outline>
</glyph>
<glyph name="peseta" format="2">
  <advance width="1588"/>
  <unicode hex="20A7"/>
  <outline>
    <contour>
      <point x="562.2" y="597.2166666666667" type="curve"/>
      <point x="245.78333333333333" y="597.2166666666667" type="line"/>
      <point x="245.78333333333333" y="692.6666666666666" type="line"/>
      <point x="562.2" y="692.6666666666666" type="line"/>
      <point x="801.5616666666787" y="692.6666666666666"/>
      <point x="874.3166666666667" y="843.2646666666268"/>
      <point x="874.3166666666667" y="1024.7666666666667" type="curve"/>
      <point x="874.3166666666667" y="1206.6003333332833"/>
      <point x="801.5616666666787" y="1356.2833333333333"/>
      <point x="562.2" y="1356.2833333333333" type="curve"/>
      <point x="286.06666666666666" y="1356.2833333333333" type="line"/>
      <point x="286.06666666666666" y="0.0" type="line"/>
      <point x="169.15" y="0.0" type="line"/>
      <point x="169.15" y="1456.0" type="line"/>
      <point x="562.2" y="1456.0" type="line"/>
      <point x="856.986000000024" y="1456.0"/>
      <point x="992.2333333333333" y="1277.385000000004"/>
      <point x="992.2333333333333" y="1025.3333333333333" type="curve"/>
      <point x="992.2333333333333" y="771.6753333333074"/>
      <point x="856.986000000024" y="597.2166666666667"/>
    </contour>
    <contour>
      <point x="860.2833333333333" y="853.7333333333333" type="line"/>
      <point x="860.2833333333333" y="1055.55" type="line"/>
      <point x="1552.3000000000002" y="1055.55" type="line"/>
      <point x="1552.3000000000002" y="853.7333333333333" type="line"/>
    </contour>
    <contour>
      <point x="1154.1333333333334" y="1321.35" type="line"/>
      <point x="1262.15" y="1321.35" type="line"/>
      <point x="1262.15" y="246.26666666666665" type="line" smooth="yes"/>
      <point x="1262.15" y="118.95066666663676"/>
      <point x="1277.1353333333097" y="63.86666666666666"/>
      <point x="1367.75" y="63.86666666666666" type="curve" smooth="yes"/>
      <point x="1402.2703333333452" y="63.86666666666666"/>
      <point x="1420.8036666666667" y="80.30466666666666"/>
      <point x="1416.7166666666667" y="78.25" type="curve"/>
      <point x="1416.7166666666667" y="-14.416666666666668" type="line"/>
      <point x="1415.5776666666668" y="-21.317666666666668"/>
      <point x="1392.1476666666226" y="-37.83333333333333"/>
      <point x="1344.15" y="-37.83333333333333" type="curve" smooth="yes"/>
      <point x="1214.442999999934" y="-37.83333333333333"/>
      <point x="1154.1333333333334" y="64.48333333338323"/>
      <point x="1154.1333333333334" y="252.95" type="curve"/>
    </contour>
  </outline>
</glyph>
<glyph name="dong" format="2">
  <advance width="1033"/>
  <unicode hex="20AB"/>
  <outline>
    <contour>
      <point x="139.83333333333334" y="463.6" type="curve" smooth="yes"/>
      <point x="139.83333333333334" y="509.1166666666667" type="line" smooth="yes"/>
      <point x="139.83333333333334" y="810.3486666666666"/>
      <point x="269.71066666666667" y="992.7166666666667"/>
      <point x="494.25" y="992.7166666666667" type="curve" smooth="yes"/>
      <point x="612.1030000000001" y="992.7166666666667"/>
      <point x="704.653" y="936.4300000000001"/>
      <point x="757.65" y="853.35" type="curve"/>
      <point x="757.65" y="1456.0" type="line"/>
      <point x="873.4333333333333" y="1456.0" type="line"/>
      <point x="873.4333333333333" y="0.0" type="line"/>
      <point x="766.0" y="0.0" type="line"/>
      <point x="763.3666666666667" y="124.58333333333333" type="line"/>
      <point x="761.65" y="115.98333333333333" type="line"/>
      <point x="715.1743333333334" y="39.87133333333334"/>
      <point x="617.1633333333334" y="-20.0"/>
      <point x="479.3666666666667" y="-20.0" type="curve" smooth="yes"/>
      <point x="274.77099999999996" y="-20.0"/>
      <point x="139.83333333333334" y="169.71566666666666"/>
    </contour>
    <contour>
      <point x="248.91666666666666" y="431.6" type="line" smooth="yes"/>
      <point x="248.91666666666666" y="209.4726666666666"/>
      <point x="332.1833333333333" y="73.98333333333333"/>
      <point x="530.95" y="73.98333333333333" type="curve" smooth="yes"/>
      <point x="632.6113333333334" y="73.98333333333333"/>
      <point x="721.805" y="145.75933333333333"/>
      <point x="757.65" y="227.63333333333333" type="curve"/>
      <point x="757.65" y="729.4166666666666" type="line"/>
      <point x="721.805" y="811.2906666666667"/>
      <point x="635.2746666666667" y="898.7333333333333"/>
      <point x="523.1166666666667" y="898.7333333333333" type="curve" smooth="yes"/>
      <point x="334.8466666666667" y="898.7333333333333"/>
      <point x="248.91666666666666" y="752.7473333333332"/>
      <point x="248.91666666666666" y="541.1166666666667" type="curve" smooth="yes"/>
    </contour>
    <contour>
      <point x="978.3333333333334" y="1160.2666666666667" type="line"/>
      <point x="347.6666666666667" y="1160.2666666666667" type="line"/>
      <point x="347.6666666666667" y="1250.4333333333334" type="line"/>
      <point x="978.3333333333334" y="1250.4333333333334" type="line"/>
    </contour>
    <contour>
      <point x="919.7333333333333" y="-220.16666666666666" type="line"/>
      <point x="125.5" y="-220.16666666666666" type="line"/>
      <point x="125.5" y="-132.26666666666668" type="line"/>
      <point x="919.7333333333333" y="-132.26666666666668" type="line"/>
    </contour>
  </outline>
</glyph>
<glyph name="uni20B1" format="2">
  <advance width="981"/>
  <unicode hex="20B1"/>
  <outline>
    <contour>
      <point x="424.98333333333335" y="421.0" type="curve" smooth="yes"/>
      <point x="210.65" y="421.0" type="line"/>
      <point x="210.65" y="526.1166666666667" type="line"/>
      <point x="424.4166666666667" y="526.1166666666667" type="line" smooth="yes"/>
      <point x="656.7056666666666" y="526.1166666666667"/>
      <point x="733.4166666666666" y="711.5696666666666"/>
      <point x="733.4166666666666" y="952.1666666666666" type="curve" smooth="yes"/>
      <point x="733.4166666666666" y="1191.8033333333333"/>
      <point x="656.7056666666666" y="1350.8833333333334"/>
      <point x="424.4166666666667" y="1350.8833333333334" type="curve" smooth="yes"/>
      <point x="264.81666666666666" y="1350.8833333333334" type="line"/>
      <point x="264.81666666666666" y="0.0" type="line"/>
      <point x="147.05" y="0.0" type="line"/>
      <point x="147.05" y="1456.0" type="line"/>
      <point x="425.26666666666665" y="1456.0" type="line" smooth="yes"/>
      <point x="716.1583333333333" y="1456.0"/>
      <point x="851.3333333333334" y="1267.153"/>
      <point x="851.3333333333334" y="955.0" type="curve" smooth="yes"/>
      <point x="851.3333333333334" y="648.7206666666666"/>
      <point x="715.875" y="421.0"/>
    </contour>
    <contour>
      <point x="-1.0" y="1020.8166666666666" type="line"/>
      <point x="-1.0" y="1115.5333333333333" type="line"/>
      <point x="201.0" y="1115.5333333333333" type="line"/>
      <point x="201.0" y="1107.7333333333333" type="line"/>
      <point x="744.3333333333334" y="1107.7333333333333" type="line"/>
      <point x="744.3333333333334" y="1115.5333333333333" type="line"/>
      <point x="976.3333333333334" y="1117.5333333333333" type="line"/>
      <point x="976.3333333333334" y="1022.8166666666666" type="line"/>
      <point x="764.3333333333334" y="1020.8166666666666" type="line"/>
      <point x="764.3333333333334" y="1025.7833333333333" type="line"/>
      <point x="201.0" y="1025.7833333333333" type="line"/>
      <point x="201.0" y="1020.8166666666666" type="line"/>
    </contour>
    <contour>
      <point x="-1.0" y="757.9833333333333" type="line"/>
      <point x="-1.0" y="852.7" type="line"/>
      <point x="201.0" y="852.7" type="line"/>
      <point x="201.0" y="847.7333333333333" type="line"/>
      <point x="764.3333333333334" y="847.7333333333333" type="line"/>
      <point x="764.3333333333334" y="852.7" type="line"/>
      <point x="976.3333333333334" y="854.7" type="line"/>
      <point x="976.3333333333334" y="759.9833333333333" type="line"/>
      <point x="724.3333333333334" y="757.9833333333333" type="line"/>
      <point x="724.3333333333334" y="765.5" type="line"/>
      <point x="201.0" y="765.5" type="line"/>
      <point x="201.0" y="757.9833333333333" type="line"/>
    </contour>
  </outline>
</glyph>
<glyph name="numero" format="2">
  <advance width="2160"/>
  <unicode hex="2116"/>
  <outline>
    <contour>
      <point x="198.66666666666666" y="0.0" type="line"/>
      <point x="198.66666666666666" y="1456.0" type="line"/>
      <point x="343.75" y="1456.0" type="line"/>
      <point x="911.1" y="322.7" type="line" smooth="yes"/>
      <point x="926.644" y="288.6863333333333"/>
      <point x="952.9643333333333" y="223.468"/>
      <point x="965.7166666666667" y="178.53333333333333" type="curve"/>
      <point x="972.15" y="178.53333333333333" type="line"/>
      <point x="971.1003333333333" y="225.88000000000002"/>
      <point x="972.2166666666667" y="281.7413333333333"/>
      <point x="972.2166666666667" y="324.8" type="curve" smooth="yes"/>
      <point x="972.2166666666667" y="1456.0" type="line"/>
      <point x="1087.5666666666666" y="1456.0" type="line"/>
      <point x="1087.5666666666666" y="0.0" type="line"/>
      <point x="944.7666666666667" y="0.0" type="line"/>
      <point x="376.2" y="1152.6833333333334" type="line" smooth="yes"/>
      <point x="357.41766666666666" y="1192.7939999999999"/>
      <point x="325.70133333333337" y="1244.3416666666667"/>
      <point x="312.0333333333333" y="1282.8666666666668" type="curve"/>
      <point x="305.6" y="1282.8666666666668" type="line"/>
      <point x="308.57033333333334" y="1235.0286666666668"/>
      <point x="310.25" y="1177.034"/>
      <point x="310.25" y="1131.1166666666668" type="curve" smooth="yes"/>
      <point x="310.25" y="0.0" type="line"/>
    </contour>
    <contour>
      <point x="1277.3333333333333" y="992.0" type="curve" smooth="yes"/>
      <point x="1277.3333333333333" y="1019.0" type="line" smooth="yes"/>
      <point x="1277.3333333333333" y="1287.0"/>
      <point x="1405.8266666666666" y="1473.0"/>
      <point x="1668.4666666666667" y="1473.0" type="curve" smooth="yes"/>
      <point x="1931.1066666666668" y="1473.0"/>
      <point x="2062.7333333333336" y="1287.0"/>
      <point x="2062.7333333333336" y="1019.0" type="curve" smooth="yes"/>
      <point x="2062.7333333333336" y="992.0" type="line" smooth="yes"/>
      <point x="2062.7333333333336" y="724.0"/>
      <point x="1947.1866666666667" y="539.0"/>
      <point x="1668.4666666666667" y="539.0" type="curve" smooth="yes"/>
      <point x="1389.7466666666667" y="539.0"/>
      <point x="1277.3333333333333" y="724.0"/>
    </contour>
    <contour>
      <point x="1380.8666666666668" y="1016.0" type="curve" smooth="yes"/>
      <point x="1380.8666666666668" y="991.0" type="line" smooth="yes"/>
      <point x="1380.8666666666668" y="771.8430000000001"/>
      <point x="1467.9133333333332" y="631.0166666666667"/>
      <point x="1668.4666666666667" y="631.0166666666667" type="curve" smooth="yes"/>
      <point x="1869.9803333333332" y="631.0166666666667"/>
      <point x="1959.9166666666667" y="771.8430000000001"/>
      <point x="1959.9166666666667" y="991.0" type="curve" smooth="yes"/>
      <point x="1959.9166666666667" y="1016.0" type="line" smooth="yes"/>
      <point x="1959.9166666666667" y="1237.0776666666666"/>
      <point x="1869.6006666666667" y="1384.9"/>
      <point x="1668.4666666666667" y="1384.9" type="curve" smooth="yes"/>
      <point x="1468.293" y="1384.9"/>
      <point x="1380.8666666666668" y="1237.0776666666666"/>
    </contour>
    <contour>
      <point x="1293.8" y="267.8333333333333" type="line"/>
      <point x="1293.8" y="378.1666666666667" type="line"/>
      <point x="2044.1333333333332" y="378.1666666666667" type="line"/>
      <point x="2044.1333333333332" y="267.8333333333333" type="line"/>
    </contour>
  </outline>
</glyph>
<glyph name="De.bgr" format="2">
  <advance width="1246"/>
  <outline>
    <contour>
      <point x="1128.3166666666666" y="-290.0" type="line"/>
      <point x="1128.3166666666666" y="0.0" type="line"/>
      <point x="117.5" y="0.0" type="line"/>
      <point x="117.5" y="-290.0" type="line"/>
      <point x="10.0" y="-290.0" type="line"/>
      <point x="10.0" y="103.56666666666666" type="line"/>
      <point x="1235.8166666666666" y="103.56666666666666" type="line"/>
      <point x="1235.8166666666666" y="-290.0" type="line"/>
    </contour>
    <contour>
      <point x="1154.1166666666668" y="0.0" type="line"/>
      <point x="1034.5666666666666" y="0.0" type="line"/>
      <point x="671.2333333333333" y="1200.4" type="line" smooth="yes"/>
      <point x="655.2203333333333" y="1250.114"/>
      <point x="637.0613333333333" y="1313.0333333333333"/>
      <point x="626.9666666666667" y="1368.8666666666668" type="curve"/>
      <point x="619.75" y="1368.8666666666668" type="line"/>
      <point x="610.035" y="1310.9339999999997"/>
      <point x="590.1463333333334" y="1247.7796666666668"/>
      <point x="574.1333333333333" y="1194.9166666666667" type="curve" smooth="yes"/>
      <point x="210.58333333333331" y="0.0" type="line"/>
      <point x="91.7" y="0.0" type="line"/>
      <point x="547.7166666666667" y="1466.0" type="line"/>
      <point x="698.8166666666666" y="1466.0" type="line"/>
    </contour>
  </outline>
</glyph>
<glyph name="El.bgr" format="2">
  <advance width="1022"/>
  <outline>
    <contour>
      <point x="1022.4166666666667" y="0.0" type="line"/>
      <point x="902.8666666666667" y="0.0" type="line"/>
      <point x="559.5333333333333" y="1182.2" type="line" smooth="yes"/>
      <point x="543.9" y="1235.063"/>
      <point x="522.4943333333333" y="1299.784"/>
      <point x="511.35" y="1357.7166666666667" type="curve"/>
      <point x="504.1333333333333" y="1357.7166666666667" type="line"/>
      <point x="494.41833333333335" y="1299.784"/>
      <point x="474.15000000000003" y="1235.063"/>
      <point x="458.51666666666665" y="1182.2" type="curve" smooth="yes"/>
      <point x="112.61666666666667" y="0.0" type="line"/>
      <point x="0.0" y="0.0" type="line"/>
      <point x="436.01666666666665" y="1466.0" type="line"/>
      <point x="587.1166666666667" y="1466.0" type="line"/>
    </contour>
  </outline>
</glyph>
<glyph name="be.locl" format="2">
  <advance width="1001"/>
  <outline>
    <contour>
      <point x="199.1" y="579.0" type="curve" smooth="yes"/>
      <point x="199.1" y="483.0" type="line" smooth="yes"/>
      <point x="199.1" y="227.8193333333333"/>
      <point x="301.03099999999995" y="71.15"/>
      <point x="500.26666666666665" y="71.15" type="curve" smooth="yes"/>
      <point x="699.5023333333334" y="71.15"/>
      <point x="802.5" y="227.8193333333333"/>
      <point x="802.5" y="483.0" type="curve" smooth="yes"/>
      <point x="802.5" y="579.0" type="line" smooth="yes"/>
      <point x="802.5" y="848.675"/>
      <point x="704.9293333333334" y="990.85"/>
      <point x="500.26666666666665" y="990.85" type="curve" smooth="yes"/>
      <point x="292.455" y="990.85"/>
      <point x="199.1" y="834.1806666666668"/>
    </contour>
    <contour>
      <point x="85.0" y="547.0" type="line" smooth="yes"/>
      <point x="85.0" y="772.5443333333333"/>
      <point x="144.81466666666665" y="947.945"/>
      <point x="373.01666666666665" y="1040.5166666666667" type="curve"/>
      <point x="373.01666666666665" y="1044.5166666666667" type="line"/>
      <point x="243.52042233275182" y="1072.5092757184116"/>
      <point x="158.66666666666666" y="1141.49"/>
      <point x="158.66666666666666" y="1258.5166666666667" type="curve" smooth="yes"/>
      <point x="158.66666666666666" y="1397.0726666666667"/>
      <point x="266.0010237803631" y="1485.0"/>
      <point x="435.81666666666666" y="1485.0" type="curve" smooth="yes"/>
      <point x="575.5833333333334" y="1485.0" type="line" smooth="yes"/>
      <point x="689.0366666666666" y="1485.0"/>
      <point x="728.7900000000001" y="1496.068"/>
      <point x="740.85" y="1536.0" type="curve"/>
      <point x="838.0333333333333" y="1536.0" type="line"/>
      <point x="825.7946666666667" y="1428.3310000000001"/>
      <point x="751.2696666666667" y="1386.1333333333334"/>
      <point x="586.5166666666667" y="1386.1333333333334" type="curve" smooth="yes"/>
      <point x="440.66666666666663" y="1386.1333333333334" type="line" smooth="yes"/>
      <point x="294.13766666666663" y="1386.1333333333334"/>
      <point x="241.66666666666666" y="1341.4233333333334"/>
      <point x="241.66666666666666" y="1251.8666666666666" type="curve" smooth="yes"/>
      <point x="241.66666666666666" y="1131.8026666666667"/>
      <point x="354.566902914106" y="1103.5815498739514"/>
      <point x="565.4666666666667" y="1074.8166666666666" type="curve" smooth="yes"/>
      <point x="777.1643333333334" y="1046.6766666666665"/>
      <point x="916.6" y="846.49"/>
      <point x="916.6" y="547.0" type="curve" smooth="yes"/>
      <point x="916.6" y="515.0" type="line" smooth="yes"/>
      <point x="916.6" y="165.19299999999998"/>
      <point x="754.018" y="-30.0"/>
      <point x="500.26666666666665" y="-30.0" type="curve" smooth="yes"/>
      <point x="246.5153333333333" y="-30.0"/>
      <point x="85.0" y="165.19299999999998"/>
      <point x="85.0" y="515.0" type="curve" smooth="yes"/>
    </contour>
  </outline>
</glyph>
<glyph name="breve.cyr.case" format="2">
  <advance width="1025"/>
  <outline>
    <contour>
      <point x="512.7166666666667" y="1737.1166666666666" type="curve" smooth="yes"/>
      <point x="646.8107667983658" y="1737.1166666666666"/>
      <point x="732.9050067355047" y="1815.3270155412724"/>
      <point x="785.15" y="1955.35" type="curve"/>
      <point x="878.9666666666667" y="1901.1833333333334" type="line"/>
      <point x="824.0212400820309" y="1748.2746170351104"/>
      <point x="691.8977777777366" y="1640.0"/>
      <point x="512.7166666666667" y="1640.0" type="curve" smooth="yes"/>
      <point x="333.53555555559683" y="1640.0"/>
      <point x="201.04677058311893" y="1748.2531918191341"/>
      <point x="146.46666666666667" y="1901.1833333333334" type="curve"/>
      <point x="240.28333333333333" y="1955.35" type="line"/>
      <point x="292.1613549901083" y="1815.6807964216885"/>
      <point x="378.6225665349674" y="1737.1166666666666"/>
    </contour>
  </outline>
</glyph>
<glyph name="brevecomb.case" format="2">
  <advance width="1024"/>
  <outline>
    <contour>
      <point x="818.05" y="1952.35" type="curve"/>
      <point x="879.5166666666667" y="1906.0" type="line"/>
      <point x="829.1773333333334" y="1765.6573333333333"/>
      <point x="695.3566666666668" y="1640.0"/>
      <point x="512.0" y="1640.0" type="curve" smooth="yes"/>
      <point x="332.7973333333333" y="1640.0"/>
      <point x="196.60233333333332" y="1760.2456666666667"/>
      <point x="144.76666666666668" y="1906.2833333333333" type="curve"/>
      <point x="208.21666666666667" y="1952.35" type="line"/>
      <point x="267.75733333333335" y="1830.477"/>
      <point x="378.6943333333333" y="1748.8"/>
      <point x="512.7166666666667" y="1748.8" type="curve" smooth="yes"/>
      <point x="645.5553333333334" y="1748.8"/>
      <point x="756.5886666666667" y="1828.5786666666668"/>
    </contour>
  </outline>
</glyph>
<glyph name="breveinvertedcomb.case" format="2">
  <advance width="1024"/>
  <outline>
    <contour>
      <point x="206.23333333333332" y="1618.0166666666667" type="curve"/>
      <point x="144.76666666666668" y="1664.3666666666666" type="line"/>
      <point x="193.18533333333335" y="1804.7093333333332"/>
      <point x="327.006" y="1930.3666666666666"/>
      <point x="512.2833333333333" y="1930.3666666666666" type="curve" smooth="yes"/>
      <point x="689.5653333333335" y="1930.3666666666666"/>
      <point x="825.7603333333333" y="1810.1209999999999"/>
      <point x="879.5166666666667" y="1664.0833333333333" type="curve"/>
      <point x="816.0666666666667" y="1618.0166666666667" type="line"/>
      <point x="754.6053333333334" y="1739.8896666666667"/>
      <point x="643.181" y="1821.5666666666666"/>
      <point x="513.0" y="1821.5666666666666" type="curve" smooth="yes"/>
      <point x="376.32" y="1821.5666666666666"/>
      <point x="265.774" y="1741.7880000000002"/>
    </contour>
  </outline>
</glyph>
<glyph name="commaaccentcomb.case" format="2">
  <advance width="1024"/>
  <outline>
    <contour>
      <point x="368.8333333333333" y="-648.0" type="line"/>
      <point x="407.6933333333333" y="-508.64"/>
      <point x="423.9533333333333" y="-422.26"/>
      <point x="466.8333333333333" y="-236.0" type="curve"/>
      <point x="602.0" y="-234.0" type="line"/>
      <point x="465.0" y="-651.0" type="line"/>
    </contour>
  </outline>
</glyph>
<glyph name="dollar.rvrn" format="2">
  <advance width="1128"/>
  <outline>
    <contour>
      <point x="147.45336134452094" y="456.66713352005644" type="curve" smooth="yes"/>
      <point x="147.45336134452094" y="470.15658263303214" type="line"/>
      <point x="268.2559757236326" y="470.15658263303214" type="line"/>
      <point x="268.2559757236326" y="456.66713352005644" type="line" smooth="yes"/>
      <point x="268.2559757236326" y="231.42408123247844"/>
      <point x="385.33003081228344" y="124.65905695613404"/>
      <point x="589.3898225957162" y="124.65905695613404" type="curve" smooth="yes"/>
      <point x="793.4601241829857" y="124.65905695613404"/>
      <point x="903.9170093370864" y="243.66682726422357"/>
      <point x="902.9566760037532" y="413.8276844070807" type="curve" smooth="yes"/>
      <point x="901.9963426704198" y="571.1591363211608"/>
      <point x="836.4329094304121" y="619.0638039215949"/>
      <point x="571.3426237161264" y="686.9707749766686" type="curve" smooth="yes"/>
      <point x="312.2718281979079" y="756.1338552754285"/>
      <point x="164.97679738559" y="832.0934780579336"/>
      <point x="164.97679738559" y="1057.2256769374403" type="curve" smooth="yes"/>
      <point x="164.97679738559" y="1292.3141008403384"/>
      <point x="327.59386367880757" y="1453.0211017740485"/>
      <point x="579.9646591970262" y="1453.0211017740485" type="curve" smooth="yes"/>
      <point x="833.6208412698045" y="1453.0211017740485"/>
      <point x="995.4861811391041" y="1270.6316451914067"/>
      <point x="995.4861811391041" y="1012.7801120448222" type="curve" smooth="yes"/>
      <point x="995.4861811391041" y="999.2906629318464" type="line"/>
      <point x="873.4750700280407" y="999.2906629318464" type="line"/>
      <point x="873.4750700280407" y="1012.7801120448222" type="line" smooth="yes"/>
      <point x="873.4750700280407" y="1208.847635854346"/>
      <point x="773.4358702147308" y="1338.7881886087446"/>
      <point x="581.0313258636928" y="1338.7881886087446" type="curve" smooth="yes"/>
      <point x="383.5822007469268" y="1338.7881886087446"/>
      <point x="285.78758169934497" y="1239.7323912231545"/>
      <point x="285.78758169934497" y="1072.1590102707737" type="curve" smooth="yes"/>
      <point x="285.78758169934497" y="903.1472250233601"/>
      <point x="356.1552436974584" y="889.3142763772668"/>
      <point x="640.2516339869001" y="805.3159197011857" type="curve" smooth="yes"/>
      <point x="900.6615536881402" y="724.9806676003566"/>
      <point x="1022.9677871148165" y="632.4562166200167"/>
      <point x="1022.9677871148165" y="428.1610177404141" type="curve" smooth="yes"/>
      <point x="1022.9677871148165" y="175.68087021474085"/>
      <point x="855.941408963623" y="8.936694677854284"/>
      <point x="589.3898225957162" y="8.936694677854284" type="curve" smooth="yes"/>
      <point x="320.91800746963185" y="8.936694677854284"/>
      <point x="147.45336134452094" y="167.9094575163291"/>
    </contour>
    <contour>
      <point x="540.3391690009562" y="-120.21101774041405" type="line"/>
      <point x="540.3391690009562" y="119.01680672267642" type="line"/>
      <point x="636.0397759103557" y="119.01680672267642" type="line"/>
      <point x="636.0397759103557" y="93.95564892625262" type="line"/>
      <point x="634.8404761904762" y="83.95564892625262" type="line"/>
      <point x="634.8404761904762" y="-120.21101774041405" type="line"/>
    </contour>
    <contour>
      <point x="538.8728758169583" y="1322.0887021474946" type="line"/>
      <point x="538.8728758169583" y="1347.1498599439901" type="line"/>
      <point x="539.3555088702428" y="1357.1498599439901" type="line"/>
      <point x="539.3555088702428" y="1635.788982259586" type="line"/>
      <point x="633.8568160597629" y="1635.788982259586" type="line"/>
      <point x="633.8568160597629" y="1322.0887021474946" type="line"/>
    </contour>
  </outline>
</glyph>
<glyph name="dotaccentcomb.case" format="2">
  <advance width="1024"/>
  <outline>
    <contour>
      <point x="421.81666666666666" y="1761.9" type="curve" smooth="yes"/>
      <point x="421.81666666666666" y="1814.2716666666668"/>
      <point x="453.107" y="1850.5166666666667"/>
      <point x="512.0" y="1850.5166666666667" type="curve" smooth="yes"/>
      <point x="570.3346666666666" y="1850.5166666666667"/>
      <point x="602.9" y="1812.753"/>
      <point x="602.9" y="1761.9" type="curve" smooth="yes"/>
      <point x="602.9" y="1709.5283333333332"/>
      <point x="571.8533333333332" y="1674.0"/>
      <point x="512.0" y="1674.0" type="curve" smooth="yes"/>
      <point x="454.6256666666667" y="1674.0"/>
      <point x="421.81666666666666" y="1711.047"/>
    </contour>
  </outline>
</glyph>
<glyph name="el.bgr" format="2">
  <advance width="856"/>
  <outline>
    <contour>
      <point x="855.6666666666666" y="0.0" type="line"/>
      <point x="728.7" y="0.0" type="line"/>
      <point x="469.5333333333333" y="766.7" type="line" smooth="yes"/>
      <point x="451.22" y="820.3000000000001"/>
      <point x="440.61400000000003" y="851.1226666666666"/>
      <point x="429.98333333333335" y="918.0333333333333" type="curve"/>
      <point x="423.26666666666665" y="918.0333333333333" type="line"/>
      <point x="413.105" y="851.1226666666666"/>
      <point x="401.0696666666667" y="820.3000000000001"/>
      <point x="383.7166666666667" y="766.7" type="curve" smooth="yes"/>
      <point x="123.33333333333333" y="0.0" type="line"/>
      <point x="0.0" y="0.0" type="line"/>
      <point x="375.46666666666664" y="1052.0" type="line"/>
      <point x="480.2" y="1052.0" type="line"/>
    </contour>
  </outline>
</glyph>
<glyph name="five.prop" format="2">
  <advance width="1007"/>
  <outline>
    <contour>
      <point x="127.9" y="362.85" type="curve" smooth="yes"/>
      <point x="127.9" y="375.0" type="line"/>
      <point x="233.85" y="375.0" type="line"/>
      <point x="233.85" y="365.0" type="line" smooth="yes"/>
      <point x="233.85" y="182.08999999999997"/>
      <point x="343.6256666666667" y="70.35"/>
      <point x="507.0833333333333" y="70.35" type="curve" smooth="yes"/>
      <point x="671.01" y="70.35"/>
      <point x="773.1333333333333" y="214.12966666666668"/>
      <point x="773.1333333333333" y="465.0" type="curve" smooth="yes"/>
      <point x="773.1333333333333" y="700.036"/>
      <point x="670.6473333333333" y="825.5833333333334"/>
      <point x="508.15" y="825.5833333333334" type="curve" smooth="yes"/>
      <point x="412.8536666666667" y="826.5436666666666"/>
      <point x="295.055" y="756.0113333333333"/>
      <point x="243.8" y="682.2666666666667" type="curve"/>
      <point x="170.78333333333333" y="717.8166666666667" type="line"/>
      <point x="244.08333333333331" y="1456.0" type="line"/>
      <point x="824.4" y="1456.0" type="line"/>
      <point x="824.4" y="1351.1666666666667" type="line"/>
      <point x="335.6333333333333" y="1351.1666666666667" type="line"/>
      <point x="276.93333333333334" y="809.25" type="line"/>
      <point x="325.28499999999997" y="873.4806666666666"/>
      <point x="429.65866666666665" y="926.2166666666667"/>
      <point x="521.7166666666667" y="926.2166666666667" type="curve" smooth="yes"/>
      <point x="731.4713333333334" y="926.2166666666667"/>
      <point x="882.9333333333334" y="757.3656666666666"/>
      <point x="882.9333333333334" y="465.0" type="curve" smooth="yes"/>
      <point x="882.9333333333334" y="156.79999999999995"/>
      <point x="732.6276666666666" y="-30.0"/>
      <point x="507.0833333333333" y="-30.0" type="curve" smooth="yes"/>
      <point x="282.00800000000004" y="-30.0"/>
      <point x="127.9" y="121.6053333333333"/>
    </contour>
  </outline>
</glyph>
<glyph name="ghe.bgr" format="2">
  <advance width="856"/>
  <outline>
    <contour>
      <point x="775.5333333333333" y="310.71666666666664" type="line"/>
      <point x="664.0" y="310.71666666666664" type="line"/>
      <point x="664.0" y="305.71666666666664" type="line" smooth="yes"/>
      <point x="664.0" y="146.346"/>
      <point x="566.722" y="66.16666666666667"/>
      <point x="423.83333333333337" y="66.16666666666667" type="curve" smooth="yes"/>
      <point x="275.78566666666666" y="66.16666666666667"/>
      <point x="196.75" y="142.19566666666668"/>
      <point x="196.75" y="264.78333333333336" type="curve" smooth="yes"/>
      <point x="196.75" y="385.22015410380163"/>
      <point x="248.12890056951878" y="452.9182903300396"/>
      <point x="447.6666666666667" y="509.31666666666666" type="curve" smooth="yes"/>
      <point x="645.2077498047249" y="565.8144500809758"/>
      <point x="734.4166666666666" y="658.2078327939073"/>
      <point x="734.4166666666666" y="800.1666666666666" type="curve" smooth="yes"/>
      <point x="734.4166666666666" y="951.204697594562"/>
      <point x="648.9876666666667" y="1082.0"/>
      <point x="410.26666666666665" y="1082.0" type="curve" smooth="yes"/>
      <point x="208.1946666666667" y="1082.0"/>
      <point x="87.88333333333333" y="970.2966666666667"/>
      <point x="87.88333333333333" y="753.2166666666667" type="curve" smooth="yes"/>
      <point x="87.88333333333333" y="748.2166666666667" type="line"/>
      <point x="199.13333333333333" y="748.2166666666667" type="line"/>
      <point x="199.13333333333333" y="768.55" type="line" smooth="yes"/>
      <point x="199.13333333333333" y="918.429"/>
      <point x="273.6089999999999" y="985.8333333333334"/>
      <point x="410.26666666666665" y="985.8333333333334" type="curve" smooth="yes"/>
      <point x="565.0322822085355" y="985.8333333333334"/>
      <point x="618.45" y="917.3162913752384"/>
      <point x="618.45" y="808.0833333333334" type="curve" smooth="yes"/>
      <point x="618.45" y="704.4715555556033"/>
      <point x="574.7158936992212" y="637.0907683503292"/>
      <point x="379.26666666666665" y="577.7666666666667" type="curve" smooth="yes"/>
      <point x="182.2755524447704" y="517.4758750850378"/>
      <point x="80.0" y="434.9822857143307"/>
      <point x="80.0" y="267.53333333333336" type="curve" smooth="yes"/>
      <point x="80.0" y="64.09413880129625"/>
      <point x="214.70399999999995" y="-30.0"/>
      <point x="423.83333333333337" y="-30.0" type="curve" smooth="yes"/>
      <point x="664.2070000000001" y="-30.0"/>
      <point x="775.5333333333333" y="90.11066666666665"/>
      <point x="775.5333333333333" y="305.71666666666664" type="curve" smooth="yes"/>
    </contour>
  </outline>
</glyph>
<glyph name="jdotless" format="2">
  <advance width="430"/>
  <outline>
    <contour>
      <point x="-108.104" y="-412.924" type="curve"/>
      <point x="-108.104" y="-312.632" type="line"/>
      <point x="-83.07101333333333" y="-320.0189733333333"/>
      <point x="-31.76966000000001" y="-331.6573333333333"/>
      <point x="5.146000000000001" y="-331.6573333333333" type="curve" smooth="yes"/>
      <point x="101.18022666666667" y="-331.6573333333333"/>
      <point x="157.0" y="-274.11777422225424"/>
      <point x="157.0" y="-130.0" type="curve" smooth="yes"/>
      <point x="157.0" y="1052.0" type="line"/>
      <point x="272.996" y="1052.0" type="line"/>
      <point x="272.996" y="-90.0" type="line" smooth="yes"/>
      <point x="272.996" y="-331.20000000000005"/>
      <point x="188.96974105263664" y="-436.0"/>
      <point x="27.401333333333334" y="-436.0" type="curve" smooth="yes"/>
      <point x="-18.43229333333764" y="-436.0"/>
      <point x="-79.82100812634573" y="-423.0714561496727"/>
    </contour>
  </outline>
</glyph>
<glyph name="nine.prop" format="2">
  <advance width="1021"/>
  <outline>
    <contour>
      <point x="107.16666666666667" y="994.8333333333334" type="curve" smooth="yes"/>
      <point x="107.16666666666667" y="1288.1146666666668"/>
      <point x="261.5373333333333" y="1486.0"/>
      <point x="488.5333333333333" y="1486.0" type="curve" smooth="yes"/>
      <point x="729.443" y="1486.0"/>
      <point x="896.5" y="1276.4726666666668"/>
      <point x="896.5" y="842.0" type="curve" smooth="yes"/>
      <point x="896.5" y="812.0" type="line" smooth="yes"/>
      <point x="896.5" y="298.95866666666666"/>
      <point x="642.806" y="-30.0"/>
      <point x="290.9666666666667" y="-30.0" type="curve" smooth="yes"/>
      <point x="273.45" y="-30.0" type="line"/>
      <point x="273.45" y="70.35" type="line"/>
      <point x="290.9666666666667" y="70.35" type="line" smooth="yes"/>
      <point x="574.0416666666667" y="70.35"/>
      <point x="788.7" y="322.4363333333333"/>
      <point x="788.7" y="802.0" type="curve" smooth="yes"/>
      <point x="788.7" y="852.0" type="line" smooth="yes"/>
      <point x="788.7" y="1243.1013333333333"/>
      <point x="663.9616666666668" y="1385.65"/>
      <point x="488.5333333333333" y="1385.65" type="curve" smooth="yes"/>
      <point x="314.53433333333334" y="1385.65"/>
      <point x="218.03333333333333" y="1243.8053333333335"/>
      <point x="218.03333333333333" y="994.8333333333334" type="curve" smooth="yes"/>
      <point x="218.03333333333333" y="759.7749999999999"/>
      <point x="309.3026666666667" y="627.5"/>
      <point x="478.5" y="627.5" type="curve" smooth="yes"/>
      <point x="648.6576666666667" y="627.5"/>
      <point x="794.7" y="777.061"/>
      <point x="794.7" y="994.8333333333334" type="curve"/>
      <point x="841.0666666666667" y="994.8333333333334" type="line"/>
      <point x="841.0666666666667" y="718.3466666666666"/>
      <point x="678.732" y="527.15"/>
      <point x="464.6" y="527.15" type="curve" smooth="yes"/>
      <point x="241.80266666666662" y="527.15"/>
      <point x="107.16666666666667" y="714.5053333333333"/>
    </contour>
  </outline>
</glyph>
<glyph name="ogonekcomb.case" format="2">
  <advance width="1024"/>
  <outline>
    <contour>
      <point x="238.91666666666666" y="-295.25" type="curve" smooth="yes"/>
      <point x="238.91666666666666" y="-175.99"/>
      <point x="312.3813333333334" y="-78.042"/>
      <point x="468.0" y="51.0" type="curve"/>
      <point x="532.9" y="8.6" type="line"/>
      <point x="387.0628954248441" y="-128.09094771242206"/>
      <point x="348.56666666666666" y="-184.1156666666667"/>
      <point x="348.56666666666666" y="-256.9" type="curve" smooth="yes"/>
      <point x="348.56666666666666" y="-342.3473333333334"/>
      <point x="404.8473333333334" y="-385.7"/>
      <point x="501.4166666666667" y="-385.7" type="curve" smooth="yes"/>
      <point x="588.4050000000001" y="-385.7"/>
      <point x="652.17" y="-355.92366666666663"/>
      <point x="735.25" y="-291.98333333333335" type="curve"/>
      <point x="775.7666666666667" y="-357.0" type="line"/>
      <point x="711.6253333333333" y="-429.13666666666666"/>
      <point x="613.5186666666666" y="-479.8"/>
      <point x="478.0" y="-479.8" type="curve" smooth="yes"/>
      <point x="337.29999999999995" y="-479.8"/>
      <point x="238.91666666666666" y="-399.77"/>
    </contour>
  </outline>
</glyph>
